<svg xmlns="http://www.w3.org/2000/svg" xmlns:xlink="http://www.w3.org/1999/xlink" width="665.029" height="622.237" viewBox="0 0 665.029 622.237">
  <defs>
    <linearGradient id="linear-gradient" x1="0.009" y1="0.652" x2="1.636" y2="0.253" gradientUnits="objectBoundingBox">
      <stop offset="0" stop-color="#19034d" stop-opacity="0.914"/>
      <stop offset="0.555" stop-color="#311573" stop-opacity="0"/>
    </linearGradient>
    <linearGradient id="linear-gradient-2" x1="0.136" y1="1.084" x2="0.58" y2="0.086" gradientUnits="objectBoundingBox">
      <stop offset="0" stop-color="#201b59" stop-opacity="0.914"/>
      <stop offset="0.555" stop-color="#fc0" stop-opacity="0"/>
    </linearGradient>
    <linearGradient id="linear-gradient-3" x1="0.122" y1="0.339" x2="0.816" y2="0.77" xlink:href="#linear-gradient-2"/>
    <linearGradient id="linear-gradient-4" x1="-0.556" y1="-1.922" x2="-1.63" y2="-0.878" gradientUnits="objectBoundingBox">
      <stop offset="0.265" stop-color="#201b59" stop-opacity="0.914"/>
      <stop offset="0.555" stop-color="#ff735f" stop-opacity="0"/>
    </linearGradient>
    <linearGradient id="linear-gradient-5" x1="0.822" y1="1.348" x2="0.247" y2="0.055" xlink:href="#linear-gradient-4"/>
    <linearGradient id="linear-gradient-6" x1="0.811" y1="0.646" x2="-0.035" y2="-0.005" gradientUnits="objectBoundingBox">
      <stop offset="0.004" stop-color="#fff"/>
      <stop offset="0.551" stop-color="#fff" stop-opacity="0.302"/>
    </linearGradient>
    <clipPath id="clip-path">
      <path id="Path_294" data-name="Path 294" d="M424.187,367.03c.459-3.256,1.577-6.172,4.138-7.669,3.653-2.139,8.527-.353,12.777-1.148,11.942-2.233,11.851-18.9,11.607-28.083q-.233-8.761-.785-17.511a9.71,9.71,0,0,0-1.025-4.48c-1.448-2.385-4.754-3.082-7.436-2.316-5.226,1.494-8.16,7.139-9.087,12.5s-.473,10.924-1.877,16.174a9.545,9.545,0,0,1-1.161,2.816,6.465,6.465,0,0,1-2.613,2.232,5.107,5.107,0,0,1-4.855-.069c-1.649-1.057-1.374-2.39-1.366-4a49.265,49.265,0,0,0-.493-5.854c-.506-4.389-.945-8.787-1.359-13.186-.81-8.648-1.516-17.307-2.417-25.946-.414-3.964-.861-8.037-2.839-11.585-8.555-15.357-21.586-1.865-22.784,9.332-2.725,25.477,10.546,49.5,9.433,74.788a7.607,7.607,0,0,1-.587,3.13c-2,3.981-8.38,3.285-11.331.989-4.625-3.6-2.969-11.4-2.974-16.088-.005-3.829-1.231-8.155-4.933-9.948-4.2-2.034-9.681.405-12.073,4.158-3.089,4.843-2.745,13.139-2.282,18.529a22.736,22.736,0,0,0,3.547,11.143,14.029,14.029,0,0,0,10.373,6.141c2.47.149,5.287-.375,7.159,1.1,2.282,1.8,1.464,5.1,1.555,7.851.179,5.469,4.838,10.142,10.274,12.441s11.572,2.684,17.55,3.037c5.069-8.133,5.409-17.511,5.672-26.6C424.081,375.879,423.6,371.178,424.187,367.03Z" transform="translate(-367.563 -272)" fill="none"/>
    </clipPath>
  </defs>
  <g id="Illu404" transform="translate(-50.034 -54.579)">
    <path id="Rectangle_4" data-name="Rectangle 4" d="M23.023,0H181.345a23.023,23.023,0,0,1,23.023,23.023V90.977a0,0,0,0,1,0,0H23.023A23.023,23.023,0,0,1,0,67.954V23.023A23.023,23.023,0,0,1,23.023,0Z" transform="translate(123.015 324.414)" fill="none" stroke="#fff" stroke-miterlimit="10" stroke-width="2"/>
    <path id="Path_244" data-name="Path 244" d="M495.564,652.063c46.529-16.41,91.546-44.47,121.009-85.363,36.043-50.025,32.957-106.731,40.332-165.175,3-23.752,18.9-37.407,28.364-58.471,19.964-44.431,12.911-111.3-29.071-141.485-25.858-18.589-50.839-20.615-64.759-52.942-7.7-17.874-12.2-37.55-24.154-52.909C549.977,73.481,520.6,64.74,492.762,60.352c-32.373-5.1-63.991-3.97-96.459-4.933-34.611-1.026-69.712-.091-103.311,9.1-45.6,12.47-95.711,45.116-103.67,94.824-3.412,21.312,1.057,44.05-7.038,64.059-12.18,30.106-44.627,40.317-68.79,58.1-25.943,19.1-42.817,48.9-50.221,79.888-12.619,52.8-3.317,111.368,21.24,159.305C110.8,572.013,153.5,615.671,205.284,641.347c40.565,20.112,96.607,26.039,142.355,28.86C397.63,673.288,448.523,668.652,495.564,652.063Z" transform="translate(4.555 0)" fill="#addfff"/>
    <path id="Path_245" data-name="Path 245" d="M579.545,385.082c-.29-75.423-21.155-147.877-82.525-196.476-75.725-59.967-181.583-59.187-258.99-3.238-50.618,36.586-86.114,91.637-106.02,150.838s-25.04,122.526-22.919,184.948l460.849,1.44q2.889-31.776,5.777-63.551C577.926,434.728,579.639,409.882,579.545,385.082Z" transform="translate(39.643 60.846)" fill="#69a4c9"/>
    <path id="Rectangle_5" data-name="Rectangle 5" d="M23.023,0H181.345a23.023,23.023,0,0,1,23.023,23.023V90.977a0,0,0,0,1,0,0H23.023A23.023,23.023,0,0,1,0,67.954V23.023A23.023,23.023,0,0,1,23.023,0Z" transform="translate(148.337 315.973)" fill="none" stroke="#fff" stroke-miterlimit="10" stroke-width="1" opacity="0.75"/>
    <path id="Rectangle_6" data-name="Rectangle 6" d="M30.451,0H249.078a30.451,30.451,0,0,1,30.451,30.451v89.877a0,0,0,0,1,0,0H30.451A30.451,30.451,0,0,1,0,89.877V30.451A30.451,30.451,0,0,1,30.451,0Z" transform="translate(240.113 136.604)" fill="none" stroke="#fff" stroke-miterlimit="10" stroke-width="1" opacity="0.75"/>
    <g id="Group_46" data-name="Group 46" transform="translate(96.22 402.689)">
      <path id="Path_246" data-name="Path 246" d="M208.762,428.235a19.164,19.164,0,0,0-1.953-1.462c-2.389-1.894-2.875-5.27-3.125-8.309-3.052-37.152,2.512-74.53.755-111.766-.42-8.886-7.632-4.519-13.522-3.383-.873.169-12.409,2.321-12.281,1.013-1.036,10.578-2.387,21.908-9.391,29.9-4.852,5.537-11.785,8.7-17.874,12.833-22.882,15.546-36.249,45.468-39.578,72.452-.052-.6-.116-1.193-.165-1.789q-.674-8.07-1.075-16.16-.841-16.986-.474-34c.181-8.439,1.2-17.669-3.879-24.992-4.316-6.221-9.114-6.678-15.277-7.217-1.651-3.364-1.372-10-1.352-12.985.032-4.815.841-10.313,4.352-13.988,5.778-6.047,14.757-2.353,22.057-4.181,16.587-4.156,10.676-25.295,9.57-37.495-.68-7.512-12.5-7.583-11.817,0,.554,6.114,1.759,12.484,1.686,18.616-.047,3.937.057,6.482-4.134,7.7-1.681.49-3.987.008-5.7-.007-8.614-.079-15.976,1.852-21.523,8.854-5.993,7.561-6.9,17.327-5.908,26.616.753,7.038,1.047,16.9,9.637,18.389,7.973,1.379,10.475,2.983,10.679,11.542.137,5.733-.285,11.508-.311,17.246q-.089,19.434,1.4,38.835c.567,7.382-.689,20.836,5.581,26.329a8.717,8.717,0,0,0,9.945,1.4c9.826.538,33.062-.852,35.552-.852h29.977c5.029,0,13.881,1.713,18.679-.755,2.611-1.344,7.257-3.8,9.138-6C209.941,432.839,210.391,429.912,208.762,428.235Z" transform="translate(-77.802 -260.969)" fill="#3b1c99"/>
      <path id="Path_247" data-name="Path 247" d="M164.678,300.5q.066-4.553-.245-9.1a16.962,16.962,0,0,0-.186-1.754,6.236,6.236,0,0,0-.567-1.811c-2.179-4.247-9.936-.572-12.992.925a59.593,59.593,0,0,0-9.465,6.064c-1.73,1.3-3.687,2.866-4.622,4.88-.994,2.142-.419,5.581-.209,7.877a9.319,9.319,0,0,0,1.513,4.931c1.062,1.376,3.12,2.122,4.62,1.2a15.894,15.894,0,0,0,1.578,5.339,5.588,5.588,0,0,0,3.317,2.595c.952.275.9.1,1.237,1.1.01.029.022.056.03.084a8.69,8.69,0,0,0,.9,2.191c.024.047.042.1.066.143a4.456,4.456,0,0,0,.955,1.332,2.774,2.774,0,0,0,.782.473l.029.017.015.008a4.114,4.114,0,0,0,1.862.631,4.558,4.558,0,0,0,4.448-1.872c1.023-1.649.8-3.547.7-5.387a3.451,3.451,0,0,0,3.091-2.124c.63-1.425.486-3.226.51-4.728.029-1.816-.056-3.628-.194-5.436C165.411,308.458,164.641,302.938,164.678,300.5Z" transform="translate(-37.73 -243.898)" fill="#8054f6"/>
      <path id="Path_248" data-name="Path 248" d="M137.3,330.347a19.233,19.233,0,0,1,9.173,17.816c-.743,7.306-6.521,13.139-11.867,17.617-5.6,4.686-11.81,9.018-15.4,15.374,3.667-.464,7.358-.748,11.054-.847,3.164-.086,6.822.2,8.67,2.77,1.933,2.689.863,6.418,1.372,9.691a.863.863,0,0,0,1.116-.226c.243.849.17.9,1.05.836,2.954-.221,5.463-2.446,6.827-5.076a24.784,24.784,0,0,0,2.132-8.574,173.126,173.126,0,0,0,1.251-31.755c-.218-3.348-.613-6.81-2.333-9.69C147.477,333.473,142.909,329.9,137.3,330.347Z" transform="translate(-49.306 -213.308)" fill="url(#linear-gradient)"/>
      <path id="Path_249" data-name="Path 249" d="M121.355,279.962c-.145-.528-.294-1.057-.449-1.583.074.252,1.43.756,1.691.9q.909.491,1.81.989,1.8,1,3.58,2.048t3.528,2.137c.525.327.8.621,1.4.528a13.1,13.1,0,0,0,2.53-.976c1.018-.4,2.033-.81,3.049-1.214q3.054-1.208,6.109-2.409c4.023-1.589,8.04-3.2,12.011-4.916,1.538-.665,5.012-1.553,5.608-3.236a6.617,6.617,0,0,0,.253-1.889c.171-3.229.792-9.339.792-9.339s2.414,2.06,2.794,2.51q1.319,1.565,2.525,3.223a63.7,63.7,0,0,1,4.406,6.849,105.071,105.071,0,0,1,7.085,15.716c1.548,4.362,2.328,8.722-.587,12.661-2.708,3.658-7.007,5.962-10.968,8.005-8.051,4.154-16.687,8.809-25.83,9.678a12.221,12.221,0,0,1-6.747-.886,11.826,11.826,0,0,1-4.7-5.172C125.612,303.063,124.453,291.269,121.355,279.962Z" transform="translate(-48.141 -261)" fill="#3b1c99"/>
      <path id="Path_250" data-name="Path 250" d="M153.7,288.5c-2.662-.883-5.471-1.065-8.152-1.832.182-.28.339-.582.483-.836q.605-1.064,1.17-2.149a.858.858,0,0,0-.5-1.239c-.883-.331-2.358.478-3.191.771a20.172,20.172,0,0,0-3.724,1.707.855.855,0,0,0,.2,1.543l3.39,1.07a80,80,0,0,0-2.966,8.744.845.845,0,0,0,1.627.449,80.263,80.263,0,0,1,2.868-8.488c2.738.819,5.621.982,8.349,1.886C154.283,290.468,154.727,288.837,153.7,288.5Z" transform="translate(-35.432 -246.299)" fill="#19034d"/>
      <path id="Path_251" data-name="Path 251" d="M135.046,281.84a1.532,1.532,0,0,0-1.087,0,.663.663,0,0,0-.6.282,2.1,2.1,0,0,0-.349.7,2.252,2.252,0,0,0-.135.4.793.793,0,0,0,.16.707,1.586,1.586,0,0,0,.434.631,1.634,1.634,0,0,0,2.421-.432A1.557,1.557,0,0,0,135.046,281.84Z" transform="translate(-39.925 -246.729)" fill="#19034d"/>
      <path id="Path_252" data-name="Path 252" d="M150.046,275.84a1.532,1.532,0,0,0-1.087,0,.663.663,0,0,0-.6.282,2.1,2.1,0,0,0-.349.7,2.248,2.248,0,0,0-.135.4.793.793,0,0,0,.16.707,1.587,1.587,0,0,0,.434.631,1.634,1.634,0,0,0,2.421-.432A1.557,1.557,0,0,0,150.046,275.84Z" transform="translate(-29.604 -250.857)" fill="#19034d"/>
    </g>
    <path id="Rectangle_7" data-name="Rectangle 7" d="M24.4,0H136.76a24.4,24.4,0,0,1,24.4,24.4V57.984a24.4,24.4,0,0,1-24.4,24.4H0a0,0,0,0,1,0,0V24.4A24.4,24.4,0,0,1,24.4,0Z" transform="translate(475.075 268.006)" fill="none" stroke="#fff" stroke-miterlimit="10" stroke-width="1" opacity="0.75"/>
    <g id="Group_48" data-name="Group 48" transform="translate(256.939 308.102)">
      <path id="Path_253" data-name="Path 253" d="M176.433,382.8c-3.209,11.015-5.974,23.78.527,33.234,7.829,11.385,25.8,11.255,37.086,3.282s17.4-21.241,22.627-34.032c8.805-21.552,16.562-43.749,19.624-66.827,1.789-13.5.233-30.248-12.021-36.18-18.843-9.123-34.913,5.419-41.014,21.361C193.3,329.682,184.232,356.028,176.433,382.8Z" transform="translate(-173.008 -153.713)" fill="#ff735f"/>
      <path id="Path_254" data-name="Path 254" d="M224.177,270.029a115.743,115.743,0,0,0-13,16.734c-5.309,8.27-8.881,17.117-13.046,25.94-1.46,3.093-13.718,29.977-10.981,31.936,15.407,11.013,30.546,23.044,48.2,29.812.594.228-2.775,13.164-3.086,14.4q-1.8,7.176-3.263,14.43c-1.935,9.6-3.447,19.351-5.137,29.022q-1.41,8.075-2.753,16.164c-.4,2.416,76.309,7.526,83.254,7.629,20.293.3,52.185,5.994,64.5-14.722,2.92-4.911,4.381-10.534,5.679-16.1a397.514,397.514,0,0,0,10.078-99.6c-.184-7.851-.6-15.757-2.507-23.374-2.779-11.094-8.6-21.046-14.687-30.612-5.55-8.724-14.295-13.545-23.571-17.983-27.93-13.365-61.545-17.666-89.88-5.181A92.162,92.162,0,0,0,224.177,270.029Z" transform="translate(-163.551 -180.108)" fill="#f5ba00"/>
      <path id="Path_255" data-name="Path 255" d="M291.222,322.312q-1.15,2.654-2.3,5.309c-2.944,6.8-10.35,18.591-10.35,26.049-3.459,10.817-5.11,22.413-3.094,33.588a91,91,0,0,0,3.653,13.122c1.848,5.424,3.888,10.885,7.328,15.466,3.094,4.124,10.483,10.633,16.2,8.41,5.966-2.321,10.421-13.15,12.7-18.5,13.534-31.794,18.895-66.721,22.193-100.92a23.472,23.472,0,0,0-.062-7.18c-.753-3.5-3.015-6.465-5.257-9.261-2.964-3.7-6.4-7.568-11.062-8.4-4.47-.8-9.038,1.529-12.109,4.874s-4.929,7.6-6.732,11.763Q296.777,309.475,291.222,322.312Z" transform="translate(-103.098 -153.446)" fill="#ff735f"/>
      <path id="Path_256" data-name="Path 256" d="M314.908,342.566c-2.608-.734-39-9.57-39.076-5.088q.405-29.639,3.275-59.177c.609-6.266,1.325-12.622,3.707-18.453s6.675-11.158,12.561-13.4c4.345-1.651,9.2-1.5,13.738-.51A40.31,40.31,0,0,1,339,274.98c1.511,6.089,1.545,12.436,1.487,18.709-.172,18.644-1.551,37.218-2.652,55.772C330.017,349.29,322.376,344.667,314.908,342.566Z" transform="translate(-102.254 -177.282)" fill="#f5ba00"/>
      <path id="Path_257" data-name="Path 257" d="M326.626,251.446a24.735,24.735,0,0,1,.93,5.167c.761,11.856-7.021,21.763-14.845,29.771-3.064,3.136-7.385,5.3-10.159,8.567-3.163,3.722-3.02,9.869-8.52,11.526a6.7,6.7,0,0,1-6.757-2.039c-2-2.267-1.945-4.718-.947-7.411,1.183-3.194,2.238-7.176,4.138-10.017,1.521-2.276,4.583-3.79,6.86-5.14a19.362,19.362,0,0,0,8.984-13.25c1.43-9.977-.019-21.226,3.456-30.759a10.679,10.679,0,0,1,2.725-4.445,5.084,5.084,0,0,1,4.875-1.212c2.439.846,3.4,3.7,4.247,6.133C323.148,242.744,325.365,246.995,326.626,251.446Z" transform="translate(-95.497 -186.376)" fill="#db6352"/>
      <path id="Path_258" data-name="Path 258" d="M324.184,358.9c1.136,21.319.873,43.04-4.926,63.743-1.729,6.175-4.587,15.029-10.571,18.478-6.751,3.893-17.344.753-23.61-2.836-4.139-2.372-8.1-5.287-10.721-9.276-4.133-6.3-4.359-14.339-3.876-21.858,1.295-20.2,6.307-39.053,10.215-58.746q6.394-32.2,14.96-63.922c2.438-9.028,5.579-15.747,13.125-21.432,5.382-4.055,14.41-9.418,14.908,1.122C325.178,295.672,322.5,327.27,324.184,358.9Z" transform="translate(-106.062 -168.46)" fill="#db6352"/>
      <path id="Path_259" data-name="Path 259" d="M252.452,281.826a12.592,12.592,0,0,0-1.508,3.57,14.779,14.779,0,0,0,.017,4.966c1.545,12.328,4.114,24.528,17.335,28.382,8.77,2.556,19.594,1.658,27.617-2.833a29.158,29.158,0,0,0,7.141-5.167,12.249,12.249,0,0,0,3.592-7.872c8.879,1.948,18.059-7.09,22.681-13.582,10.595-14.877,14.106-33.538,12.5-51.514-.4-4.416-1.077-9.036-3.739-12.581-1.86-2.476-4.524-4.2-7.132-5.87-12.149-7.774-25.09-8.2-38.364-2.063-12.06,5.574-20.428,17.5-26.088,29.076-2.367,4.842-2.784,11.226-4.681,16.412a99.44,99.44,0,0,1-8.407,17.479C253.092,280.757,252.762,281.287,252.452,281.826Z" transform="translate(-119.522 -199.417)" fill="#ff735f"/>
      <path id="Path_260" data-name="Path 260" d="M266.183,224.894c2.757-6.1,6.72-11.753,11.734-15.232,9.124-6.332,22.327-5.15,32.6-2.85,5.913,1.325,11.832,3.9,17.982,3.834,5.542-.066,11.282-5.594,16.653-3.732a7.562,7.562,0,0,1,4.811,5.4c.9,4.041-1.612,7.943-3.555,11.6-1.538,2.89-2.8,5.962-4.791,8.559-2.615,3.4-6.71,6.206-11.049,6.705a20.085,20.085,0,0,1-4.386-.138c-8.721-.913-16.044-3.342-22.72,3.557-4.543,4.69-6.806,11.113-10.147,16.614a9.907,9.907,0,0,1-3.076,3.5c-1.773,1.077-3.97,1.063-5.991,1.531-8.658,2.009-14.352,16.522-23.5,13.4-7.843-2.676-6.057-9.8-2.959-15.441,3.856-7.019,3.121-15.537,4.284-23.46A53.136,53.136,0,0,1,266.183,224.894Z" transform="translate(-116.486 -204.969)" fill="#19034d"/>
      <path id="Path_261" data-name="Path 261" d="M264.7,238.342a21.526,21.526,0,0,0-3.739,9.18,17.432,17.432,0,0,0,.03,8.517c.856,2.738,3.059,5.208,5.891,5.664a7.8,7.8,0,0,0,6.2-2.043c4.038-3.526,8.778-14.366,7.625-19.893C279.065,231.849,268.684,233.232,264.7,238.342Z" transform="translate(-112.84 -184.876)" fill="#ff735f"/>
      <path id="Path_262" data-name="Path 262" d="M270.487,238.362a9.033,9.033,0,0,0-4.982,4.862,26.777,26.777,0,0,0-1.854,6.882" transform="translate(-110.636 -181.991)" fill="none" stroke="#19034d" stroke-miterlimit="10" stroke-width="1"/>
      <path id="Path_263" data-name="Path 263" d="M303.237,239.96a1.976,1.976,0,1,1-2.368-1.482A1.975,1.975,0,0,1,303.237,239.96Z" transform="translate(-86.081 -181.946)" fill="#19034d"/>
      <path id="Path_264" data-name="Path 264" d="M290.121,241.024a1.976,1.976,0,1,1-2.274-1.626A1.976,1.976,0,0,1,290.121,241.024Z" transform="translate(-95.123 -181.297)" fill="#19034d"/>
      <path id="Path_265" data-name="Path 265" d="M272.376,336.535c-.864,5.5-1.54,11.03-1.9,16.591-.483,7.519-.257,15.558,3.876,21.858,2.617,3.989,6.582,6.9,10.721,9.276,6.266,3.589,16.859,6.729,23.61,2.836,5.984-3.449,8.842-12.3,10.571-18.478a151.454,151.454,0,0,0,5.086-32.082Z" transform="translate(-106.062 -114.437)" fill="url(#linear-gradient-2)"/>
      <path id="Path_266" data-name="Path 266" d="M252.154,327.851l-9.227-26.3c.228.648-1.649,3.58-1.967,4.278q-1.038,2.274-2.068,4.555c-1.418,3.125-2.836,6.251-4.289,9.361a173.7,173.7,0,0,1-8.851,17.487,24.408,24.408,0,0,1-7.418-3.994c-.917,5.336-2.584,10.333-3.653,15.64-.552,2.747-1.055,5.5-1.563,8.26-.258,1.4-.517,2.8-.783,4.2-.108.567-.316,3.562-.76,3.822A178.15,178.15,0,0,0,250.648,334.2a6.451,6.451,0,0,0,2.051-3.356A6.529,6.529,0,0,0,252.154,327.851Z" transform="translate(-146.47 -138.513)" fill="url(#linear-gradient-3)"/>
      <path id="Path_267" data-name="Path 267" d="M306.125,233a11.186,11.186,0,0,0-7.737,1.793,2.446,2.446,0,0,0-.962,3.221,2.394,2.394,0,0,0,3.223.962,7.151,7.151,0,0,1,5.274-1.224,2.4,2.4,0,0,0,2.477-2.276A2.429,2.429,0,0,0,306.125,233Z" transform="translate(-87.588 -185.753)" fill="#19034d"/>
      <path id="Path_268" data-name="Path 268" d="M295.943,235.536c-3.3-1.523-6.844-.851-10.215.069-2.591.707-1.965,4.892.662,4.175s5.39-1.514,7.983-.319C296.848,240.6,298.406,236.67,295.943,235.536Z" transform="translate(-96.583 -184.556)" fill="#19034d"/>
      <path id="Path_269" data-name="Path 269" d="M273.8,261.881q-.294,6.617-.49,13.238-.1,3.449-.157,6.9c-.007.419-.113,1.2-.145,2.011a44.423,44.423,0,0,0,7.978-2.277c3.6-1.641,7.068-3.873,8.881-7.546a24.25,24.25,0,0,0,1.533-4.453C285.334,268.515,278.359,266.2,273.8,261.881Z" transform="translate(-104.2 -165.807)" fill="url(#linear-gradient-4)"/>
      <path id="Path_270" data-name="Path 270" d="M296.012,387.67c22.86,2.726,48.062,5.691,70.05-.8-3.569-5.085-7.173-10.211-11.717-14.449s-10.159-7.571-16.324-8.346a40,40,0,0,0-9.794.3c-5.691.694-13.074,3.653-18.679,3.192-4.767-.392-10.986-4.477-15.5-6.261-30.607-12.112-66.912-28.6-100.368-19.8-16.922,4.45-27.1,18.578-15.434,34.491,6.514,8.888,17.053,7.229,27.322,7.4,27.72.464,55.532.24,83.116,3.408Q292.3,387.223,296.012,387.67Z" transform="translate(-172.848 -112.725)" fill="#ff735f"/>
      <g id="Group_47" data-name="Group 47" transform="translate(190.57 72.027)">
        <path id="Path_271" data-name="Path 271" d="M287.534,261.381l-1.636-.422a22.673,22.673,0,0,1,3.81-8.429,12.148,12.148,0,0,1,8.051-4.841,7.12,7.12,0,0,1,2.9.23,7.362,7.362,0,0,1,4.256,4.026l-1.526.719a5.691,5.691,0,0,0-3.233-3.135,5.456,5.456,0,0,0-2.217-.16,10.454,10.454,0,0,0-6.9,4.195A21.026,21.026,0,0,0,287.534,261.381Z" transform="translate(-285.898 -247.636)" fill="#19034d"/>
      </g>
      <path id="Path_272" data-name="Path 272" d="M222.374,338.266c-.23-.385-.454-.771-.677-1.161-1.592-2.61-3.089-5.277-4.519-7.986a48.986,48.986,0,0,1-6.668,5.839,57.49,57.49,0,0,0-8.749,7.61c-1.646,1.707-3.226,3.474-4.791,5.255q.623,1.441,1.217,2.915c.2.486.414.962.623,1.442q1.59-.537,3.207-1.008c5.439-1.577,12.6-3.729,18.632-2.866.317-3.3,1.6-6.437,1.869-9.734C222.469,338.47,222.422,338.367,222.374,338.266Z" transform="translate(-156.52 -119.541)" fill="url(#linear-gradient-5)"/>
      <path id="Path_273" data-name="Path 273" d="M292.075,259.771a3.527,3.527,0,0,0-2.85,1.529,1.143,1.143,0,0,0,.149,1.322.876.876,0,0,0,.672.7,2.9,2.9,0,0,0,3-1.247A1.342,1.342,0,0,0,292.075,259.771Z" transform="translate(-93.137 -167.259)" fill="#db6352"/>
      <path id="Path_274" data-name="Path 274" d="M293.741,232.61a14.032,14.032,0,0,0-3.786-.954c-1.077-.123-1.069,1.565,0,1.688a12.5,12.5,0,0,1,3.337.895C294.3,234.653,294.732,233.021,293.741,232.61Z" transform="translate(-93.09 -186.609)" fill="#db6352"/>
      <path id="Path_275" data-name="Path 275" d="M299.407,230.787q-1.327.41-2.655.822c-1.035.319-.594,1.95.447,1.627l2.657-.822C300.891,232.094,300.45,230.465,299.407,230.787Z" transform="translate(-88.265 -187.232)" fill="#db6352"/>
    </g>
    <g id="Group_50" data-name="Group 50" transform="translate(223.232 116.346)">
      <path id="Rectangle_8" data-name="Rectangle 8" d="M30.451,0H249.078a30.451,30.451,0,0,1,30.451,30.451v89.877a0,0,0,0,1,0,0H30.451A30.451,30.451,0,0,1,0,89.877V30.451A30.451,30.451,0,0,1,30.451,0Z" transform="translate(0 0)" fill="#8054f6"/>
      <g id="Group_49" data-name="Group 49" transform="translate(65.549 33.123)">
        <path id="Path_276" data-name="Path 276" d="M228.167,149.134h-5.154v9.057H210.53v-9.057H191.871v-9.283L211.33,111.4h11.683V139.69h5.154ZM210.53,139.69V134.25q0-1.537.113-4.144a26.5,26.5,0,0,1,.176-2.738h-.351a34.056,34.056,0,0,1-2.465,4.61l-5.186,7.713Z" transform="translate(-191.871 -110.724)" fill="#fff"/>
        <path id="Path_277" data-name="Path 277" d="M256.889,135.131q0,12.42-4.161,18.2t-12.739,5.778q-8.384,0-12.642-6.035t-4.257-17.94q0-12.481,4.161-18.308T239.99,111q8.354,0,12.627,6.065T256.889,135.131Zm-21.221,0q0,7.938.993,10.915t3.329,2.976q2.37,0,3.344-3.072t.977-10.819q0-7.776-.993-10.9t-3.329-3.12q-2.337,0-3.329,3.008T235.668,135.131Z" transform="translate(-170.389 -110.998)" fill="#fff"/>
        <path id="Path_278" data-name="Path 278" d="M289.2,149.134h-5.152v9.057H271.567v-9.057h-18.66v-9.283L272.368,111.4h11.682V139.69H289.2Zm-17.634-9.443V134.25q0-1.537.111-4.144a26.532,26.532,0,0,1,.176-2.738H271.5a33.864,33.864,0,0,1-2.465,4.61l-5.184,7.713Z" transform="translate(-149.872 -110.724)" fill="#fff"/>
      </g>
    </g>
    <g id="Group_52" data-name="Group 52" transform="translate(168.594 265.33)">
      <path id="Rectangle_9" data-name="Rectangle 9" d="M23.023,0H181.345a23.023,23.023,0,0,1,23.023,23.023V90.977a0,0,0,0,1,0,0H23.023A23.023,23.023,0,0,1,0,67.954V23.023A23.023,23.023,0,0,1,23.023,0Z" fill="#fff"/>
      <g id="Group_51" data-name="Group 51" transform="translate(55.404 37.364)">
        <path id="Path_279" data-name="Path 279" d="M162.44,219.826a8.992,8.992,0,0,1-6.577-2.323,8.792,8.792,0,0,1-2.368-6.575,9.677,9.677,0,0,1,2.19-6.771,7.8,7.8,0,0,1,6.054-2.392,7.676,7.676,0,0,1,5.751,2.105,7.957,7.957,0,0,1,2.056,5.812v2.306H158.311a4.562,4.562,0,0,0,1.2,3.163,4.218,4.218,0,0,0,3.147,1.138,13.094,13.094,0,0,0,2.976-.328,14.977,14.977,0,0,0,2.929-1.045V218.6a11.157,11.157,0,0,1-2.664.927A16.8,16.8,0,0,1,162.44,219.826Zm-.67-14.678a3.015,3.015,0,0,0-2.368.957,4.433,4.433,0,0,0-.982,2.72h6.67a3.962,3.962,0,0,0-.92-2.72A3.111,3.111,0,0,0,161.77,205.148Z" transform="translate(-153.495 -201.765)" fill="#ff735f"/>
        <path id="Path_280" data-name="Path 280" d="M176.906,201.765a7.58,7.58,0,0,1,1.605.142l-.358,4.455a5.494,5.494,0,0,0-1.4-.155,5.048,5.048,0,0,0-3.547,1.168,4.23,4.23,0,0,0-1.269,3.273v8.866h-4.752V202.092h3.6l.7,2.931h.233a6.555,6.555,0,0,1,2.189-2.362A5.4,5.4,0,0,1,176.906,201.765Z" transform="translate(-144.076 -201.765)" fill="#ff735f"/>
        <path id="Path_281" data-name="Path 281" d="M187.382,201.765a7.579,7.579,0,0,1,1.605.142l-.358,4.455a5.493,5.493,0,0,0-1.4-.155,5.041,5.041,0,0,0-3.545,1.168,4.224,4.224,0,0,0-1.269,3.273v8.866h-4.754V202.092h3.6l.7,2.931h.233a6.556,6.556,0,0,1,2.189-2.362A5.4,5.4,0,0,1,187.382,201.765Z" transform="translate(-136.868 -201.765)" fill="#ff735f"/>
        <path id="Path_282" data-name="Path 282" d="M204.4,210.773a9.358,9.358,0,0,1-2.243,6.653,8.14,8.14,0,0,1-6.249,2.4,8.741,8.741,0,0,1-4.426-1.1,7.309,7.309,0,0,1-2.944-3.155,10.588,10.588,0,0,1-1.03-4.8,9.309,9.309,0,0,1,2.23-6.639A8.182,8.182,0,0,1,196,201.765a8.789,8.789,0,0,1,4.426,1.092,7.259,7.259,0,0,1,2.944,3.131A10.487,10.487,0,0,1,204.4,210.773Zm-12.046,0a7.317,7.317,0,0,0,.849,3.911,3.039,3.039,0,0,0,2.767,1.323,2.988,2.988,0,0,0,2.735-1.317,7.42,7.42,0,0,0,.834-3.918,7.2,7.2,0,0,0-.842-3.881,3.576,3.576,0,0,0-5.5-.007A7.174,7.174,0,0,0,192.352,210.773Z" transform="translate(-130.092 -201.765)" fill="#ff735f"/>
        <path id="Path_283" data-name="Path 283" d="M211.451,201.765a7.579,7.579,0,0,1,1.605.142l-.358,4.455a5.494,5.494,0,0,0-1.4-.155,5.047,5.047,0,0,0-3.545,1.168,4.224,4.224,0,0,0-1.269,3.273v8.866h-4.754V202.092h3.6l.7,2.931h.235a6.536,6.536,0,0,1,2.188-2.362A5.4,5.4,0,0,1,211.451,201.765Z" transform="translate(-120.305 -201.765)" fill="#ff735f"/>
      </g>
    </g>
    <path id="Path_284" data-name="Path 284" d="M414.724,426.21,371,263.074a53.429,53.429,0,0,0-50.446-39.584h0c-45.089-.981-71.031,50.89-43.205,86.382,45.711,58.309,96.254,123.814,96.254,123.814Z" transform="translate(147.825 115.868)" opacity="0.49" fill="url(#linear-gradient-6)"/>
    <g id="Group_55" data-name="Group 55" transform="translate(505.461 247.731)">
      <path id="Rectangle_10" data-name="Rectangle 10" d="M18.883,0H133.351a18.883,18.883,0,0,1,18.883,18.883V55.734a18.883,18.883,0,0,1-18.883,18.883H0a0,0,0,0,1,0,0V18.883A18.883,18.883,0,0,1,18.883,0Z" fill="#3b1c99"/>
      <g id="Group_54" data-name="Group 54" transform="translate(49.644 33.387)">
        <g id="Group_53" data-name="Group 53">
          <circle id="Ellipse_2" data-name="Ellipse 2" cx="3.922" cy="3.922" r="3.922" fill="#fff"/>
          <path id="Path_285" data-name="Path 285" d="M370.838,192.906a3.921,3.921,0,1,1-3.921-3.922A3.921,3.921,0,0,1,370.838,192.906Z" transform="translate(-340.443 -188.984)" fill="#fff"/>
          <circle id="Ellipse_3" data-name="Ellipse 3" cx="3.922" cy="3.922" r="3.922" transform="translate(45.102)" fill="#fff"/>
        </g>
      </g>
    </g>
    <g id="Group_57" data-name="Group 57" transform="translate(207.678 526.331)">
      <g id="Group_56" data-name="Group 56" transform="translate(64.369 8.086)">
        <path id="Path_286" data-name="Path 286" d="M188.44,365.8a32.055,32.055,0,0,1-6.482-.633l.743-3.538c7.384,1.545,19.434-.051,22.85-7.083a8.01,8.01,0,0,0-.051-6.977,8.416,8.416,0,0,0-5.265-4.389c-4.582-1.4-10.537.184-14.4,2.365l-1.776-3.15c4.205-2.373,11.241-4.492,17.232-2.674a12.055,12.055,0,0,1,7.441,6.221,11.691,11.691,0,0,1,.074,10.184C205.362,363.205,196.292,365.8,188.44,365.8Z" transform="translate(-181.958 -339.032)" fill="#bf0a40"/>
      </g>
      <path id="Rectangle_11" data-name="Rectangle 11" d="M0,0H58.754a0,0,0,0,1,0,0V33.312A13.691,13.691,0,0,1,45.063,47H13.691A13.691,13.691,0,0,1,0,33.312V0A0,0,0,0,1,0,0Z" transform="translate(18.078)" fill="#bf0a40"/>
      <path id="Path_287" data-name="Path 287" d="M236.93,366.439H146.538a2.711,2.711,0,0,1-2.711-2.711h0a2.712,2.712,0,0,1,2.711-2.713H236.93a2.712,2.712,0,0,1,2.711,2.713h0A2.711,2.711,0,0,1,236.93,366.439Z" transform="translate(-143.827 -315.82)" fill="#fff"/>
    </g>
    <g id="Group_62" data-name="Group 62" transform="translate(585.369 421.258)">
      <g id="Group_61" data-name="Group 61">
        <g id="Group_60" data-name="Group 60" clip-path="url(#clip-path)">
          <g id="Group_59" data-name="Group 59">
            <g id="Group_58" data-name="Group 58">
              <path id="Path_288" data-name="Path 288" d="M424.187,367.03c.459-3.256,1.577-6.172,4.138-7.669,3.653-2.139,8.527-.353,12.777-1.148,11.942-2.233,11.851-18.9,11.607-28.083q-.233-8.761-.785-17.511a9.71,9.71,0,0,0-1.025-4.48c-1.448-2.385-4.754-3.082-7.436-2.316-5.226,1.494-8.16,7.139-9.087,12.5s-.473,10.924-1.877,16.174a9.545,9.545,0,0,1-1.161,2.816,6.465,6.465,0,0,1-2.613,2.232,5.107,5.107,0,0,1-4.855-.069c-1.649-1.057-1.374-2.39-1.366-4a49.265,49.265,0,0,0-.493-5.854c-.506-4.389-.945-8.787-1.359-13.186-.81-8.648-1.516-17.307-2.417-25.946-.414-3.964-.861-8.037-2.839-11.585-8.555-15.357-21.586-1.865-22.784,9.332-2.725,25.477,10.546,49.5,9.433,74.788a7.607,7.607,0,0,1-.587,3.13c-2,3.981-8.38,3.285-11.331.989-4.625-3.6-2.969-11.4-2.974-16.088-.005-3.829-1.231-8.155-4.933-9.948-4.2-2.034-9.681.405-12.073,4.158-3.089,4.843-2.745,13.139-2.282,18.529a22.736,22.736,0,0,0,3.547,11.143,14.029,14.029,0,0,0,10.373,6.141c2.47.149,5.287-.375,7.159,1.1,2.282,1.8,1.464,5.1,1.555,7.851.179,5.469,4.838,10.142,10.274,12.441s11.572,2.684,17.55,3.037c5.069-8.133,5.409-17.511,5.672-26.6C424.081,375.879,423.6,371.178,424.187,367.03Z" transform="translate(-367.563 -272)" fill="#228f4e"/>
              <path id="Path_289" data-name="Path 289" d="M391.574,272.546c6.087,42.253,11.336,85.261,3.84,127.324" transform="translate(-351.041 -271.624)" fill="none" stroke="#19034d" stroke-miterlimit="10" stroke-width="1"/>
              <path id="Path_290" data-name="Path 290" d="M389.5,272.377c-1.72,7.868-3.445,15.8-3.408,23.826.074,15.3,6.52,29.928,9.052,45.051,2.829,16.893.734,34.113-1.364,51.1" transform="translate(-354.813 -271.741)" fill="none" stroke="#19034d" stroke-miterlimit="10" stroke-width="1"/>
              <path id="Path_291" data-name="Path 291" d="M395.931,332.6c7.355-1.05,16.142-2.112,20.791-8.007a8.648,8.648,0,0,0,1.548-2.752c1.231-4,.615-8.53.6-12.637-.019-3.938.074-10.848.074-15.958" transform="translate(-348.043 -257.38)" fill="none" stroke="#19034d" stroke-miterlimit="10" stroke-width="1"/>
              <path id="Path_292" data-name="Path 292" d="M403.486,346.826c-6.609,1.077-13.922,2.041-19.619-1.2a16.342,16.342,0,0,1-7.1-8.92,32.9,32.9,0,0,1-1.462-11.133,74.73,74.73,0,0,1,1.043-12.219" transform="translate(-362.239 -243.545)" fill="none" stroke="#19034d" stroke-miterlimit="10" stroke-width="1"/>
              <path id="Path_293" data-name="Path 293" d="M395.979,340.917a120.181,120.181,0,0,0,24.515-6.332,12.623,12.623,0,0,0,4.568-2.522,10.8,10.8,0,0,0,2.421-4.728c1.158-3.82,1.644-29.972.368-36.358" transform="translate(-348.01 -258.942)" fill="none" stroke="#19034d" stroke-miterlimit="10" stroke-width="1"/>
            </g>
          </g>
        </g>
      </g>
      <path id="Path_295" data-name="Path 295" d="M377.426,343.219l49.5-1.053-5.042,36.859-37.777-.012Z" transform="translate(-360.776 -223.718)" fill="#f5ba00"/>
    </g>
    <g id="Group_64" data-name="Group 64" transform="translate(376.313 366.698)">
      <rect id="Rectangle_12" data-name="Rectangle 12" width="217.334" height="9.879" rx="2.5" transform="translate(0 202.422)" fill="#fff"/>
      <path id="Path_296" data-name="Path 296" d="M448.572,411.581H262.851l16.16-106.721a7.538,7.538,0,0,1,7.36-6.469h171a7.238,7.238,0,0,1,7.06,8.456Z" transform="translate(-230.56 -199.28)" fill="#fff"/>
      <circle id="Ellipse_4" data-name="Ellipse 4" cx="8.891" cy="8.891" r="8.891" transform="translate(133.201 139.198)" fill="none" stroke="#8054f6" stroke-miterlimit="10" stroke-width="2"/>
      <g id="Group_63" data-name="Group 63" transform="translate(149.65)">
        <path id="Path_297" data-name="Path 297" d="M334.008,318.1a65.243,65.243,0,0,1-1.634-14.9c.029-4.9.753-8.446,3.974-12.139a68.463,68.463,0,0,1,7.931-7.809,22.651,22.651,0,0,0,6.668-25.512" transform="translate(-332.372 -227.251)" fill="none" stroke="#fff" stroke-miterlimit="10" stroke-width="2"/>
        <path id="Path_298" data-name="Path 298" d="M342.661,316.178c-.984-4.192,1.342-8.484,4.273-11.638s6.546-5.677,9.1-9.146c5.469-7.438,5.206-14.432,4.207-28.239-.7-9.708-.518-20.715,6.486-27.476" transform="translate(-325.45 -239.68)" fill="none" stroke="#fff" stroke-miterlimit="10" stroke-width="2"/>
      </g>
    </g>
    <rect id="Rectangle_13" data-name="Rectangle 13" width="549.261" height="11.855" rx="3" transform="translate(111.561 575.336)" fill="#8054f6"/>
    <path id="Path_299" data-name="Path 299" d="M458.277,181.7c4.166,26.459,5.875,54.872-6.246,78.759-6.761,13.323-17.413,24.356-23.455,38.074-6.447,14.636-8.724,29.834-10.324,45.7" transform="translate(252.685 87.12)" fill="none" stroke="#addfff" stroke-miterlimit="10" stroke-width="2"/>
    <path id="Path_300" data-name="Path 300" d="M164.569,155.458C147.7,175.825,122.65,187.372,102.4,204.376c-32.753,27.5-52.163,70.208-51.337,112.965" transform="translate(0 69.064)" fill="none" stroke="#addfff" stroke-miterlimit="10" stroke-width="2"/>
    <path id="Path_301" data-name="Path 301" d="M337.26,55.352a104.582,104.582,0,0,1,62.83,55.689" transform="translate(196.954 0.181)" fill="none" stroke="#addfff" stroke-miterlimit="10" stroke-width="2"/>
    <path id="Path_302" data-name="Path 302" d="M109.686,389.788a227.751,227.751,0,0,0,134.79,55.721" transform="translate(40.358 230.309)" fill="none" stroke="#addfff" stroke-miterlimit="10" stroke-width="2"/>
    <path id="Path_303" data-name="Path 303" d="M329.11,401.1a282.937,282.937,0,0,0,26.473-13.552" transform="translate(191.346 228.768)" fill="none" stroke="#69a4c9" stroke-miterlimit="10" stroke-width="2"/>
    <path id="Path_304" data-name="Path 304" d="M256.13,417.881c35.9-1.58,67.072-3.29,105.782-18.613" transform="translate(141.128 236.832)" fill="none" stroke="#69a4c9" stroke-miterlimit="10" stroke-width="2"/>
  </g>
</svg>
