<svg xmlns="http://www.w3.org/2000/svg" width="443.441" height="123.614" viewBox="0 0 443.441 123.614">
  <g id="Group_16156" data-name="Group 16156" transform="translate(-131.32 -372.566)">
    <path id="Path_22462" data-name="Path 22462" d="M36.828-66.4a31.858,31.858,0,0,1,16.415,4.278A30.445,30.445,0,0,1,64.728-50.174a35.624,35.624,0,0,1,4.185,17.344,35.624,35.624,0,0,1-4.185,17.345A30.445,30.445,0,0,1,53.243-3.534,31.858,31.858,0,0,1,36.828.744,32.359,32.359,0,0,1,20.32-3.534,30.249,30.249,0,0,1,8.742-15.484,35.624,35.624,0,0,1,4.557-32.829,35.624,35.624,0,0,1,8.742-50.174,30.249,30.249,0,0,1,20.32-62.124,32.359,32.359,0,0,1,36.828-66.4Zm0,7.905a23.66,23.66,0,0,0-12.137,3.115,21.587,21.587,0,0,0-8.37,8.928A29.141,29.141,0,0,0,13.3-32.829a29.213,29.213,0,0,0,3.023,13.578,21.524,21.524,0,0,0,8.37,8.975A23.66,23.66,0,0,0,36.828-7.161a23.212,23.212,0,0,0,12.043-3.162,21.9,21.9,0,0,0,8.37-8.974,28.929,28.929,0,0,0,3.022-13.532,29.141,29.141,0,0,0-3.022-13.625,21.587,21.587,0,0,0-8.37-8.928A23.48,23.48,0,0,0,36.828-58.5Zm66.681,6.789a27.087,27.087,0,0,1,13.16,3.162,22.628,22.628,0,0,1,9.114,9.114,28.3,28.3,0,0,1,3.3,13.95,28.037,28.037,0,0,1-3.3,13.9,22.7,22.7,0,0,1-9.114,9.068A27.087,27.087,0,0,1,103.509.651,27.087,27.087,0,0,1,90.35-2.511a23.01,23.01,0,0,1-9.16-9.068,27.724,27.724,0,0,1-3.348-13.9,27.986,27.986,0,0,1,3.348-13.95,22.93,22.93,0,0,1,9.16-9.114A27.087,27.087,0,0,1,103.509-51.708Zm0,7.44a17.691,17.691,0,0,0-8.416,2.046,15.382,15.382,0,0,0-6.231,6.278A21.143,21.143,0,0,0,86.49-25.482a20.936,20.936,0,0,0,2.371,10.37,15.382,15.382,0,0,0,6.231,6.278,17.691,17.691,0,0,0,8.416,2.046,17.691,17.691,0,0,0,8.417-2.046,15.382,15.382,0,0,0,6.231-6.278,20.936,20.936,0,0,0,2.371-10.37,21.144,21.144,0,0,0-2.371-10.463,15.382,15.382,0,0,0-6.231-6.278A17.691,17.691,0,0,0,103.509-44.268Zm59.8-7.44a27.087,27.087,0,0,1,13.16,3.162,22.628,22.628,0,0,1,9.114,9.114,28.3,28.3,0,0,1,3.3,13.95,28.037,28.037,0,0,1-3.3,13.9,22.7,22.7,0,0,1-9.114,9.068A27.087,27.087,0,0,1,163.308.651a27.087,27.087,0,0,1-13.16-3.162,23.01,23.01,0,0,1-9.16-9.068,27.724,27.724,0,0,1-3.348-13.9,27.986,27.986,0,0,1,3.348-13.95,22.93,22.93,0,0,1,9.16-9.114A27.087,27.087,0,0,1,163.308-51.708Zm0,7.44a17.691,17.691,0,0,0-8.417,2.046,15.382,15.382,0,0,0-6.231,6.278,21.143,21.143,0,0,0-2.372,10.463,20.936,20.936,0,0,0,2.372,10.37,15.382,15.382,0,0,0,6.231,6.278,17.691,17.691,0,0,0,8.417,2.046,17.691,17.691,0,0,0,8.417-2.046,15.382,15.382,0,0,0,6.231-6.278,20.936,20.936,0,0,0,2.371-10.37,21.144,21.144,0,0,0-2.371-10.463,15.382,15.382,0,0,0-6.231-6.278A17.691,17.691,0,0,0,163.308-44.268Zm59.8-7.44a27.087,27.087,0,0,1,13.16,3.162,22.628,22.628,0,0,1,9.114,9.114,28.3,28.3,0,0,1,3.3,13.95,28.037,28.037,0,0,1-3.3,13.9,22.7,22.7,0,0,1-9.114,9.068A27.087,27.087,0,0,1,223.107.651a27.087,27.087,0,0,1-13.16-3.162,23.01,23.01,0,0,1-9.16-9.068,27.724,27.724,0,0,1-3.348-13.9,27.986,27.986,0,0,1,3.348-13.95,22.93,22.93,0,0,1,9.16-9.114A27.087,27.087,0,0,1,223.107-51.708Zm0,7.44a17.691,17.691,0,0,0-8.417,2.046,15.382,15.382,0,0,0-6.231,6.278,21.143,21.143,0,0,0-2.372,10.463,20.936,20.936,0,0,0,2.372,10.37,15.382,15.382,0,0,0,6.231,6.278,17.691,17.691,0,0,0,8.417,2.046,17.691,17.691,0,0,0,8.417-2.046,15.382,15.382,0,0,0,6.231-6.278,20.936,20.936,0,0,0,2.371-10.37,21.144,21.144,0,0,0-2.371-10.463,15.382,15.382,0,0,0-6.231-6.278A17.691,17.691,0,0,0,223.107-44.268Zm64.821-7.44a23.143,23.143,0,0,1,12.09,3.162,21.81,21.81,0,0,1,8.323,9.114,30.432,30.432,0,0,1,3.022,13.95,30.143,30.143,0,0,1-3.022,13.9,21.87,21.87,0,0,1-8.323,9.068A23.143,23.143,0,0,1,287.928.651a20.8,20.8,0,0,1-12.6-3.766,19.137,19.137,0,0,1-7.114-9.9v37.2h-8.463V-51.057h8.463v13.02a19.137,19.137,0,0,1,7.114-9.9A20.8,20.8,0,0,1,287.928-51.708Zm-2.418,7.533a17.713,17.713,0,0,0-8.928,2.279,15.718,15.718,0,0,0-6.231,6.556,21.006,21.006,0,0,0-2.232,9.858,20.726,20.726,0,0,0,2.232,9.812,16.092,16.092,0,0,0,6.231,6.557,17.436,17.436,0,0,0,8.928,2.325q7.9,0,12.6-4.976t4.7-13.718q0-8.742-4.7-13.717T285.51-44.175Zm52.917-7.533q8.649,0,13.9,4.51a19,19,0,0,1,6.37,12.137H350.61a11.716,11.716,0,0,0-3.766-7.486,12.266,12.266,0,0,0-8.6-2.93,10.613,10.613,0,0,0-7.115,2.185,7.368,7.368,0,0,0-2.557,5.906,6.1,6.1,0,0,0,1.72,4.511,11.039,11.039,0,0,0,4.278,2.6,71.366,71.366,0,0,0,7.021,1.907,68.977,68.977,0,0,1,9.161,2.65A14.349,14.349,0,0,1,356.7-21.39a12.151,12.151,0,0,1,2.465,8,12.567,12.567,0,0,1-4.7,10.137Q349.773.651,341.961.651q-9.114,0-14.88-4.371A17.434,17.434,0,0,1,320.292-15.9h8.184a10.656,10.656,0,0,0,4.045,7.533q3.58,2.883,9.44,2.883A9.813,9.813,0,0,0,348.8-7.719a7.53,7.53,0,0,0,2.464-5.859,6.409,6.409,0,0,0-1.767-4.743,11.587,11.587,0,0,0-4.371-2.7,63.928,63.928,0,0,0-7.161-1.953,69.884,69.884,0,0,1-9.068-2.6,13.9,13.9,0,0,1-5.766-4.139,11.586,11.586,0,0,1-2.372-7.672,12.844,12.844,0,0,1,4.743-10.37Q330.243-51.708,338.427-51.708Zm67.146-15.438-1.209,47.9h-6.975l-1.209-47.9Zm.558,57.2V0H395.808V-9.951Z" transform="translate(168.63 472)" fill="#160b38"/>
    <g id="Lines" transform="translate(140.507 374.503) rotate(8)">
      <path id="line3" d="M0,0,3.1,22.174" transform="matrix(0.225, -0.974, 0.974, 0.225, 0, 34.584)" fill="none" stroke="#ff735f" stroke-linecap="round" stroke-width="6"/>
      <path id="line2" d="M0,0V21.711" transform="translate(9.372 16.939) rotate(-60)" fill="none" stroke="#ff735f" stroke-linecap="round" stroke-width="6"/>
      <path id="line1" d="M3.1,0,0,22.174" transform="translate(17.702 2.111) rotate(-43)" fill="none" stroke="#ff735f" stroke-linecap="round" stroke-width="6"/>
    </g>
  </g>
</svg>
