<svg xmlns="http://www.w3.org/2000/svg" width="779.311" height="505.148" viewBox="0 0 779.311 505.148"><defs><style>.a{fill:#e5ecff;}.b{fill:#e0e0e0;}.c{fill:#263238;}.d{fill:#455a64;}.e,.g{fill:#fff;}.f{fill:#6270dd;}.g{opacity:0.7;}.h{fill:#fafafa;}.i{fill:#ffbe9d;}.j{fill:#aa6550;}.k{fill:#f4ebf5;}.l{opacity:0.3;}.m{fill:#b78876;}.n{fill:#eb996e;}.o{fill:#fb5180;}.p{opacity:0.78;}</style></defs><g transform="translate(9.408 61.153)"><g transform="translate(19.668)"><g transform="translate(24.61 24.065)"><g transform="translate(27.675)"><rect class="a" width="15.9" height="71.251"/></g><g transform="translate(0 27.676)"><rect class="a" width="15.9" height="71.25" transform="translate(0 15.9) rotate(-90)"/></g></g><path class="a" d="M175.333,139.5a5.73,5.73,0,0,1-.113-.961c-.05-.7-.117-1.628-.2-2.816q-.061-.938-.135-2.073c-.083-.759-.25-1.582-.386-2.476a43.463,43.463,0,0,0-1.256-6.116,56.684,56.684,0,0,0-6.6-15.707A58.882,58.882,0,0,0,95.909,84.266a54.1,54.1,0,0,0-14.875,8.01,66.436,66.436,0,0,0-6.667,5.671,66.608,66.608,0,0,0-5.758,6.814,56.93,56.93,0,0,0-8.4,16.193A62.843,62.843,0,0,0,57.179,139.5a62.848,62.848,0,0,0,3.028,18.547,56.912,56.912,0,0,0,8.4,16.2,66.647,66.647,0,0,0,5.758,6.818,66.187,66.187,0,0,0,6.668,5.672,54.079,54.079,0,0,0,14.877,8.011,59.031,59.031,0,0,0,70.73-25.092,56.706,56.706,0,0,0,6.6-15.706,43.416,43.416,0,0,0,1.255-6.114c.136-.894.3-1.717.386-2.476q.074-1.136.135-2.073c.087-1.189.154-2.121.2-2.815a5.705,5.705,0,0,1,.113-.961,5.277,5.277,0,0,1,.016.962c-.019.7-.046,1.635-.08,2.83q-.034.945-.075,2.087c-.064.765-.211,1.594-.33,2.5a42.056,42.056,0,0,1-1.15,6.181,56.241,56.241,0,0,1-6.471,15.946A59.78,59.78,0,0,1,127,198.353a60,60,0,0,1-31.487-2.526,55.073,55.073,0,0,1-15.2-8.135,67.3,67.3,0,0,1-6.813-5.776,67.563,67.563,0,0,1-5.89-6.949,58.04,58.04,0,0,1-8.593-16.532,63.957,63.957,0,0,1-3.1-18.941,63.954,63.954,0,0,1,3.1-18.935,58.035,58.035,0,0,1,8.592-16.526,67.787,67.787,0,0,1,5.89-6.945,67.172,67.172,0,0,1,6.813-5.775A55.07,55.07,0,0,1,95.515,83.18,60,60,0,0,1,127,80.655,59.774,59.774,0,0,1,167.24,109a56.246,56.246,0,0,1,6.473,15.947,42.18,42.18,0,0,1,1.15,6.181c.118.9.266,1.733.33,2.5q.041,1.144.075,2.087c.034,1.2.061,2.131.08,2.83A5.3,5.3,0,0,1,175.333,139.5Z" transform="translate(-55.925 -79.642)"/></g><g transform="translate(0 190.757)"><path class="a" d="M44.325,249.887s-13.353,4.6.258,33.153S67.773,325.8,67.773,325.8s2.373,6.606-3.158,7.474-17.6-1.391-20.232,5.278c-2.732,6.916,2.164,13.642,12.3,19.7s31.842,20.143,33.8,21.424c1.922,1.258,3.8,4.353.127,5.548s-31.008,3.305-29.23,16.217,32.776,25.148,36.138,26.55,4.137,2.865,3.81,4.724-9.582,1.7-17.333,2.62-16.576,3.342-14.926,10.706,19.779,23.227,64.686,28.853l20.98,1.244,11.9-17.431c23.2-38.858,21.855-62.911,17.067-68.743s-12.13-.367-17.624,5.175-11.066,12.935-12.732,12.05-2.342-2.4-1.378-5.91,10.395-35.476,1.312-44.824-27.569,10.9-30.772,13.06-4.485-1.226-4.293-3.515c.195-2.332,2.454-28.113,3.915-39.826s-.828-19.712-7.96-21.816c-6.878-2.029-12.523,8.873-16.611,12.7s-7.834-2.11-7.834-2.11-5.306-16.3-19.434-44.6S44.06,250,44.06,250" transform="translate(-38.466 -248.971)"/><g transform="translate(18.004 26.505)"><path class="b" d="M153.664,478.131c-10.293-20.823-27.966-58.142-43.307-90.1s-29.245-60.864-39.432-81.738L58.836,281.583l-3.283-6.721c-.36-.754-.639-1.337-.839-1.755-.186-.4-.266-.608-.266-.608s.121.19.326.578c.214.412.513.986.9,1.727l3.392,6.666c2.94,5.793,7.134,14.2,12.277,24.618,10.293,20.823,24.271,49.708,39.606,81.658s32.946,69.309,43.133,90.182" transform="translate(-54.448 -272.499)"/></g><g transform="translate(22.67 93.417)"><path class="b" d="M58.59,331.9a6.814,6.814,0,0,1,1.454.447c.922.323,2.241.831,3.864,1.474,3.246,1.291,7.682,3.187,12.54,5.368l12.415,5.63,3.771,1.682a6.813,6.813,0,0,1,1.363.673,6.864,6.864,0,0,1-1.457-.437c-.922-.327-2.242-.834-3.86-1.494-3.232-1.323-7.642-3.276-12.5-5.458L63.73,334.247l-3.782-1.664A6.888,6.888,0,0,1,58.59,331.9Z" transform="translate(-58.59 -331.894)"/></g><g transform="translate(59.542 66.008)"><path class="b" d="M91.326,348.949c-.168-.065,3.34-9.384,7.834-20.811s8.273-20.639,8.441-20.573-3.339,9.382-7.834,20.812S91.494,349.015,91.326,348.949Z" transform="translate(-91.32 -307.565)"/></g><g transform="translate(80.885 125.445)"><path class="b" d="M110.268,392.407a7.053,7.053,0,0,1,.888-1.273l2.579-3.337c2.173-2.82,5.158-6.727,8.294-11.157s5.855-8.53,7.791-11.517c.913-1.406,1.682-2.589,2.3-3.537a7.145,7.145,0,0,1,.908-1.259,7.085,7.085,0,0,1-.689,1.391c-.482.873-1.2,2.125-2.125,3.65-1.84,3.054-4.494,7.211-7.649,11.65s-6.2,8.317-8.465,11.068c-1.141,1.371-2.076,2.469-2.744,3.21A7.079,7.079,0,0,1,110.268,392.407Z" transform="translate(-110.266 -360.325)"/></g><g transform="translate(44.752 152.211)"><path class="b" d="M78.191,384.107a6.014,6.014,0,0,1,1.433.063l3.878.412c3.27.377,7.783.943,12.762,1.608s9.482,1.3,12.737,1.8l3.851.618a6.09,6.09,0,0,1,1.4.315,6.1,6.1,0,0,1-1.434-.063l-3.878-.413c-3.27-.376-7.783-.942-12.763-1.606s-9.481-1.3-12.736-1.8l-3.851-.62A6.016,6.016,0,0,1,78.191,384.107Z" transform="translate(-78.191 -384.084)"/></g><g transform="translate(57.967 198.868)"><path class="b" d="M89.922,425.518a10.031,10.031,0,0,1,1.834.1l4.971.51c4.194.46,9.982,1.14,16.371,1.93s12.17,1.543,16.35,2.12l4.947.716a9.791,9.791,0,0,1,1.8.352,10.025,10.025,0,0,1-1.833-.1l-4.971-.511c-4.194-.46-9.983-1.139-16.373-1.93s-12.168-1.542-16.348-2.119l-4.946-.716A9.823,9.823,0,0,1,89.922,425.518Z" transform="translate(-89.922 -425.5)"/></g><g transform="translate(103.172 162.68)"><path class="b" d="M130.051,434.861a11.317,11.317,0,0,1,1.083-1.641c.8-1.122,1.854-2.584,3.118-4.348,2.628-3.674,6.239-8.762,10.066-14.492s7.172-11,9.56-14.833c1.149-1.841,2.1-3.368,2.832-4.54a11.518,11.518,0,0,1,1.1-1.628,11.114,11.114,0,0,1-.884,1.757c-.606,1.11-1.507,2.7-2.656,4.649-2.289,3.9-5.569,9.222-9.412,14.957s-7.51,10.8-10.236,14.4c-1.368,1.8-2.49,3.247-3.287,4.228A11.352,11.352,0,0,1,130.051,434.861Z" transform="translate(-130.049 -393.377)"/></g></g><g transform="translate(593.095 202.168)"><path class="a" d="M606.2,470.422c-30.955-18.959-40.018-57.07-40.933-91.765-.152-5.792-1.155-11.846,1.288-17.083s8.65-9.089,13.971-6.967c4.414,1.762,6.586,6.641,9.237,10.626A33.869,33.869,0,0,0,604.1,377.361c3.8,1.688,8.42,2.581,11.932.358,4.819-3.052,4.991-9.974,4.609-15.722q-1.071-16.065-2.141-32.127c-.383-5.745-.754-11.615.7-17.178s5.1-10.87,10.479-12.732,12.328.883,13.823,6.44c.622,2.312.292,4.772.595,7.148s1.575,4.949,3.881,5.477c2.335.536,4.538-1.232,6.154-3.019,5.583-6.162,9.158-13.881,12.471-21.544s6.507-15.5,11.509-22.15,12.144-12.122,20.349-13.085,17.282,3.589,19.85,11.545c2.575,7.978-1.656,16.486-6.406,23.356a128.516,128.516,0,0,1-25.178,27.078c-1.734,1.4-3.614,2.9-4.178,5.075-1.017,3.908,2.843,7.495,6.7,8.526,4.371,1.169,8.993.444,13.507.7s9.489,1.941,11.44,6.074c2.708,5.734-1.834,12.188-6.425,16.514a110.124,110.124,0,0,1-31.4,20.741c-4.136,1.8-8.5,3.429-11.734,6.6s-4.977,8.468-2.673,12.392,7.673,4.906,12.052,3.816,8.2-3.732,12.323-5.579c7.72-3.458,17.954-3.529,23.427,2.992,3.6,4.286,4.266,10.519,2.906,15.969s-4.492,10.264-7.858,14.733c-11.763,15.617-27.25,28.555-45.193,36.015s-34.816,10.2-53.43,4.642" transform="translate(-564.938 -259.101)"/><g transform="translate(48.893 4.288)"><path class="b" d="M608.339,447.7c4.041-17.78,10.088-36.9,17.1-56.688l5.246-14.629c1.733-4.8,3.451-9.555,5.417-14.1a257.66,257.66,0,0,1,12.807-25.5c4.466-7.913,8.992-15.258,13.273-22.1,4.3-6.831,8.425-13.123,12.431-18.7a204.381,204.381,0,0,1,20.839-24.871c2.681-2.734,4.83-4.786,6.305-6.157l1.688-1.55a4.38,4.38,0,0,1,.6-.5,3.961,3.961,0,0,1-.525.58l-1.614,1.626c-1.425,1.421-3.527,3.519-6.16,6.293A216.187,216.187,0,0,0,675.22,296.43c-3.956,5.585-8.037,11.886-12.3,18.729s-8.739,14.2-13.17,22.11a260.308,260.308,0,0,0-12.7,25.423c-1.951,4.528-3.649,9.246-5.383,14.056s-3.469,9.686-5.237,14.623c-7,19.769-13.065,38.837-17.147,56.551" transform="translate(-608.339 -262.907)"/></g><g transform="translate(64.731 40.86)"><path class="b" d="M634.623,358.106a11.655,11.655,0,0,1-.71-2.419c-.4-1.57-.9-3.86-1.475-6.7-1.158-5.674-2.491-13.565-3.926-22.27s-2.876-16.559-4.117-22.2c-.613-2.822-1.131-5.1-1.511-6.673a11.49,11.49,0,0,1-.471-2.476,11.5,11.5,0,0,1,.867,2.366c.5,1.54,1.134,3.8,1.841,6.609,1.434,5.617,3,13.477,4.434,22.2,1.395,8.593,2.655,16.369,3.618,22.309.452,2.68.836,4.939,1.142,6.753A11.517,11.517,0,0,1,634.623,358.106Z" transform="translate(-622.398 -295.371)"/></g><g transform="translate(76.956 85.288)"><path class="b" d="M706.32,334.843a15.963,15.963,0,0,1-2.927.532c-1.886.283-4.617.678-7.975,1.274-6.725,1.139-15.96,3.038-26.056,5.579-10.1,2.559-19.132,5.265-25.612,7.41-3.249,1.05-5.855,1.97-7.659,2.6a15.949,15.949,0,0,1-2.841.882,15.765,15.765,0,0,1,2.695-1.273c1.764-.745,4.338-1.777,7.565-2.923,6.436-2.335,15.471-5.164,25.6-7.733a261.1,261.1,0,0,1,26.2-5.286c3.384-.5,6.14-.785,8.047-.941A15.836,15.836,0,0,1,706.32,334.843Z" transform="translate(-633.25 -334.808)"/></g><g transform="translate(6.809 95.518)"><path class="b" d="M613.893,436.034a3.812,3.812,0,0,1-.561-.871c-.385-.7-.856-1.559-1.425-2.6-1.228-2.26-2.919-5.579-4.955-9.705-4.076-8.251-9.349-19.826-14.993-32.677s-10.807-24.465-14.7-32.789c-1.908-4.045-3.479-7.373-4.646-9.846-.5-1.075-.913-1.96-1.249-2.688a3.833,3.833,0,0,1-.372-.97,3.879,3.879,0,0,1,.561.872l1.425,2.6c1.228,2.261,2.919,5.579,4.955,9.706,4.076,8.251,9.348,19.826,15,32.682s10.8,24.458,14.7,32.785c1.909,4.043,3.479,7.373,4.646,9.845.5,1.074.911,1.961,1.249,2.687A3.88,3.88,0,0,1,613.893,436.034Z" transform="translate(-570.983 -343.889)"/></g><g transform="translate(49.72 150.077)"><path class="b" d="M705.37,392.327a3.993,3.993,0,0,1-.951.461l-2.795,1.128c-2.582,1.014-6.069,2.38-10.31,4.042-8.706,3.417-20.675,8.272-33.894,13.655s-25.249,10.135-34.028,13.371c-4.389,1.62-7.952,2.894-10.433,3.724-1.148.376-2.094.686-2.862.94a3.886,3.886,0,0,1-1.023.258,4.046,4.046,0,0,1,.95-.463c.751-.3,1.674-.674,2.795-1.125l10.309-4.043c8.706-3.413,20.677-8.271,33.9-13.656s25.244-10.133,34.022-13.369c4.389-1.62,7.953-2.894,10.436-3.724,1.147-.376,2.091-.688,2.863-.94A3.846,3.846,0,0,1,705.37,392.327Z" transform="translate(-609.073 -392.319)"/></g></g></g><g transform="translate(0 502.901)"><path class="c" d="M809.426,472.062c0,.162-174.468.293-389.636.293-215.243,0-389.674-.131-389.674-.293s174.431-.294,389.674-.294C634.957,471.768,809.426,471.9,809.426,472.062Z" transform="translate(-30.115 -471.768)"/></g><g transform="translate(88.791 125.532)"><g transform="translate(0)"><g transform="translate(21.932)"><rect class="d" width="561.193" height="371.111" rx="14.567"/></g><g transform="translate(0 347.144)"><path class="d" d="M0,0H608.01a0,0,0,0,1,0,0V14.674a17.8,17.8,0,0,1-17.8,17.8H17.8A17.8,17.8,0,0,1,0,14.674V0A0,0,0,0,1,0,0Z"/></g><g transform="translate(36.996 14.744)"><rect class="c" width="529.496" height="313.398"/></g><g transform="translate(247.207 343.664)"><path class="c" d="M328.37,441.849l7.545,12H442.081l7.006-12Z" transform="translate(-328.37 -441.849)"/></g><g transform="translate(47.902 25.354)"><path class="a" d="M3.272,0H505.5a3.273,3.273,0,0,1,3.273,3.273V298.513a3.273,3.273,0,0,1-3.273,3.273H3.272A3.272,3.272,0,0,1,0,298.513V3.272A3.272,3.272,0,0,1,3.272,0Z"/></g><g transform="translate(47.679 49)"><path class="e" d="M660.251,459.959h-509l.939-279.674H660.251Z" transform="translate(-151.256 -180.285)"/></g><g transform="translate(82.403 32.946)"><path class="c" d="M190.2,170.1a4.063,4.063,0,1,1-4.063-4.062A4.064,4.064,0,0,1,190.2,170.1Z" transform="translate(-182.079 -166.035)"/></g><g transform="translate(57.776 32.946)"><path class="c" d="M168.345,170.1a4.063,4.063,0,1,1-4.063-4.062A4.063,4.063,0,0,1,168.345,170.1Z" transform="translate(-160.218 -166.035)"/></g><g transform="translate(70.089 32.946)"><path class="c" d="M179.275,170.1a4.063,4.063,0,1,1-4.063-4.062A4.063,4.063,0,0,1,179.275,170.1Z" transform="translate(-171.148 -166.035)"/></g><g transform="translate(41.8 343.386)"><path class="c" d="M664.353,441.969c0,.2-116.039.366-259.146.366-143.157,0-259.17-.163-259.17-.366s116.013-.366,259.17-.366C548.314,441.6,664.353,441.767,664.353,441.969Z" transform="translate(-146.037 -441.603)"/></g><g transform="translate(47.901 277.894)"><rect class="f" width="508.857" height="50.617"/><rect class="g" width="508.857" height="50.617"/></g><g transform="translate(502.107 59.535)"><path class="a" d="M573.781,227.925h0a19.144,19.144,0,0,1-19.144-19.143h0a19.145,19.145,0,0,1,19.144-19.145h0a19.144,19.144,0,0,1,19.143,19.145h0A19.143,19.143,0,0,1,573.781,227.925Z" transform="translate(-554.637 -189.637)"/><g transform="translate(12.162 13.317)"><path class="c" d="M571.75,207.425a3.052,3.052,0,1,0-1.854-.019,5.321,5.321,0,0,0-4.462,5.249h10.65A5.325,5.325,0,0,0,571.75,207.425Z" transform="translate(-565.433 -201.458)"/><g transform="translate(9.397 1.096)"><g transform="translate(2.451)"><path class="c" d="M576.389,208.211a.439.439,0,0,1-.439-.439v-4.9a.439.439,0,1,1,.879,0v4.9A.44.44,0,0,1,576.389,208.211Z" transform="translate(-575.95 -202.431)"/></g><g transform="translate(0 2.451)"><path class="c" d="M579.115,205.486h-4.9a.439.439,0,0,1,0-.879h4.9a.439.439,0,1,1,0,.879Z" transform="translate(-573.774 -204.607)"/></g></g></g></g><g transform="translate(47.901 48.927)"><path class="h" d="M274.1,459.895l-122.652-.583V180.221H274.1Z" transform="translate(-151.452 -180.221)"/><g transform="translate(122.358)"><path class="c" d="M260.36,457.628c-.162,0-.294-62.105-.294-138.7,0-76.619.131-138.71.293-138.71s.294,62.092.294,138.71C260.653,395.523,260.522,457.628,260.36,457.628Z" transform="translate(-260.066 -180.221)"/></g><g transform="translate(2.276 225.708)"><path class="b" d="M270.07,380.868c0,.162-26.1.293-58.3.293s-58.3-.131-58.3-.293,26.1-.293,58.3-.293S270.07,380.706,270.07,380.868Z" transform="translate(-153.473 -380.575)"/></g><g transform="translate(90.963 72.486)"><path class="b" d="M233.124,244.586v2.735h-.282v-2.486H232.2v-.249Z" transform="translate(-232.197 -244.562)"/><path class="b" d="M234.375,244.586v2.735h-.282v-2.486h-.644v-.249Z" transform="translate(-232.039 -244.562)"/><path class="b" d="M234.853,245.387a.207.207,0,0,1,.207-.212.21.21,0,0,1,.211.212.212.212,0,0,1-.211.214A.21.21,0,0,1,234.853,245.387Zm0,1.664a.207.207,0,0,1,.207-.211.21.21,0,0,1,.211.211.213.213,0,0,1-.211.215A.21.21,0,0,1,234.853,247.051Z" transform="translate(-231.861 -244.488)"/><path class="b" d="M237.468,247.074v.25h-1.919v-.2l1.137-1.114c.309-.3.368-.488.368-.676,0-.317-.223-.511-.641-.511a.929.929,0,0,0-.747.3l-.2-.171a1.228,1.228,0,0,1,.969-.391c.555,0,.907.282.907.738a1.125,1.125,0,0,1-.449.856l-.931.915Z" transform="translate(-231.783 -244.565)"/><path class="b" d="M239.424,246.516c0,.465-.324.829-.992.829a1.415,1.415,0,0,1-.981-.353l.136-.222a1.187,1.187,0,0,0,.842.317c.464,0,.711-.228.711-.559,0-.353-.22-.571-.915-.571h-.582l.141-1.371h1.5v.249h-1.252l-.093.872h.353C239.111,245.707,239.424,246.031,239.424,246.516Z" transform="translate(-231.532 -244.562)"/></g><g transform="translate(93.748 199.948)"><path class="b" d="M235.6,357.709v2.736h-.282v-2.486h-.644v-.25Z" transform="translate(-234.67 -357.709)"/><path class="b" d="M236.848,357.709v2.736h-.282v-2.486h-.646v-.25Z" transform="translate(-234.512 -357.709)"/><path class="b" d="M237.325,358.51a.207.207,0,0,1,.207-.211.211.211,0,0,1,.212.211.214.214,0,0,1-.212.215A.211.211,0,0,1,237.325,358.51Zm0,1.665a.207.207,0,0,1,.207-.211.211.211,0,0,1,.212.211.214.214,0,0,1-.212.215A.211.211,0,0,1,237.325,360.175Z" transform="translate(-234.334 -357.634)"/><path class="b" d="M240.387,359.726h-.546v.72h-.282v-.72h-1.543v-.2l1.45-1.814h.312l-1.4,1.766h1.187v-.633h.274v.633h.546Z" transform="translate(-234.247 -357.709)"/><path class="b" d="M242.2,359.64c0,.464-.326.828-.994.828a1.409,1.409,0,0,1-.98-.351l.136-.222a1.191,1.191,0,0,0,.84.315c.465,0,.711-.226.711-.559,0-.352-.219-.57-.915-.57h-.581l.14-1.372h1.5v.25h-1.25l-.094.872h.352C241.892,358.831,242.2,359.156,242.2,359.64Z" transform="translate(-233.966 -357.709)"/></g><g transform="translate(22.444 18.813)"><path class="a" d="M226.242,244.838H171.534l-.158-23.8a23.959,23.959,0,0,1,23.957-24.117h30.909A23.959,23.959,0,0,1,250.2,220.879h0A23.959,23.959,0,0,1,226.242,244.838Z" transform="translate(-171.376 -196.921)"/></g><g transform="translate(5.532 245.525)"><path class="b" d="M253.737,419.859H166.975a10.625,10.625,0,0,1-10.612-10.613v-.466a10.625,10.625,0,0,1,10.612-10.613h86.762a10.625,10.625,0,0,1,10.612,10.613v.466A10.625,10.625,0,0,1,253.737,419.859Zm-86.762-21.028a9.96,9.96,0,0,0-9.949,9.949v.466a9.961,9.961,0,0,0,9.949,9.95h86.762a9.961,9.961,0,0,0,9.949-9.95v-.466a9.96,9.96,0,0,0-9.949-9.949Z" transform="translate(-156.363 -398.166)"/><g transform="translate(92.504 5.126)"><path class="f" d="M249.262,408.109a5.393,5.393,0,1,1-5.393-5.393A5.392,5.392,0,0,1,249.262,408.109Z" transform="translate(-238.476 -402.716)"/></g><g transform="translate(94.402 7.993)"><path class="e" d="M243.516,411.117H243.5a.163.163,0,0,1-.148-.122l-.691-2.552-2.394-.847a.166.166,0,0,1,0-.313l5.632-2.011a.166.166,0,0,1,.208.223l-2.443,5.523A.166.166,0,0,1,243.516,411.117Zm-2.694-3.679,2.036.721a.162.162,0,0,1,.1.113l.59,2.183,2.1-4.741Z" transform="translate(-240.161 -405.261)"/><g transform="translate(2.476 0.001)"><path class="e" d="M242.525,408.481a.166.166,0,0,1-.112-.288l3.155-2.887a.166.166,0,1,1,.224.244l-3.155,2.887A.165.165,0,0,1,242.525,408.481Z" transform="translate(-242.359 -405.262)"/></g></g><g transform="translate(23.834 8.783)"><path class="c" d="M178.562,406.232H177.52v-.27h2.4v.27h-1.042v2.694h-.313Z" transform="translate(-177.52 -405.962)"/><path class="c" d="M181.838,406.616l-1.114,2.494c-.186.436-.422.577-.74.577a.766.766,0,0,1-.543-.2l.141-.224a.556.556,0,0,0,.407.169c.2,0,.333-.092.461-.372l.1-.217-1-2.223h.313l.839,1.893.838-1.893Z" transform="translate(-177.277 -405.879)"/><path class="c" d="M184.2,407.731a1.079,1.079,0,0,1-1.11,1.136.972.972,0,0,1-.847-.44v1.241h-.3v-3.05h.288v.44a.97.97,0,0,1,.86-.457A1.077,1.077,0,0,1,184.2,407.731Zm-.3,0a.831.831,0,1,0-.83.869A.82.82,0,0,0,183.9,407.731Z" transform="translate(-176.96 -405.881)"/><path class="c" d="M186.461,407.824H184.6a.824.824,0,0,0,.876.775.877.877,0,0,0,.682-.292l.17.195a1.178,1.178,0,0,1-2.029-.772,1.073,1.073,0,0,1,1.088-1.13,1.061,1.061,0,0,1,1.08,1.13C186.466,407.757,186.461,407.791,186.461,407.824ZM184.6,407.6h1.579a.791.791,0,0,0-1.579,0Z" transform="translate(-176.662 -405.881)"/><path class="c" d="M189.455,407.465v1.38h-.287V408.5a.837.837,0,0,1-.767.368c-.5,0-.813-.262-.813-.648,0-.344.221-.631.861-.631h.707v-.136c0-.381-.216-.588-.632-.588a1.137,1.137,0,0,0-.741.262l-.135-.224a1.408,1.408,0,0,1,.907-.3A.791.791,0,0,1,189.455,407.465Zm-.3.711v-.364h-.7c-.431,0-.571.17-.571.4,0,.259.207.42.563.42A.714.714,0,0,0,189.155,408.176Z" transform="translate(-176.246 -405.881)"/><path class="c" d="M194.633,407.554v1.291h-.3v-1.262c0-.47-.237-.712-.639-.712a.717.717,0,0,0-.746.8v1.169h-.3v-1.262c0-.47-.237-.712-.643-.712a.718.718,0,0,0-.746.8v1.169h-.3v-2.227h.288v.407a.9.9,0,0,1,.817-.424.8.8,0,0,1,.792.47.969.969,0,0,1,.881-.47A.841.841,0,0,1,194.633,407.554Z" transform="translate(-175.82 -405.881)"/><path class="c" d="M196.92,407.824h-1.863a.824.824,0,0,0,.876.775.877.877,0,0,0,.682-.292l.17.195a1.178,1.178,0,0,1-2.029-.772,1.073,1.073,0,0,1,1.088-1.13,1.061,1.061,0,0,1,1.08,1.13C196.925,407.757,196.92,407.791,196.92,407.824Zm-1.863-.224h1.579a.791.791,0,0,0-1.579,0Z" transform="translate(-175.339 -405.881)"/><path class="c" d="M196.952,408.592l.136-.238a1.341,1.341,0,0,0,.791.25c.424,0,.6-.144.6-.364,0-.581-1.444-.123-1.444-1,0-.365.313-.635.881-.635a1.51,1.51,0,0,1,.787.207l-.132.241a1.145,1.145,0,0,0-.656-.19c-.4,0-.581.157-.581.368,0,.6,1.445.149,1.445,1,0,.385-.339.635-.919.635A1.492,1.492,0,0,1,196.952,408.592Z" transform="translate(-175.061 -405.881)"/><path class="c" d="M198.791,408.592l.136-.238a1.341,1.341,0,0,0,.791.25c.425,0,.6-.144.6-.364,0-.581-1.444-.123-1.444-1,0-.365.313-.635.881-.635a1.507,1.507,0,0,1,.787.207l-.132.241a1.14,1.14,0,0,0-.656-.19c-.4,0-.581.157-.581.368,0,.6,1.445.149,1.445,1,0,.385-.339.635-.919.635A1.492,1.492,0,0,1,198.791,408.592Z" transform="translate(-174.828 -405.881)"/><path class="c" d="M202.607,407.465v1.38h-.287V408.5a.838.838,0,0,1-.767.368c-.5,0-.813-.262-.813-.648,0-.344.221-.631.86-.631h.707v-.136c0-.381-.216-.588-.631-.588a1.137,1.137,0,0,0-.741.262l-.135-.224a1.41,1.41,0,0,1,.907-.3A.791.791,0,0,1,202.607,407.465Zm-.3.711v-.364h-.7c-.431,0-.571.17-.571.4,0,.259.207.42.562.42A.712.712,0,0,0,202.306,408.176Z" transform="translate(-174.582 -405.881)"/><path class="c" d="M205.219,406.618v1.957a.978.978,0,0,1-1.114,1.114,1.557,1.557,0,0,1-1.038-.344l.153-.229a1.323,1.323,0,0,0,.876.3c.563,0,.821-.258.821-.808v-.285a1,1,0,0,1-.869.433,1.08,1.08,0,1,1,0-2.16,1,1,0,0,1,.881.444v-.427Zm-.292,1.058a.845.845,0,1,0-.847.818A.8.8,0,0,0,204.927,407.676Z" transform="translate(-174.304 -405.881)"/><path class="c" d="M207.676,407.824h-1.863a.824.824,0,0,0,.876.775.877.877,0,0,0,.682-.292l.17.195a1.178,1.178,0,0,1-2.029-.772,1.073,1.073,0,0,1,1.088-1.13,1.061,1.061,0,0,1,1.08,1.13C207.681,407.757,207.676,407.791,207.676,407.824Zm-1.863-.224h1.579a.791.791,0,0,0-1.579,0Z" transform="translate(-173.978 -405.881)"/><path class="c" d="M207.81,408.431a.224.224,0,0,1,.224-.229.228.228,0,0,1,.229.229.231.231,0,0,1-.229.233A.228.228,0,0,1,207.81,408.431Z" transform="translate(-173.687 -405.679)"/><path class="c" d="M208.607,408.431a.224.224,0,0,1,.224-.229.228.228,0,0,1,.229.229.231.231,0,0,1-.229.233A.228.228,0,0,1,208.607,408.431Z" transform="translate(-173.586 -405.679)"/><path class="c" d="M209.4,408.431a.225.225,0,0,1,.225-.229.228.228,0,0,1,.228.229.231.231,0,0,1-.228.233A.228.228,0,0,1,209.4,408.431Z" transform="translate(-173.485 -405.679)"/></g><g transform="translate(8.195 7.723)"><path class="b" d="M166,410a1.174,1.174,0,1,1-1.8-1.5l2.428-2.915a.76.76,0,0,1,1.168.973l-2.058,2.472,0,0a.431.431,0,0,1-.644-.544l1.585-1.9-.217-.181-1.515,1.818v0l-.073.088.009.007a.7.7,0,0,0,1.068.89l0,0,.041-.048c.012-.012.026-.024.038-.037l0,0,2.006-2.41h0a1.042,1.042,0,0,0-1.6-1.334h0l-2.536,3.045.006,0a1.457,1.457,0,0,0,2.229,1.857l.006,0,2.044-2.454-.219-.181Z" transform="translate(-163.638 -405.022)"/></g></g><g transform="translate(37.912 31.775)"><path class="c" d="M231.3,208.608c0,.1-10.341.182-23.094.182s-23.1-.081-23.1-.182,10.338-.181,23.1-.181S231.3,208.508,231.3,208.608Z" transform="translate(-185.106 -208.427)"/><g transform="translate(0 5.712)"><path class="c" d="M231.3,213.68c0,.1-10.341.183-23.094.183s-23.1-.081-23.1-.183,10.338-.182,23.1-.182S231.3,213.579,231.3,213.68Z" transform="translate(-185.106 -213.497)"/></g><g transform="translate(0 11.424)"><path class="c" d="M231.3,218.751c0,.1-10.341.183-23.094.183s-23.1-.082-23.1-.183,10.338-.182,23.1-.182S231.3,218.65,231.3,218.751Z" transform="translate(-185.106 -218.568)"/></g><g transform="translate(0 17.137)"><path class="c" d="M231.3,223.822c0,.1-10.341.182-23.094.182s-23.1-.082-23.1-.182,10.338-.182,23.1-.182S231.3,223.721,231.3,223.822Z" transform="translate(-185.106 -223.639)"/></g><g transform="translate(0 22.85)"><path class="c" d="M208.282,228.893a4.493,4.493,0,0,1-.91.071l-2.484.057c-2.1.033-4.994.054-8.193.054s-6.1-.021-8.195-.054l-2.484-.057a4.493,4.493,0,0,1-.91-.071,4.292,4.292,0,0,1,.91-.071l2.484-.059c2.1-.033,4.994-.053,8.195-.053s6.1.02,8.193.053l2.484.059A4.292,4.292,0,0,1,208.282,228.893Z" transform="translate(-185.106 -228.71)"/></g></g><g transform="translate(22.445 84.321)"><path class="a" d="M10.883,0H47.488A10.883,10.883,0,0,1,58.371,10.883v4.255A10.883,10.883,0,0,1,47.488,26.021H0a0,0,0,0,1,0,0V10.883A10.883,10.883,0,0,1,10.883,0Z"/><g transform="translate(8.872 9.702)"><path class="c" d="M219.879,263.866c0,.1-9.1.181-20.313.181s-20.315-.081-20.315-.181,9.093-.182,20.315-.182S219.879,263.764,219.879,263.866Z" transform="translate(-179.251 -263.683)"/></g><g transform="translate(8.872 16.037)"><path class="c" d="M204.06,269.488a5.014,5.014,0,0,1-.974.071l-2.659.057c-2.245.034-5.345.054-8.771.054s-6.527-.02-8.771-.054l-2.659-.057a5.015,5.015,0,0,1-.974-.071,4.911,4.911,0,0,1,.974-.071l2.659-.057c2.244-.034,5.345-.054,8.771-.054s6.526.02,8.771.054l2.659.057A4.91,4.91,0,0,1,204.06,269.488Z" transform="translate(-179.251 -269.306)"/></g></g><g transform="translate(20.14 132.905)"><g transform="translate(3.826 32.99)"><path class="b" d="M173.652,327.5v2.735h-.282v-2.485h-.644v-.25Z" transform="translate(-172.726 -327.478)"/><path class="b" d="M174.9,327.5v2.735h-.282v-2.485h-.646v-.25Z" transform="translate(-172.568 -327.478)"/><path class="b" d="M175.382,328.3a.207.207,0,0,1,.206-.212.211.211,0,0,1,.212.212.213.213,0,0,1-.212.214A.21.21,0,0,1,175.382,328.3Zm0,1.664a.207.207,0,0,1,.206-.211.211.211,0,0,1,.212.211.215.215,0,0,1-.212.216A.211.211,0,0,1,175.382,329.967Z" transform="translate(-172.39 -327.404)"/><path class="b" d="M177.941,329.452c0,.457-.332.808-.992.808a1.426,1.426,0,0,1-.985-.35l.136-.223a1.205,1.205,0,0,0,.848.317c.454,0,.7-.212.7-.551s-.231-.543-.739-.543h-.2V328.7l.758-.95h-1.4v-.25h1.759v.2l-.774.972C177.648,328.705,177.941,329.014,177.941,329.452Z" transform="translate(-172.316 -327.478)"/><path class="b" d="M178.068,328.871c0-.871.457-1.39,1.091-1.39s1.1.519,1.1,1.39-.462,1.391-1.1,1.391S178.068,329.743,178.068,328.871Zm1.9,0c0-.73-.329-1.132-.805-1.132s-.8.4-.8,1.132.328,1.134.8,1.134S179.964,329.6,179.964,328.871Z" transform="translate(-172.05 -327.481)"/></g><path class="a" d="M0,0H72.552A10.883,10.883,0,0,1,83.434,10.883v4.255A10.883,10.883,0,0,1,72.552,26.021H10.883A10.883,10.883,0,0,1,0,15.138V0A0,0,0,0,1,0,0Z" transform="translate(83.434 26.021) rotate(180)"/><g transform="translate(12.634 9.431)"><path class="c" d="M237.825,306.752c0,.1-12.824.181-28.639.181s-28.641-.081-28.641-.181,12.82-.182,28.641-.182S237.825,306.65,237.825,306.752Z" transform="translate(-180.545 -306.569)"/></g><g transform="translate(12.634 15.6)"><path class="c" d="M237.825,312.228c0,.1-12.824.182-28.639.182s-28.641-.082-28.641-.182,12.82-.182,28.641-.182S237.825,312.127,237.825,312.228Z" transform="translate(-180.545 -312.045)"/></g></g><g transform="translate(20.315 181.489)"><path class="a" d="M10.883,0H47.488A10.883,10.883,0,0,1,58.371,10.883v4.255A10.883,10.883,0,0,1,47.488,26.021H0a0,0,0,0,1,0,0V10.883A10.883,10.883,0,0,1,10.883,0Z"/><g transform="translate(7.698 9.273)"><path class="c" d="M219.293,349.738c0,.1-9.621.182-21.487.182s-21.488-.081-21.488-.182,9.618-.183,21.488-.183S219.293,349.637,219.293,349.738Z" transform="translate(-176.319 -349.555)"/></g><g transform="translate(7.698 15.456)"><path class="c" d="M203.955,355.226a6.211,6.211,0,0,1-1.086.071l-2.962.057c-2.5.034-5.955.054-9.771.054s-7.271-.02-9.772-.054L177.4,355.3a6.2,6.2,0,0,1-1.085-.071,6.2,6.2,0,0,1,1.085-.071l2.962-.057c2.5-.034,5.955-.054,9.772-.054s7.27.02,9.771.054l2.962.057A6.211,6.211,0,0,1,203.955,355.226Z" transform="translate(-176.319 -355.043)"/></g></g></g></g></g><g transform="translate(41.338 154.955)"><g transform="translate(653.029 0)"><path class="f" d="M727.607,186.258c-1.244-10.031-9.73-19.383-19.837-19.389-5.971,0-11.646,3.117-15.725,7.476a41.009,41.009,0,0,0-3.987,4.728,40.9,40.9,0,0,0-2.979-5.42c-3.142-5.077-8.092-9.253-13.947-10.426-9.91-1.983-20.072,5.517-23.265,15.106s-.535,20.356,4.718,28.991,14.3,19.923,30.964,25.525c11.488-1.472,26.876-11.663,33.727-19.1S728.851,196.289,727.607,186.258Z" transform="translate(-646.484 -162.907)"/><g transform="translate(1.409 21.918)"><path class="h" d="M723.805,201.812a1.189,1.189,0,0,1-.335,0l-.974-.063-3.741-.308-13.747-1.258.247-.152c-1.657,4.321-3.6,9.382-5.727,14.931l-.345.9-.226-.938-5.761-23.919-1.865-7.8.581.116-10.493,14.427-.1.139-.169-.017L657,195.35l-6.837-.763-1.807-.226a3.187,3.187,0,0,1-.618-.109,3.043,3.043,0,0,1,.628.014l1.816.135,6.854.6,24.177,2.284-.269.121,10.444-14.461.416-.577.166.692c.611,2.544,1.236,5.151,1.871,7.8,2.04,8.561,3.976,16.684,5.7,23.933l-.571-.038c2.17-5.534,4.149-10.579,5.839-14.888l.068-.171.18.019,13.726,1.471,3.729.435.968.131A1.217,1.217,0,0,1,723.805,201.812Z" transform="translate(-647.734 -182.363)"/></g></g><g transform="translate(0 48.536)"><path class="f" d="M121.014,216.289c-2.256-6.484-9.228-11.487-15.942-10.05a15.051,15.051,0,0,0-9.38,7.209,27.733,27.733,0,0,0-1.974,3.709,27.972,27.972,0,0,0-2.751-3.176,15.059,15.059,0,0,0-10.751-4.935c-6.866.1-12.546,6.526-13.3,13.352s2.547,13.6,7.267,18.583,12.34,11.194,24.208,12.538c7.421-2.616,16.188-11.58,19.679-17.493S123.27,222.774,121.014,216.289Z" transform="translate(-66.81 -205.991)"/><g transform="translate(2.746 14.43)"><path class="h" d="M120.854,227.154a.826.826,0,0,1-.222.05l-.656.1-2.529.329-9.311,1.125.142-.136c-.484,3.106-1.052,6.745-1.675,10.734l-.1.648-.285-.591c-2.192-4.564-4.648-9.678-7.237-15.066-.8-1.668-1.584-3.311-2.351-4.915l.4-.006L92.12,230.5l-.047.107-.115.012-16.4,1.77-4.65.469-1.232.107a2.063,2.063,0,0,1-.426.016,2.075,2.075,0,0,1,.419-.08l1.226-.17,4.637-.58,16.384-1.932-.161.119c1.5-3.407,3.139-7.145,4.875-11.1l.195-.443.208.436,2.356,4.913c2.575,5.4,5.019,10.515,7.2,15.084l-.385.055c.652-3.985,1.247-7.619,1.755-10.721l.02-.124.123-.012,9.328-.98,2.538-.243.662-.051A.848.848,0,0,1,120.854,227.154Z" transform="translate(-69.247 -218.8)"/></g></g></g><g transform="translate(459.791)"><g transform="translate(35.593 32.451)"><g transform="translate(0.272 0.277)"><rect class="b" width="8.836" height="50.567" rx="3.443"/></g><g transform="translate(0.272 15.389)"><rect class="f" width="8.836" height="35.454" rx="3.443"/></g><g transform="translate(14.743 0.277)"><rect class="b" width="8.836" height="50.567" rx="3.443"/></g><g transform="translate(14.743 23.226)"><rect class="f" width="8.836" height="27.618" rx="3.443"/></g><g transform="translate(31.116 0.277)"><rect class="b" width="8.836" height="50.567" rx="3.443"/></g><g transform="translate(31.116 9.412)"><rect class="f" width="8.836" height="41.432" rx="3.443"/></g><path class="c" d="M474.671,105.007a10.417,10.417,0,0,0,1.1-.205,4.233,4.233,0,0,0,3.055-4.074q-.01-1.291-.021-2.79c-.012-2.01-.026-4.289-.041-6.8-.017-5.055-.036-11.054-.059-17.71,0-3.333-.01-6.831-.016-10.458q0-1.359,0-2.743a9.731,9.731,0,0,0-.182-2.689,4.189,4.189,0,0,0-7.993.23,13.908,13.908,0,0,0-.124,2.713l0,2.744c0,3.627-.01,7.125-.016,10.46-.021,6.658-.042,12.657-.057,17.712-.016,2.514-.029,4.793-.041,6.8,0,1-.028,1.941-.009,2.783a4.139,4.139,0,0,0,.719,2.134,4.318,4.318,0,0,0,2.57,1.753c.718.149,1.117.109,1.115.142a3.5,3.5,0,0,1-1.138-.035,4.351,4.351,0,0,1-3.525-3.978c-.035-.873-.023-1.793-.036-2.8-.011-2.01-.025-4.289-.041-6.8-.016-5.055-.036-11.054-.057-17.712-.006-3.335-.01-6.832-.016-10.46q0-1.36,0-2.744V59.088a5.436,5.436,0,0,1,.136-1.453,4.581,4.581,0,0,1,4.425-3.466,4.684,4.684,0,0,1,2.864.824,4.63,4.63,0,0,1,1.746,2.383,5.111,5.111,0,0,1,.2,1.46v1.389l0,2.743c-.006,3.626-.01,7.124-.016,10.458-.021,6.657-.042,12.656-.059,17.71-.015,2.514-.028,4.793-.039,6.8q-.013,1.5-.024,2.792a4.383,4.383,0,0,1-.675,2.282,4.259,4.259,0,0,1-2.611,1.9A3.193,3.193,0,0,1,474.671,105.007Z" transform="translate(-469.853 -54.164)"/><g transform="translate(14.472)"><path class="c" d="M487.517,105.007a10.421,10.421,0,0,0,1.1-.205,4.233,4.233,0,0,0,3.055-4.074q-.01-1.291-.021-2.79c-.012-2.01-.026-4.289-.041-6.8-.017-5.055-.036-11.054-.059-17.71,0-3.333-.01-6.831-.016-10.458q0-1.359,0-2.743a9.734,9.734,0,0,0-.182-2.689,4.189,4.189,0,0,0-7.993.23,13.823,13.823,0,0,0-.124,2.713q0,1.384,0,2.744c-.006,3.627-.01,7.125-.016,10.46-.021,6.658-.042,12.657-.059,17.712-.015,2.514-.028,4.793-.039,6.8,0,1-.028,1.941-.009,2.783a4.14,4.14,0,0,0,.719,2.134,4.318,4.318,0,0,0,2.57,1.753c.718.149,1.116.109,1.115.142a3.5,3.5,0,0,1-1.138-.035,4.351,4.351,0,0,1-3.525-3.978c-.035-.873-.023-1.793-.036-2.8-.012-2.01-.025-4.289-.041-6.8-.016-5.055-.036-11.054-.057-17.712-.006-3.335-.011-6.832-.016-10.46q0-1.36,0-2.744V59.088a5.438,5.438,0,0,1,.136-1.453,4.58,4.58,0,0,1,4.425-3.466,4.679,4.679,0,0,1,2.862.824,4.618,4.618,0,0,1,1.746,2.383,5.072,5.072,0,0,1,.205,1.46v1.389l0,2.743c-.006,3.626-.011,7.124-.016,10.458-.023,6.657-.042,12.656-.059,17.71-.015,2.514-.028,4.793-.041,6.8q-.012,1.5-.023,2.792a4.384,4.384,0,0,1-.675,2.282,4.259,4.259,0,0,1-2.611,1.9A3.193,3.193,0,0,1,487.517,105.007Z" transform="translate(-482.699 -54.164)"/></g><g transform="translate(30.844)"><path class="c" d="M502.05,105.007a10.362,10.362,0,0,0,1.1-.205,4.233,4.233,0,0,0,3.056-4.074q-.01-1.291-.023-2.79c-.011-2.01-.025-4.289-.039-6.8-.017-5.055-.037-11.054-.059-17.71-.006-3.333-.01-6.831-.016-10.458q0-1.359,0-2.743a9.776,9.776,0,0,0-.182-2.689,4.189,4.189,0,0,0-7.993.23,13.729,13.729,0,0,0-.124,2.713q0,1.384,0,2.744c-.006,3.627-.011,7.125-.016,10.46-.023,6.658-.042,12.657-.059,17.712-.015,2.514-.028,4.793-.041,6.8,0,1-.028,1.941-.009,2.783a4.16,4.16,0,0,0,.719,2.134,4.324,4.324,0,0,0,2.57,1.753c.719.149,1.117.109,1.115.142a3.488,3.488,0,0,1-1.137-.035,4.348,4.348,0,0,1-3.525-3.978c-.036-.873-.024-1.793-.036-2.8-.012-2.01-.026-4.289-.041-6.8-.017-5.055-.036-11.054-.059-17.712,0-3.335-.01-6.832-.016-10.46q0-1.36,0-2.744V59.088a5.44,5.44,0,0,1,.137-1.453,4.579,4.579,0,0,1,4.425-3.466,4.683,4.683,0,0,1,2.863.824,4.624,4.624,0,0,1,1.746,2.383,5.033,5.033,0,0,1,.2,1.46v1.389q0,1.384,0,2.743c0,3.626-.01,7.124-.016,10.458-.021,6.657-.042,12.656-.057,17.71-.016,2.514-.028,4.793-.041,6.8q-.012,1.5-.023,2.792a4.394,4.394,0,0,1-.675,2.282,4.262,4.262,0,0,1-2.611,1.9A3.2,3.2,0,0,1,502.05,105.007Z" transform="translate(-497.232 -54.164)"/></g></g><path class="f" d="M493.967,25.379a5.482,5.482,0,0,1,.955-.016l2.808.08c.616.028,1.31.028,2.069.091l2.477.348,2.891.416,3.23.8a52.3,52.3,0,0,1,15.653,6.825,55.246,55.246,0,0,1,25.374,41.521,57.267,57.267,0,0,1,.152,7.569c-.089,1.28-.063,2.582-.25,3.872s-.391,2.59-.587,3.9a55.556,55.556,0,0,1-5.261,15.4,59.321,59.321,0,0,1-10.061,13.844,58.175,58.175,0,0,1-14.5,10.413,52.655,52.655,0,0,1-17.669,5.423,35.1,35.1,0,0,1-4.712.4,42.506,42.506,0,0,1-4.764.087,56.613,56.613,0,0,1-9.542-1.205,55.767,55.767,0,0,1-19-7.994l.577.059-19.35,7.765-1.146.46.327-1.188q2.928-10.651,5.688-20.687l.1.511A55.525,55.525,0,0,1,439.108,90.44a50.35,50.35,0,0,1-.753-12.11,38.918,38.918,0,0,1,.55-5.816l.439-2.831c.172-.931.456-1.832.676-2.74a55.343,55.343,0,0,1,21.589-31.471,52.9,52.9,0,0,1,12.847-6.777l2.894-1.036,2.748-.7,2.513-.623c.805-.155,1.584-.238,2.313-.35,1.463-.186,2.748-.438,3.874-.493l2.845-.1,1.736-.038a2.593,2.593,0,0,1,.588.02,2.606,2.606,0,0,1-.587.081l-1.729.136-2.824.19c-1.118.087-2.391.37-3.839.584a55.031,55.031,0,0,0-44,40.816c-.212.892-.487,1.778-.651,2.692q-.206,1.381-.417,2.781a38,38,0,0,0-.513,5.71,49.322,49.322,0,0,0,.784,11.873,54.516,54.516,0,0,0,10.184,23.123l.175.231-.077.281q-2.736,10.026-5.646,20.7l-.818-.73,19.341-7.788.3-.123.274.181a54.635,54.635,0,0,0,18.572,7.807,55.34,55.34,0,0,0,9.327,1.18,41.425,41.425,0,0,0,4.658-.083,34.09,34.09,0,0,0,4.608-.389,51.544,51.544,0,0,0,17.28-5.285,57.1,57.1,0,0,0,14.2-10.161,58.307,58.307,0,0,0,9.882-13.529,54.583,54.583,0,0,0,5.2-15.072q.3-1.925.59-3.82c.189-1.265.167-2.541.26-3.8a53.832,53.832,0,0,0-9-32.784,55.835,55.835,0,0,0-15.833-15.671,52.7,52.7,0,0,0-15.4-6.943l-3.189-.849-2.86-.469-2.454-.406c-.753-.083-1.442-.1-2.054-.151l-2.794-.2A5.34,5.34,0,0,1,493.967,25.379Z" transform="translate(-438.257 -25.358)"/></g><g transform="translate(259.251 63.018)"><g transform="translate(200.962 306.866)"><path class="h" d="M439.459,358.5l4.868,4.867a2.9,2.9,0,0,0,1.991.825,2.864,2.864,0,0,0,1.992-.825,2.829,2.829,0,0,0,.825-1.992,2.926,2.926,0,0,0-.825-1.991q-2.433-2.433-4.867-4.867a2.9,2.9,0,0,0-1.992-.826,2.869,2.869,0,0,0-1.992.826,2.831,2.831,0,0,0-.825,1.991,2.939,2.939,0,0,0,.825,1.992Z" transform="translate(-438.632 -353.693)"/></g><g transform="translate(208.552 238.033)"><path class="d" d="M456.269,292.886a50.854,50.854,0,0,1-10.9,0,50.66,50.66,0,0,1,10.9,0Z" transform="translate(-445.369 -292.592)"/></g><g transform="translate(11.185)"><g transform="translate(193.324 82.559)"><path class="i" d="M494.808,184.8c-1.932-5.846,1.556-26.806-3.036-26.846-5.852-.051-4.169,23.7-4.182,25.82-.012,2.063-3.082,2.1-2.967.185.162-2.751,1.078-29.849-4.78-29.374-3.248.264-2.839,6.18-2.839,6.18s1.817,27.1-.958,27.232c-2.817.135-3.76-15.677-3.989-21.239-.22-5.334-2.465-7.452-4.914-5.663-2.616,1.911-1.966,17.839-1.831,23.184s.768,20.01-5.418,12.881-13.565-10.341-16.13-9.838-2.7,4.28-.056,5.51c2.142.995,5.223,3.746,7.457,5.908a33.681,33.681,0,0,1,4.548,6.125,29.4,29.4,0,0,1,3.727,8.984,18.286,18.286,0,0,0,9.226,11.816h0l-.292,9.93,28.566-2.483.548-18.79c.291-14.36,2.8-24.02,4.319-32.562,2.415-13.622.66-14.041-.973-13.964C497.229,167.974,496.695,190.507,494.808,184.8Z" transform="translate(-441.781 -154.583)"/><g transform="translate(30.304 48.603)"><path class="j" d="M491.4,197.78a30.728,30.728,0,0,0-3.925.977,15.167,15.167,0,0,0-7.413,5.934,14.668,14.668,0,0,0-1.312,2.633l-.17.435-.349-.293a23.6,23.6,0,0,0-6.621-3.887c-1.8-.7-2.952-.942-2.931-1.035a9.553,9.553,0,0,1,3.073.635,21.261,21.261,0,0,1,6.9,3.781l-.519.142a14.5,14.5,0,0,1,1.364-2.774,15,15,0,0,1,3.805-4,14.733,14.733,0,0,1,4.02-2.024,12.824,12.824,0,0,1,2.971-.575A3.419,3.419,0,0,1,491.4,197.78Z" transform="translate(-468.681 -197.726)"/></g><g transform="translate(34.918 68.713)"><path class="j" d="M486.912,215.6c.069.154-2.949,1.449-6.936,1.934-3.985.51-7.228,0-7.2-.169.016-.2,3.22,0,7.116-.5C483.791,216.395,486.848,215.409,486.912,215.6Z" transform="translate(-472.776 -215.577)"/></g></g><g transform="translate(0 129.958)"><path class="k" d="M417.278,216.357s14.885,7.6,22.719,18.559,31.472,44.905,31.472,44.905l-3.34-51.529,36.521-4.731s10.63,51.9,13.113,69.845c2.324,16.8,1.353,33.321-15.046,42.334-19.355,10.639-41.334-3.725-48.641-9.178-9.079-6.776-25.842-17.815-25.842-17.815Z" transform="translate(-251.557 -194.164)"/><g transform="translate(0.583 0.297)"><g transform="translate(84.914 0.333)"><path class="f" d="M407.941,212.354l-10.418-11.643-45.553-3.495-5.9,9.543,15.967,99.64-7.19,100.638h59.35Z" transform="translate(-346.066 -197.216)"/><g class="l" transform="translate(10.294 179.501)"><path d="M356.44,362.938c1.566-1.672,4.134-3.972,6.425-4.023,16.4-.362,33.146-2,49.543-2.361l.629,30.32-7.984-3.733c-.452-3.444-1.03-7.559-4.174-9.034-1.778-.835-3.861-.508-5.788-.126-5.923,1.17-11.806,2.7-17.832,3.075s-12.332-.5-17.394-3.8a10.619,10.619,0,0,1-4.16-4.494A5.505,5.505,0,0,1,356.44,362.938Z" transform="translate(-355.203 -356.554)"/></g></g><g transform="translate(136.372 3.827)"><path class="k" d="M391.743,200.318,420.921,219.2l6.163,20.256,5.909,63.147-6.506,64.637,11.243,39.4H408.413l-.06-15.546L405.23,281.669l-3.069-69.708Z" transform="translate(-391.743 -200.318)"/><g transform="translate(15.191 11.292)"><path class="c" d="M405.744,295.489a5.84,5.84,0,0,0,.486-.815l1.3-2.4c.541-1.053,1.065-2.405,1.743-3.945.322-.777.585-1.638.908-2.536s.661-1.849.923-2.875c2.459-8.108,4.086-19.82,3.744-32.736-.034-1-.072-1.991-.141-2.975l-.011-.171-.16-.066-4.572-1.922.065.473,4.566-3.668.095-.077.006-.113a39.763,39.763,0,0,0-2.081-13.06c-1.149-3.822-2.409-7.114-3.509-9.82s-2.066-4.82-2.753-6.258c-.344-.719-.614-1.27-.807-1.638a2.992,2.992,0,0,0-.314-.549,3.7,3.7,0,0,0,.23.589l.727,1.672c.634,1.459,1.544,3.594,2.6,6.31s2.271,6.013,3.381,9.823a39.908,39.908,0,0,1,1.985,12.888l.1-.189-4.575,3.656-.365.292.43.181,4.569,1.928-.171-.238c.065.967.1,1.956.137,2.949.34,12.857-1.216,24.519-3.562,32.609-.248,1.025-.583,1.97-.88,2.872s-.557,1.759-.862,2.537c-.648,1.541-1.139,2.9-1.647,3.963l-1.2,2.436A6.087,6.087,0,0,0,405.744,295.489Z" transform="translate(-405.228 -210.342)"/></g><g transform="translate(36.036 51.289)"><path class="c" d="M423.9,332.109a5.407,5.407,0,0,0,.252-.849q.23-.921.616-2.464c.27-1.069.58-2.383.882-3.92s.7-3.277,1.01-5.226c.342-1.942.705-4.073,1-6.374.349-2.294.588-4.762.865-7.356.469-5.2.784-10.927.79-16.95-.027-6.025-.364-11.757-.853-16.952-.287-2.592-.535-5.059-.892-7.353-.3-2.3-.674-4.43-1.023-6.371-.315-1.948-.715-3.687-1.03-5.222s-.623-2.849-.9-3.917q-.392-1.543-.625-2.46a5.224,5.224,0,0,0-.256-.848,5.22,5.22,0,0,0,.144.875q.2.928.523,2.482c.241,1.075.524,2.392.8,3.932s.656,3.279.946,5.227c.323,1.941.671,4.068.952,6.366.337,2.289.567,4.752.839,7.338.459,5.183.778,10.9.806,16.9-.006,6-.3,11.718-.742,16.9-.264,2.588-.483,5.051-.811,7.342-.273,2.3-.613,4.427-.928,6.369-.284,1.949-.648,3.692-.927,5.231s-.55,2.859-.786,3.934q-.321,1.558-.514,2.485A5.225,5.225,0,0,0,423.9,332.109Z" transform="translate(-423.732 -245.846)"/></g><g transform="translate(29.131 190.405)"><path class="c" d="M417.608,369.336a11.871,11.871,0,0,0,1.268,2.628,42.883,42.883,0,0,0,8.9,10.861,11.846,11.846,0,0,0,2.326,1.761,20.233,20.233,0,0,0-2.057-2.054,59.6,59.6,0,0,1-8.826-10.775A20.092,20.092,0,0,0,417.608,369.336Z" transform="translate(-417.602 -369.335)"/></g></g><g class="l" transform="translate(85.282 18.319)"><path d="M412.055,336.22c-3.087-1.609-6.863-.769-10.108.487s-6.478,2.923-9.958,2.891c-4.724-.044-11.427-1.765-13.9-5.79a53.852,53.852,0,0,1-5.984-14.786c-3.765-17.322-4.618-32.513-8.383-49.836-2.049-9.428-4.648-20.336-8.147-29.327-3.388-8.707-6.525-17.719-9.185-26.675.466,20.318.94,40.709,4.079,60.79,2.02,12.912,5.135,25.646,6.831,38.6,1.453,11.1,1.859,22.3,2.263,33.491l10.56,12.909,29.1.591,15.2-19.6Z" transform="translate(-346.392 -213.182)"/></g><g transform="translate(0 19.356)"><path class="k" d="M316.173,215.784a35.94,35.94,0,0,0-22.083,25.569c-8.541,37.667-23.164,87.769-23.394,103.933-.292,20.588,8.71,34.68,20.461,37.279,9.293,2.055,93.529-2.556,93.529-2.556l3.98-35.15-68.254-6.276,9.341-52.192L320.51,214.1Z" transform="translate(-270.69 -214.103)"/></g><g transform="translate(39.357)"><path class="k" d="M316.089,216.277l18.859-7.707,21.558-11.65.2.625h0c-2.433,4.169-5.02,11.863-4.111,16.6l16.546,86.318-3.754,63.064-5.424,43.542H305.626L325.334,360.7l-9.7-87.094Z" transform="translate(-305.626 -196.921)"/></g><g transform="translate(49.804 86.37)"><path class="c" d="M324.707,273.589a2.506,2.506,0,0,0-.146.58c-.088.444-.2,1-.329,1.671-.281,1.535-.662,3.622-1.129,6.166-.92,5.286-2.169,12.453-3.549,20.371-1.321,7.932-2.518,15.108-3.4,20.4-.4,2.555-.727,4.65-.968,6.193l-.235,1.689a2.388,2.388,0,0,0-.044.595,2.407,2.407,0,0,0,.157-.576c.09-.444.2-1,.339-1.671l1.145-6.162c.943-5.208,2.206-12.41,3.563-20.374s2.553-15.172,3.385-20.4c.393-2.556.715-4.654.953-6.2.09-.683.164-1.243.224-1.692A2.326,2.326,0,0,0,324.707,273.589Z" transform="translate(-314.899 -273.589)"/></g><g transform="translate(77.15 6.079)"><path class="c" d="M341.914,202.317a.691.691,0,0,0-.077.21c-.047.171-.1.377-.175.631-.137.559-.381,1.376-.6,2.455a76.862,76.862,0,0,0-1.44,9.29,105.288,105.288,0,0,0-.358,14.172c.185,5.387.756,11.348,1.568,17.66l.026.2.2.037,6.166,1.143-.211-.38c-.35.946-.716,1.965-1,3.018-2.005,7.323-1.124,14.728.7,20.924a65.957,65.957,0,0,0,7.244,15.6c2.573,4.175,4.9,7.387,6.5,9.607l1.87,2.537.5.651a1.032,1.032,0,0,0,.186.21,1.043,1.043,0,0,0-.14-.243l-.454-.683c-.433-.631-1.029-1.5-1.783-2.6-1.543-2.259-3.819-5.5-6.338-9.688a67.008,67.008,0,0,1-7.086-15.544c-1.784-6.14-2.628-13.446-.659-20.628.276-1.034.634-2.032.977-2.962l.118-.32-.329-.061-6.168-1.136.225.238c-.823-6.3-1.415-12.241-1.631-17.608a109.741,109.741,0,0,1,.233-14.12,86.621,86.621,0,0,1,1.271-9.283c.191-1.081.4-1.9.509-2.471.051-.257.091-.467.125-.642A.78.78,0,0,0,341.914,202.317Z" transform="translate(-339.174 -202.317)"/></g><g transform="translate(79.889 78.066)"><path class="f" d="M341.607,282.769V269s-.178-3.4,2.683-2.682,2.324,6.08,2.324,6.08.537,20.923-.715,20.745-1.731-1.789-1.731-1.789v-8.047Z" transform="translate(-341.605 -266.218)"/></g><g transform="translate(67.989 95.193)"><path class="c" d="M331.042,281.7a48.568,48.568,0,0,0,7.377.282,48.577,48.577,0,0,0,7.378-.282,48.3,48.3,0,0,0-7.378-.283A48.291,48.291,0,0,0,331.042,281.7Z" transform="translate(-331.042 -281.421)"/></g><g transform="translate(40.74 29.2)"><path class="c" d="M306.854,222.847a10.371,10.371,0,0,0,1.543.571,35.871,35.871,0,0,1,4.092,1.771,31.811,31.811,0,0,1,11.068,9.431,23.507,23.507,0,0,1,2.177,3.544,22.557,22.557,0,0,1,1.309,3.647,36.6,36.6,0,0,1,1.1,6.508c.16,1.879.192,3.409.2,4.465a13.213,13.213,0,0,0,.038,1.646,7.09,7.09,0,0,0,.181-1.64,41.2,41.2,0,0,0-.026-4.5,34.192,34.192,0,0,0-.994-6.612,22.33,22.33,0,0,0-1.311-3.749,23.353,23.353,0,0,0-2.22-3.641,30.67,30.67,0,0,0-11.347-9.456,28.6,28.6,0,0,0-4.2-1.623A8.341,8.341,0,0,0,306.854,222.847Z" transform="translate(-306.854 -222.841)"/></g></g><g transform="translate(33.848 144.252)"><path class="c" d="M380.951,366.012a3.758,3.758,0,0,1,.03-.662c.044-.474.1-1.111.176-1.916.177-1.718.427-4.156.742-7.22.679-6.235,1.637-15.014,2.767-25.382l.242.3-25.351-2.148-42.841-3.772a22.3,22.3,0,0,0-12.514,2.469,24.77,24.77,0,0,0-2.991,1.868l-.731.558a1.3,1.3,0,0,1-.261.177,16.911,16.911,0,0,1,3.875-2.8,22.19,22.19,0,0,1,12.658-2.681l42.859,3.6,25.342,2.2.274.024-.032.272c-1.217,10.36-2.246,19.129-2.979,25.359-.379,3.057-.679,5.489-.891,7.2-.108.8-.194,1.434-.258,1.906A3.835,3.835,0,0,1,380.951,366.012Z" transform="translate(-300.219 -324.705)"/></g><g transform="translate(95.721 148.795)"><path class="c" d="M355.67,366.438a7.368,7.368,0,0,1-.2-1.484c-.1-.959-.187-2.35-.255-4.07a108.292,108.292,0,0,1,2.371-26.759c.37-1.682.7-3.035.967-3.962a7.332,7.332,0,0,1,.46-1.425,7.311,7.311,0,0,1-.238,1.478c-.207,1.057-.469,2.4-.782,3.991-.635,3.374-1.376,8.06-1.842,13.276s-.553,9.959-.522,13.39c.027,1.628.05,2.991.068,4.067A7.243,7.243,0,0,1,355.67,366.438Z" transform="translate(-355.141 -328.738)"/></g><g transform="translate(102.968 175.332)"><path class="c" d="M364.518,352.437a1.476,1.476,0,0,1,.837-.143,3.806,3.806,0,0,1,2.19.782,3.61,3.61,0,0,1,1.489,3.108,3.97,3.97,0,0,1-2.412,3.446,3.9,3.9,0,0,1-4.093-.967,3.411,3.411,0,0,1-.816-3.342,3.553,3.553,0,0,1,1.3-1.931c.455-.321.765-.379.774-.351.021.046-.25.176-.629.528a3.6,3.6,0,0,0-1.043,1.854,3.017,3.017,0,0,0,.8,2.863,3.411,3.411,0,0,0,3.5.8,3.479,3.479,0,0,0,2.084-2.934,3.223,3.223,0,0,0-1.207-2.748,3.931,3.931,0,0,0-1.952-.88A5.969,5.969,0,0,1,364.518,352.437Z" transform="translate(-361.574 -352.294)"/></g><path class="c" d="M361.234,196.657s-.117.08-.358.22l-1.079.615-4.225,2.361-16.062,8.886-.007,0-.009,0-27.063,11.335A29.006,29.006,0,0,0,298.81,231.34a38.553,38.553,0,0,0-4.3,8.7,45.188,45.188,0,0,0-2.34,9.887l0,.024,0,.015c-5,21.409-10.686,45.978-16.187,72.081q-1.771,8.424-3.345,16.662c-.272,1.37-.5,2.741-.749,4.105s-.507,2.723-.676,4.077a44.225,44.225,0,0,0-.415,8.113,40.729,40.729,0,0,0,3.579,15.3,29.555,29.555,0,0,0,4.029,6.478,23.119,23.119,0,0,0,5.65,4.822,24.052,24.052,0,0,0,13.761,3.374l13.7-.276c8.84-.22,17.074-.478,24.589-.73l35.6-1.3,9.678-.366,2.518-.084c.567-.016.858-.009.858-.009s-.289.034-.856.069l-2.516.142-9.674.477c-8.4.392-20.562.929-35.593,1.488-7.515.279-15.749.561-24.591.8l-13.706.306a24.574,24.574,0,0,1-14.048-3.427,23.657,23.657,0,0,1-5.79-4.929,30.139,30.139,0,0,1-4.116-6.6,41.216,41.216,0,0,1-3.644-15.518,44.639,44.639,0,0,1,.413-8.216c.171-1.378.438-2.731.677-4.1s.478-2.741.749-4.112q1.563-8.241,3.345-16.673c5.5-26.114,11.206-50.678,16.249-72.082l-.006.037a45.605,45.605,0,0,1,2.386-10.01,39.014,39.014,0,0,1,4.374-8.8,29.425,29.425,0,0,1,13.858-11.389l27.114-11.222-.016.007,16.131-8.759,4.264-2.291,1.1-.578C361.1,196.713,361.234,196.657,361.234,196.657Z" transform="translate(-270.173 -196.657)"/><rect class="c" width="25.751" height="8.029" transform="translate(159.835 90.516)"/></g><g transform="translate(109.599 230.209)"><g transform="translate(0 3.897)"><path class="c" d="M538.688,290.247l-85.681,91.391-83.566.514-1.98-3.8,82.368-89.25Z" transform="translate(-367.46 -289.106)"/></g><path class="b" d="M450.348,289.48s5.567-.038,7.214,1.941c1.935,2.323,5.619,7.543-2.449,20.858-3.225,5.32-19.029,23.695-25.53,42.437-6.078,17.522-3.3,23.317-3.3,23.317l60.295-1.88,1.175-2.179s26.215-71.022,19.267-84.494C503.82,283.282,449.921,287.206,450.348,289.48Z" transform="translate(-360.097 -285.584)"/><g transform="translate(71.433)"><path class="h" d="M495.918,374.355l-64.865.54c-.773-16.432,4.927-28.353,13.41-42.448,3.249-5.4,7.682-10.014,10.917-15.421a41.656,41.656,0,0,0,5.806-18.751c.161-2.634,0-5.486-1.62-7.567s-7.4-2.2-9.894-1.178a18.89,18.89,0,0,1,9.546-3.52c5.244-.437,48.115-.143,56.1-.084a25.6,25.6,0,0,1,5.689.924c5.811,3.013,7.006,10.931,6.185,16.628-.78,5.406-4.125,10.495-8.331,16.19a54.231,54.231,0,0,0-3.342,5.094c-4.428,7.674-16.65,29.187-18.847,36.611A34.044,34.044,0,0,0,495.918,374.355Z" transform="translate(-430.854 -285.631)"/><path class="c" d="M495.933,374.23l-15.622.13-29.832.249-12.52.1-4.2.034a9.993,9.993,0,0,1-2.341.02c-.06-.016-.311.048-.354,0-.01-.01.09-1.2.087-1.341q-.02-.848-.016-1.7.005-1.656.1-3.308a56.354,56.354,0,0,1,2.189-12.464c2.4-8.182,6.54-15.725,10.909-23,2.4-3.995,5.371-7.565,8.121-11.313a46.935,46.935,0,0,0,6.374-11.486,40.317,40.317,0,0,0,2.545-12.756c.077-2.8-.33-6.626-3.269-7.879a11.228,11.228,0,0,0-4.225-.747c-.964-.012-3.184-.116-4,.54-.232.186-.108.25.059.207a1.911,1.911,0,0,0,.383-.269c.44-.3.9-.571,1.367-.825a19.436,19.436,0,0,1,5.009-1.877c3.492-.784,7.277-.554,10.833-.585,11.117-.1,22.237-.036,33.354.02q6.418.032,12.834.078a30.393,30.393,0,0,1,6.013.576c3.4.709,5.614,4.119,6.617,7.219a21.283,21.283,0,0,1,.57,10.441c-.855,4.407-3.277,8.354-5.8,12-2.277,3.292-4.61,6.467-6.6,9.944q-2.077,3.62-4.114,7.259c-3.257,5.821-6.462,11.678-9.431,17.651-2.554,5.134-5.027,10.205-5.416,16.02a33.557,33.557,0,0,0,.238,7.234c.027.179.3.1.271-.074a31.066,31.066,0,0,1,2.418-17.252c2.544-5.8,5.566-11.4,8.592-16.966q4.135-7.6,8.471-15.093c4.205-7.265,10.967-13.6,11.9-22.353.58-5.461-.68-13.468-6.422-15.958a16.944,16.944,0,0,0-6.205-.917q-2.34-.02-4.681-.032-16.381-.106-32.764-.115c-4.707,0-9.415.009-14.121.095-4.278.078-8.363.495-12.168,2.708a12.4,12.4,0,0,0-1.5.994c-.108.087.009.284.136.235a12.266,12.266,0,0,1,7.717-.1c3.413,1.116,3.78,5.18,3.643,8.272a41.493,41.493,0,0,1-6.869,20.8c-2.007,3.052-4.328,5.878-6.5,8.808a90.057,90.057,0,0,0-5.6,8.725,97.369,97.369,0,0,0-8.162,17.2,58.689,58.689,0,0,0-3.026,21.519.142.142,0,0,0,.141.141l21.919-.182,34.933-.291,8.013-.066A.141.141,0,0,0,495.933,374.23Z" transform="translate(-430.869 -285.647)"/><g transform="translate(10.134 74.886)"><path class="c" d="M490.961,352.414c0,.162-11.439.294-25.548.294s-25.549-.132-25.549-.294,11.437-.293,25.549-.293S490.961,352.253,490.961,352.414Z" transform="translate(-439.864 -352.121)"/></g><g transform="translate(11.564 66.343)"><path class="c" d="M492.232,344.831c0,.162-11.44.294-25.548.294s-25.55-.132-25.55-.294,11.438-.293,25.55-.293S492.232,344.67,492.232,344.831Z" transform="translate(-441.134 -344.538)"/></g><g transform="translate(18.432 57.172)"><path class="c" d="M498.327,336.69c0,.162-11.439.294-25.547.294s-25.55-.132-25.55-.294,11.437-.293,25.55-.293S498.327,336.529,498.327,336.69Z" transform="translate(-447.23 -336.397)"/></g><g transform="translate(22.661 48.794)"><path class="c" d="M502.082,329.254c0,.161-11.44.293-25.548.293s-25.55-.132-25.55-.293,11.438-.294,25.55-.294S502.082,329.092,502.082,329.254Z" transform="translate(-450.984 -328.96)"/></g><g transform="translate(25.481 41.131)"><path class="c" d="M504.585,322.452c0,.161-11.44.293-25.548.293s-25.55-.132-25.55-.293,11.437-.294,25.55-.294S504.585,322.29,504.585,322.452Z" transform="translate(-453.487 -322.158)"/></g><g transform="translate(32.372 31.065)"><path class="c" d="M510.7,313.515c0,.162-11.439.293-25.547.293s-25.55-.131-25.55-.293,11.437-.293,25.55-.293S510.7,313.353,510.7,313.515Z" transform="translate(-459.604 -313.222)"/></g><g transform="translate(38.951 21.43)"><path class="c" d="M516.541,304.963c0,.162-11.439.294-25.547.294s-25.55-.132-25.55-.294,11.437-.293,25.55-.293S516.541,304.8,516.541,304.963Z" transform="translate(-465.444 -304.67)"/></g><g transform="translate(38.481 12.267)"><path class="c" d="M516.124,296.829c0,.162-11.439.293-25.547.293s-25.55-.131-25.55-.293,11.437-.293,25.55-.293S516.124,296.667,516.124,296.829Z" transform="translate(-465.027 -296.536)"/></g></g><g transform="translate(1.98 3.896)"><path class="d" d="M449.606,289.106a2.179,2.179,0,0,1,.355.252l1.007.8,3.882,3.16.1.085-.092.1c-6.979,7.626-22.092,23.927-39.63,42.73-12.108,13.264-23.763,24.625-32.2,32.819-4.223,4.095-7.666,7.382-10.057,9.641l-2.767,2.588-.73.661a1.442,1.442,0,0,1-.264.211,1.537,1.537,0,0,1,.222-.253l.691-.7,2.689-2.667,9.926-9.774c8.363-8.274,19.951-19.661,32.058-32.922,17.537-18.8,32.749-35.012,39.871-42.5l.011.186-3.8-3.255-.965-.848A2.028,2.028,0,0,1,449.606,289.106Z" transform="translate(-369.218 -289.105)"/></g><g transform="translate(5.464 44.01)"><path class="i" d="M375.727,334.9l12.226-.006s8.27-7.205,10.15-7.768c3.932-1.174,14.091-2.413,14.091-2.413l-6.938,7.519h0c-1.6,1.737-4.56,3.3-2.806,3.3h12.72s13.017-6.246,14.951-5.1c1.624.959,2.19,2.689.527,5.1s-13.067,8.115-14.383,8.553l-3.728,1.1,3.509,1.1,16.588-5.8c1.077-.193,2.564-.371,3.05.253a2.216,2.216,0,0,1-.087,3.207,70.159,70.159,0,0,1-7.506,5.9s2.649,3.891.455,5.865-8.553,7.895-8.553,7.895-.658,3.289-2.632,4.825-23.686,1.534-25.221,1.534-10.307-5.044-10.307-5.044l-9.525-.7Z" transform="translate(-372.31 -324.713)"/><g transform="translate(41.241 25.122)"><path class="j" d="M408.918,353.3a6.757,6.757,0,0,0,2.375.32,7.261,7.261,0,0,0,2.6-.455,14.6,14.6,0,0,0,2.827-1.505c1.88-1.222,3.562-2.353,4.768-3.193a10.979,10.979,0,0,0,1.893-1.448,11.147,11.147,0,0,0-2.089,1.147c-1.255.762-2.971,1.846-4.848,3.066a16.21,16.21,0,0,1-2.717,1.495,7.614,7.614,0,0,1-2.439.533C409.84,353.324,408.925,353.212,408.918,353.3Z" transform="translate(-408.918 -347.013)"/></g><g transform="translate(40.242 35.586)"><path class="j" d="M408.034,360.247a2.663,2.663,0,0,0,1.649.924,6.113,6.113,0,0,0,4.476-.751,18.423,18.423,0,0,0,3.634-2.7,5.659,5.659,0,0,0,1.237-1.407,59.988,59.988,0,0,1-5.116,3.666,6.286,6.286,0,0,1-4.158.846A10.142,10.142,0,0,1,408.034,360.247Z" transform="translate(-408.032 -356.302)"/></g><g transform="translate(34.096 20.149)"><path class="j" d="M402.576,344.011a13.7,13.7,0,0,0,6.7-1.383,78.112,78.112,0,0,0-6.7,1.383Z" transform="translate(-402.576 -342.599)"/></g></g></g><g transform="translate(23.617)"><g transform="translate(0 32.313)"><path class="c" d="M333.684,128.693a24.715,24.715,0,0,0-33.946-9.279c-4.862,2.819-8.9,7.909-8.578,13.521.306,5.289,4.248,9.559,7.961,13.338-5.915,2.465-8.881,9.965-6.947,16.076s8.042,10.415,14.424,11.006,12.807-2.188,17.411-6.645,7.515-10.448,9.107-16.656" transform="translate(-291.136 -109.206)"/><g transform="translate(2.094)"><path class="c" d="M313.214,143.122a10.357,10.357,0,0,1-3.246.819,15.208,15.208,0,0,1-8.876-1.848,15.514,15.514,0,0,1-4.862-4.062,15.034,15.034,0,0,1-2.955-6.642,18.028,18.028,0,0,1,4.647-15.524A20.184,20.184,0,0,1,313.133,110a18.506,18.506,0,0,1,12.368,5.1,12.376,12.376,0,0,1,3.652,8.247,9.592,9.592,0,0,1-.243,2.48,5.933,5.933,0,0,1-.177.623c-.046.139-.074.207-.084.205a13.907,13.907,0,0,0,.276-3.3,12.33,12.33,0,0,0-3.716-7.965,18.215,18.215,0,0,0-12.1-4.853,19.749,19.749,0,0,0-14.768,5.732,17.571,17.571,0,0,0-4.538,15.02,14.629,14.629,0,0,0,2.807,6.439,15.76,15.76,0,0,0,13.333,5.982A23.7,23.7,0,0,0,313.214,143.122Z" transform="translate(-292.996 -109.98)"/></g><g transform="translate(7.672 36.384)"><path class="d" d="M319.857,143.943c.019.035-.253.212-.768.5a14.1,14.1,0,0,1-2.283,1.018,19.183,19.183,0,0,1-3.607.9,20.452,20.452,0,0,1-9.033-.684,19.139,19.139,0,0,1-3.43-1.435,14.061,14.061,0,0,1-2.1-1.351c-.464-.365-.707-.581-.683-.614.063-.088,1.105.7,2.974,1.594a21.939,21.939,0,0,0,3.4,1.288,21.883,21.883,0,0,0,8.806.666,21.818,21.818,0,0,0,3.551-.76C318.66,144.462,319.807,143.846,319.857,143.943Z" transform="translate(-297.947 -142.277)"/></g><g transform="translate(0 18.281)"><path class="d" d="M291.142,132.593a4.652,4.652,0,0,1,.454-1.352,7.679,7.679,0,0,1,2.388-3.086,11.266,11.266,0,0,1,5.483-1.843,27.473,27.473,0,0,1,7.058.332,37.277,37.277,0,0,1,12.068,4.164,33.348,33.348,0,0,1,3.274,2.077,6.21,6.21,0,0,1,1.1.906,7.189,7.189,0,0,1-1.225-.716c-.776-.474-1.9-1.158-3.341-1.9a40.337,40.337,0,0,0-11.965-3.95,28.368,28.368,0,0,0-6.911-.374,11.194,11.194,0,0,0-5.294,1.641,8.024,8.024,0,0,0-2.425,2.849A11.206,11.206,0,0,1,291.142,132.593Z" transform="translate(-291.137 -126.208)"/></g><g transform="translate(2.718 45.811)"><path class="d" d="M325.244,152.1c.017.01-.041.141-.167.38s-.328.585-.607,1.017a18.259,18.259,0,0,1-2.839,3.309,19.066,19.066,0,0,1-13.206,5.066,18.7,18.7,0,0,1-7.745-1.7,14.326,14.326,0,0,1-5.1-3.995,9.519,9.519,0,0,1-1.887-3.936,6.075,6.075,0,0,1-.141-1.182c-.008-.271,0-.413.018-.415.068-.006.073.568.345,1.542a9.986,9.986,0,0,0,1.988,3.731,14.378,14.378,0,0,0,5.005,3.765,18.687,18.687,0,0,0,7.522,1.6,19.338,19.338,0,0,0,7.559-1.452,19.8,19.8,0,0,0,5.365-3.337A28.016,28.016,0,0,0,325.244,152.1Z" transform="translate(-293.549 -150.645)"/></g><g transform="translate(0.736 48.423)"><path class="d" d="M327.611,157.671a9.876,9.876,0,0,1-1.231,1.5c-.836.925-2.083,2.234-3.727,3.748-.821.757-1.75,1.557-2.784,2.373a19.538,19.538,0,0,1-3.534,2.314,19.174,19.174,0,0,1-9.439,1.835,16,16,0,0,1-9.074-3.134,16.438,16.438,0,0,1-4.771-6.249A14.423,14.423,0,0,1,291.8,154.9a8.2,8.2,0,0,1,.035-1.443,1.653,1.653,0,0,1,.078-.5,1.641,1.641,0,0,1,.041.5,11.816,11.816,0,0,0,.074,1.422,15.344,15.344,0,0,0,1.4,5,16.431,16.431,0,0,0,4.725,5.992,15.684,15.684,0,0,0,8.775,2.975,18.978,18.978,0,0,0,9.17-1.736,19.554,19.554,0,0,0,3.473-2.213c1.034-.79,1.97-1.564,2.8-2.3,1.668-1.463,2.955-2.722,3.839-3.6A16,16,0,0,1,327.611,157.671Z" transform="translate(-291.79 -152.964)"/></g></g><g transform="translate(30.647 48.125)"><path class="f" d="M333.726,127.022l1.646,1.293c-.665-2.8-3.792-4.568-6.656-4.265a9.666,9.666,0,0,0-6.863,4.74,23.289,23.289,0,0,0-2.754,8.131c-.884,4.725-1.321,9.773.56,14.194s6.74,7.9,11.4,6.734c4.641-1.156,7.244-6.208,7.933-10.942A26.534,26.534,0,0,0,333.726,127.022Z" transform="translate(-318.341 -124.016)"/><g transform="translate(0.293 23.725)"><path class="c" d="M327.239,145.774a7.093,7.093,0,0,1-4.457.969,9.422,9.422,0,0,1-3.188-.7c-.829-.331-1.069-.946-.973-.962a3.946,3.946,0,0,0,1.119.573,13.81,13.81,0,0,0,3.071.506A31.242,31.242,0,0,0,327.239,145.774Z" transform="translate(-318.601 -145.076)"/></g><g transform="translate(0.428 15.564)"><path class="c" d="M329.511,138.341a49.858,49.858,0,0,1-10.79-.34,49.86,49.86,0,0,1,10.79.34Z" transform="translate(-318.721 -137.832)"/></g><g transform="translate(2.265 6.307)"><path class="c" d="M327.5,130.445c-.023.194-1.671-.047-3.629-.224a8.709,8.709,0,0,0-2.475.137c-.621.136-1,.3-1.043.217-.037-.059.278-.358.923-.614a6.137,6.137,0,0,1,2.634-.327A9.542,9.542,0,0,1,327.5,130.445Z" transform="translate(-320.352 -129.615)"/></g></g><g transform="translate(36.031)"><g transform="translate(13.914)"><path class="c" d="M337.037,113.965c-.135-4.72,4.231-8.367,8.625-10.1s9.277-2.38,13.194-5.017c3.469-2.334,5.8-5.975,8.735-8.952a29.064,29.064,0,0,1,48.881,13.335c1.688,6.722.536,14.669-4.763,19.137-6.149,5.183-15.266,4.032-23.146,2.42s-16.8-3.2-23.377,1.424c-3.968,2.79-6.241,7.329-8.667,11.531s-5.469,8.49-10.056,10.069-10.815-1.148-10.993-6" transform="translate(-335.471 -81.297)"/></g><g transform="translate(0 14.163)"><path class="c" d="M338.918,114.965c.52,3.955-2.343,7.5-5.192,10.291s-6.07,5.754-6.573,9.713c-.587,4.623,2.788,9.177,1.809,13.734-.622,2.892-2.872,5.12-4.236,7.746a16.457,16.457,0,0,0-.839,12.128c1.174,3.985,3.046,12.882,5.815,15.978,7.659,8.562,19.853,15.951,31.049,18.523s22.824,2.587,34.29,1.881c9.386-.577,20.181-.145,28-13.059,4.051-6.687,6.057-15.58,8.21-23.1,1.854-6.472,3.457-13.4,1.53-19.854-1.122-3.758-3.384-7.1-4.49-10.863-1.383-4.7-.88-9.729-1.436-14.6a33.491,33.491,0,0,0-47.65-26.445" transform="translate(-323.12 -93.87)"/></g><g transform="translate(5.001 6.639)"><g transform="translate(22.042 16.221)"><path class="m" d="M351.307,207.99l.059.415Z" transform="translate(-346.596 -88.125)"/><path class="i" d="M419.328,130.208c-.879-13.469-9.84-29.979-23.261-28.529l-41.891,10.686a7.9,7.9,0,0,0-7.049,8.027l4.605,98.827a13.23,13.23,0,0,0,1.164,4.866c3.113,6.861,13.449,24.288,35.9,17.231,5.492-1.727,8-7.735,9.089-13.915.01-.735.3-1.38.313-2.081a66.21,66.21,0,0,0,.164-13.878c.078-8.16.07-11.507.074-11.43,0,0,17.2-2.9,20.721-25.36C420.9,163.481,420.3,145.173,419.328,130.208Z" transform="translate(-347.125 -101.59)"/><path class="m" d="M351.359,208.358c.011.078.009.064,0,0Z" transform="translate(-346.59 -88.079)"/></g><g transform="translate(13.413 11.433)"><g transform="translate(29.849 30.776)"><g transform="translate(0 9.15)"><g transform="translate(35.649)"><g transform="translate(2.84 5.479)"><path class="c" d="M405.874,140.24a2.881,2.881,0,0,1-2.771,2.912,2.755,2.755,0,0,1-2.974-2.59,2.881,2.881,0,0,1,2.768-2.913A2.756,2.756,0,0,1,405.874,140.24Z" transform="translate(-400.126 -137.644)"/></g><path class="c" d="M408.989,135.795c-.356.376-2.541-1.234-5.641-1.219-3.1-.029-5.367,1.57-5.7,1.192-.166-.168.2-.846,1.185-1.569a7.9,7.9,0,0,1,4.565-1.418,7.578,7.578,0,0,1,4.49,1.439C408.84,134.947,409.164,135.626,408.989,135.795Z" transform="translate(-397.606 -132.78)"/></g><g transform="translate(5.188 0.646)"><g transform="translate(2.588 4.834)"><path class="c" d="M378.61,140.24a2.88,2.88,0,0,1-2.77,2.912,2.754,2.754,0,0,1-2.974-2.59,2.88,2.88,0,0,1,2.767-2.913A2.756,2.756,0,0,1,378.61,140.24Z" transform="translate(-372.864 -137.644)"/></g><path class="c" d="M381.951,136.368c-.357.376-2.545-1.232-5.642-1.218-3.1-.029-5.367,1.569-5.7,1.191-.166-.168.194-.846,1.186-1.569a7.894,7.894,0,0,1,4.564-1.418,7.6,7.6,0,0,1,4.492,1.439C381.8,135.52,382.124,136.2,381.951,136.368Z" transform="translate(-370.567 -133.353)"/></g><g transform="translate(26.361 0.799)"><path class="c" d="M390.869,159.308c-.015-.177,1.911-.514,5.031-.919.791-.084,1.54-.243,1.672-.783a4.033,4.033,0,0,0-.533-2.344q-1.124-2.869-2.354-6.02c-3.268-8.572-5.636-15.622-5.29-15.75s3.277,6.715,6.546,15.287q1.18,3.17,2.254,6.056a4.58,4.58,0,0,1,.418,3.1,1.985,1.985,0,0,1-1.3,1.16,5.356,5.356,0,0,1-1.343.189C392.83,159.466,390.881,159.484,390.869,159.308Z" transform="translate(-389.361 -133.489)"/></g><g transform="translate(0 55.329)"><path class="j" d="M396.052,189.85a57.13,57.13,0,0,1-30.091-7.956s7.6,15.527,30.066,13.377Z" transform="translate(-365.961 -181.894)"/></g><g transform="translate(17.335 31.993)"><path class="j" d="M390.589,163.275a5.584,5.584,0,0,0-5.011-2.063,5.1,5.1,0,0,0-3.516,1.9,3.231,3.231,0,0,0-.238,3.694,3.748,3.748,0,0,0,4.066,1.018,11.736,11.736,0,0,0,3.955-2.373,3.435,3.435,0,0,0,.883-.918,1.037,1.037,0,0,0-.008-1.154" transform="translate(-381.349 -161.179)"/></g><g transform="translate(18.255 28.781)"><path class="c" d="M382.665,158.328c.5-.03.517,3.333,3.4,5.715s6.464,2,6.491,2.473c.047.212-.8.656-2.311.7a8.369,8.369,0,0,1-5.419-1.873,7.3,7.3,0,0,1-2.637-4.792C382.061,159.144,382.434,158.31,382.665,158.328Z" transform="translate(-382.165 -158.328)"/></g></g><g transform="translate(3.814 5.071)"><path class="c" d="M383.486,131.469c-.3.844-3.4.451-7.033.9-3.644.374-6.573,1.444-7.058.689-.216-.36.293-1.155,1.477-1.973a12.327,12.327,0,0,1,10.735-1.209C382.943,130.409,383.617,131.07,383.486,131.469Z" transform="translate(-369.347 -129.16)"/></g><g transform="translate(35.319)"><path class="c" d="M407.867,127.856c-.544.705-2.68-.02-5.247-.05-2.565-.118-4.739.483-5.242-.251-.22-.357.121-1.063,1.069-1.732a7.6,7.6,0,0,1,8.451.242C407.807,126.788,408.106,127.512,407.867,127.856Z" transform="translate(-397.313 -124.658)"/></g></g><path class="c" d="M339.465,186.782a19.94,19.94,0,0,0,23.722-22.051c-.7-5.514-3.671-11.126-1.76-16.346,2.528-6.9,12.2-9.025,14.77-15.911,1.492-4,.152-8.685,1.844-12.607,1.59-3.689,5.47-5.813,9.248-7.179s7.828-2.308,11-4.773,5.149-7.118,3.1-10.575a212.773,212.773,0,0,0-49.069,11.922c-3.665,1.369-7.514,3.014-9.68,6.271-2.293,3.446-2.183,7.9-1.991,12.035q1.411,30.244,2.823,60.489" transform="translate(-339.465 -97.339)"/></g><path class="d" d="M342.381,195.787a1.406,1.406,0,0,1-.363-.232l-1-.76c-.867-.68-2.144-1.692-3.72-3.081a39.664,39.664,0,0,1-5.279-5.556,20.711,20.711,0,0,1-4.2-9.243,14.06,14.06,0,0,1,2.9-11.816,45.479,45.479,0,0,1,5.233-4.461,12.205,12.205,0,0,0,4.08-5.566c1.661-4.578.92-9.879,1.563-15.3a30.447,30.447,0,0,1,6.366-15.473,21,21,0,0,1,6.659-5.442,41.079,41.079,0,0,1,7.858-2.652,18.291,18.291,0,0,0,6.9-3.4,27.133,27.133,0,0,0,5.006-5.52c2.82-4.006,4.906-8.274,7.593-11.834a25.69,25.69,0,0,1,4.425-4.7,16.874,16.874,0,0,1,5.246-2.857c3.623-1.237,7.45-.828,9.973.994a9.187,9.187,0,0,1,3.542,6.722,6.7,6.7,0,0,1-1.351,4.624,4.187,4.187,0,0,1-.916.878c-.229.171-.348.251-.358.238s.09-.122.293-.315a4.871,4.871,0,0,0,.822-.919,6.658,6.658,0,0,0,1.127-4.478,8.827,8.827,0,0,0-3.481-6.3c-2.369-1.649-5.983-2.005-9.429-.782a16.289,16.289,0,0,0-4.991,2.788,25.091,25.091,0,0,0-4.246,4.593c-2.6,3.5-4.648,7.76-7.507,11.872a27.9,27.9,0,0,1-5.156,5.728,19.224,19.224,0,0,1-7.216,3.591,40.653,40.653,0,0,0-7.682,2.6,20.073,20.073,0,0,0-6.346,5.2,29.6,29.6,0,0,0-6.168,14.965c-.653,5.236.1,10.617-1.668,15.487a13.087,13.087,0,0,1-4.381,5.923,45.648,45.648,0,0,0-5.175,4.338A13.361,13.361,0,0,0,328.51,176.8a20.311,20.311,0,0,0,3.952,9.025,41.342,41.342,0,0,0,5.1,5.6c1.526,1.425,2.761,2.483,3.588,3.212A11.23,11.23,0,0,1,342.381,195.787Z" transform="translate(-327.559 -87.191)"/></g></g><g transform="translate(127.868 22.537)"><path class="c" d="M423.764,158.893a5.42,5.42,0,0,0,1.312-2.152,8.291,8.291,0,0,0-1.283-6.593c-.78-1.25-1.827-2.492-2.888-3.9a13.636,13.636,0,0,1-2.588-5.024,17.7,17.7,0,0,1-.25-6.237c.234-2.147.668-4.328.947-6.568a25.6,25.6,0,0,0-1.468-12.456,27.909,27.909,0,0,0-5.367-8.8,26,26,0,0,0-5.334-4.513c-1.4-.889-2.232-1.29-2.2-1.346a2.888,2.888,0,0,1,.618.259,15.343,15.343,0,0,1,1.7.893,24.289,24.289,0,0,1,5.52,4.425,27.676,27.676,0,0,1,5.566,8.891,25.777,25.777,0,0,1,1.546,12.721c-.284,2.27-.721,4.445-.959,6.559a17.333,17.333,0,0,0,.2,6.044,13.261,13.261,0,0,0,2.454,4.864c1.031,1.4,2.074,2.674,2.85,3.969a8.4,8.4,0,0,1,1.148,6.881,4.363,4.363,0,0,1-1,1.659A2.229,2.229,0,0,1,423.764,158.893Z" transform="translate(-404.641 -101.303)"/></g></g></g><g transform="translate(0 340.81)"><path class="c" d="M646.223,383.824c-213.537,0-385.979.133-385.979.293s172.443.293,385.979.294Z" transform="translate(-260.244 -383.824)"/></g></g><g transform="translate(538.146 337.201)"><rect class="a" width="96.359" height="110.398" transform="translate(0.293 0.293)"/><path class="c" d="M604.463,435.372s-.009-.184-.015-.531-.008-.871-.015-1.54c-.007-1.367-.017-3.367-.03-5.97-.016-5.224-.039-12.853-.069-22.539-.032-19.357-.077-46.923-.131-79.818l.259.259-96.349.034h-.009l.293-.293c-.017,40.708-.033,78.663-.046,110.4l-.247-.248,69.862.127,19.55.064,5.16.029c1.17.009,1.787.027,1.787.027s-.58.018-1.733.027l-5.112.029-19.495.064-70.018.127h-.248v-.248c-.012-31.734-.028-69.689-.045-110.4v-.294h.3l96.349.034h.26v.259c-.053,32.964-.1,60.587-.131,79.986-.029,9.66-.052,17.269-.068,22.48-.013,2.58-.024,4.564-.03,5.918-.007.657-.011,1.159-.015,1.512C604.473,435.208,604.463,435.372,604.463,435.372Z" transform="translate(-507.811 -324.681)"/><g transform="translate(4.303 4.164)"><g transform="translate(10.553 26.424)"><path class="i" d="M526.167,360.583c1.185-1.774,1.953-9.1,3.491-8.688,1.96.524-.793,8.3-.985,9.011-.186.691.836.986.975.336.2-.934,2.393-10.07,4.306-9.371,1.061.388.379,2.325.379,2.325s-3.107,8.886-2.192,9.186,2.7-4.89,3.292-6.727c.566-1.762,1.511-2.262,2.164-1.439.7.88-.989,6.141-1.528,7.914s-2.1,6.614.622,4.8,5.485-2.2,6.3-1.8.509,1.679-.49,1.845a12.285,12.285,0,0,0-3.036,1.285,11.718,11.718,0,0,0-2.084,1.627,10.171,10.171,0,0,0-2.073,2.659,6.341,6.341,0,0,1-4.173,3.1h0l-.819,3.344L521,376.527l1.55-6.328a62.04,62.04,0,0,0,1.561-11.276c.45-4.774,1.075-4.752,1.613-4.575C526.91,354.738,525.011,362.316,526.167,360.583Z" transform="translate(-520.998 -351.833)"/><g transform="translate(3.468 14.906)"><path class="n" d="M524.077,365.068a10.526,10.526,0,0,1,1.221.688,5.258,5.258,0,0,1,1.929,2.667,5.131,5.131,0,0,1,.2,1l.017.161.143-.066a8.183,8.183,0,0,1,2.571-.687c.667-.065,1.072-.043,1.075-.075a3.3,3.3,0,0,0-1.086-.071,7.353,7.353,0,0,0-2.653.626l.16.1a5.022,5.022,0,0,0-.2-1.053,5.2,5.2,0,0,0-.9-1.685,5.1,5.1,0,0,0-1.157-1.048,4.386,4.386,0,0,0-.938-.466A1.212,1.212,0,0,0,524.077,365.068Z" transform="translate(-524.077 -365.065)"/></g><g transform="translate(2.941 21.98)"><path class="n" d="M523.61,371.348a8.474,8.474,0,0,0,4.56,1.894c.013-.069-1.076-.3-2.332-.822S523.65,371.29,523.61,371.348Z" transform="translate(-523.609 -371.345)"/></g></g><g transform="translate(0 45.173)"><path class="o" d="M522.414,418.428a10.134,10.134,0,0,0,5.565-2.347L543,403.376l-.133,14.644-2.976.213.837,10.882h46.517l.018-.258a16.481,16.481,0,0,0,5.246-10.118c1.131-7.245,1.552-19.059,2.564-27.407.711-5.874-.584-13.484-5.81-16.259l-4.044-1.592h0l-12.712-5.006-16.327.751-10.9,3.059c-3.024,1.15-5.632,4.771-7.489,7.442L528.7,392.369c.1-2.063,3.86-14.523,4.107-15.083l-11.122-4.579s-11.46,25.47-9.916,36.472C513.058,418.329,522.414,418.428,522.414,418.428Z" transform="translate(-511.631 -368.476)"/></g><g transform="translate(34.893)"><path class="c" d="M573.913,336.021a11.181,11.181,0,0,1,3.071,11.055l-.024.083a38.261,38.261,0,0,1-6.778,13.241c-.274.347-.706.727-1.1.525a.965.965,0,0,1-.389-.79,32,32,0,0,1,.4-7.786,19.352,19.352,0,0,0-.225-7.76c-.736-2.5-2.593-4.821-5.131-5.412a8.26,8.26,0,0,0-5.565,1c-1.71.885-3.226,2.1-4.861,3.113a10.618,10.618,0,0,1-5.383,1.88,5.042,5.042,0,0,1-4.716-2.727c-.76-1.768.242-4.21,2.138-4.546-1.722-.217-2.627-1.891-2.745-3.624,0,0,.11-2.934,4.363-2.733,0,0,.569-4.412,4.843-2.81,3.838,1.439,4.346,2.576,10.392,1.226,0,0,8.154-1.98,10.647,5.045Z" transform="translate(-542.604 -328.377)"/><g transform="translate(2.928 3.75)"><path class="i" d="M572.565,347.392l-3.771,28.978a8.7,8.7,0,0,1-10.166,7.433h0a8.7,8.7,0,0,1-7.074-9.689c.286-2.181.52-4,.535-4.227,0,0-7.286-1.654-6.87-9.025.2-3.562,1.214-10.864,2.208-17.46a13.75,13.75,0,0,1,14.548-11.663l.71.048C570.317,332.764,573.751,339.79,572.565,347.392Z" transform="translate(-545.203 -331.706)"/><g transform="translate(6.734 36.008)"><path class="n" d="M551.329,365.735a17.166,17.166,0,0,0,9.789-2.066s-2.635,5.144-9.937,3.973Z" transform="translate(-551.18 -363.669)"/></g><g transform="translate(3.14 11.13)"><g transform="translate(0 3.983)"><g transform="translate(0 1.1)"><path class="c" d="M548,347.069c.122.145.959-.389,2.091-.307,1.131.064,1.921.7,2.054.574.064-.057-.052-.314-.394-.6a2.9,2.9,0,0,0-1.633-.63,2.783,2.783,0,0,0-1.675.417C548.079,346.763,547.944,347,548,347.069Z" transform="translate(-547.99 -346.098)"/></g><g transform="translate(10.908 1.728)"><path class="c" d="M557.687,347.625c.122.146.96-.388,2.091-.306,1.131.064,1.921.7,2.054.575.064-.057-.05-.314-.4-.6a2.888,2.888,0,0,0-1.632-.63,2.791,2.791,0,0,0-1.675.416C557.763,347.32,557.627,347.56,557.687,347.625Z" transform="translate(-557.673 -346.655)"/></g><g transform="translate(4.012)"><path class="c" d="M554.38,354.516a7.463,7.463,0,0,0-1.815-.459c-.287-.05-.557-.126-.591-.327a1.472,1.472,0,0,1,.252-.844l1.006-2.142a37.877,37.877,0,0,0,2.317-5.624,38.048,38.048,0,0,0-2.765,5.424q-.509,1.129-.971,2.157a1.682,1.682,0,0,0-.229,1.124.731.731,0,0,0,.446.455,1.97,1.97,0,0,0,.487.1A7.393,7.393,0,0,0,554.38,354.516Z" transform="translate(-551.551 -345.121)"/></g><g transform="translate(6.303 10.408)"><path class="c" d="M557.4,354.36c-.184-.024-.27,1.2-1.382,2s-2.41.573-2.431.745c-.023.077.275.259.827.312a3.063,3.063,0,0,0,2.024-.552,2.673,2.673,0,0,0,1.08-1.686C557.6,354.672,557.484,354.359,557.4,354.36Z" transform="translate(-553.585 -354.36)"/></g></g><g transform="translate(11.538 0.105)"><path class="c" d="M558.235,342.388c.09.314,1.23.247,2.547.5,1.321.225,2.366.687,2.561.424.088-.126-.079-.429-.491-.757a4.517,4.517,0,0,0-3.891-.7C558.46,342.013,558.2,342.238,558.235,342.388Z" transform="translate(-558.232 -341.679)"/></g><g transform="translate(1.119)"><path class="c" d="M549.006,342.628c.181.272.98.059,1.919.11.94.019,1.719.292,1.921.036.089-.125-.018-.391-.349-.658A2.779,2.779,0,0,0,549.4,342C549.054,342.239,548.927,342.5,549.006,342.628Z" transform="translate(-548.983 -341.585)"/></g></g></g><g transform="translate(28.525 24.715)"><path class="i" d="M568.711,350.449c.128-.046,5.163-1.148,4.655,3.875s-5.448,3.478-5.441,3.332S568.711,350.449,568.711,350.449Z" transform="translate(-567.925 -350.316)"/><g transform="translate(1.721 1.71)"><path class="n" d="M569.459,355.717c.024-.015.081.07.222.152a.875.875,0,0,0,.653.08,2.178,2.178,0,0,0,1.2-1.842,2.918,2.918,0,0,0-.118-1.278,1.014,1.014,0,0,0-.59-.738.446.446,0,0,0-.541.187c-.082.134-.06.238-.088.243s-.1-.095-.037-.3a.566.566,0,0,1,.229-.3.669.669,0,0,1,.5-.079,1.239,1.239,0,0,1,.836.872,3,3,0,0,1,.162,1.431,2.284,2.284,0,0,1-1.5,2.04.942.942,0,0,1-.786-.214C569.455,355.839,569.441,355.724,569.459,355.717Z" transform="translate(-569.453 -351.834)"/></g></g><g transform="translate(3.698 2.468)"><path class="c" d="M545.887,341.909a10.663,10.663,0,0,0,9.6-1.476c1.9-1.4,3.429-3.483,5.722-4.02a5.993,5.993,0,0,1,4.532.942,11.583,11.583,0,0,1,3.248,3.426c-1.682,3.644-1.014,7.888-.313,11.84a2,2,0,0,0,.506,1.2,1.6,1.6,0,0,0,2.037-.3,6.233,6.233,0,0,0,1.593-3.188,20.777,20.777,0,0,0,.515-8.171,14.13,14.13,0,0,0-3.384-7.385,13.389,13.389,0,0,0-9.125-4.187,16.439,16.439,0,0,0-9.749,2.745,9.633,9.633,0,0,0-3.338,3.348" transform="translate(-545.887 -330.568)"/></g><g transform="translate(20.933 24.951)"><path class="n" d="M561.276,350.794a.138.138,0,1,0-.086-.164A.131.131,0,0,0,561.276,350.794Z" transform="translate(-561.186 -350.525)"/></g><g transform="translate(18.809 24.274)"><path class="n" d="M559.386,350.23a.161.161,0,1,0-.079-.185A.144.144,0,0,0,559.386,350.23Z" transform="translate(-559.3 -349.924)"/></g><g transform="translate(17.352 24.041)"><path class="n" d="M558.1,350.12c.068.014.141-.066.162-.177s-.016-.212-.083-.224-.141.065-.162.176S558.029,350.107,558.1,350.12Z" transform="translate(-558.007 -349.718)"/></g><g transform="translate(19.747 26.344)"><path class="n" d="M560.252,351.921c.069.006.127-.027.13-.071s-.05-.083-.118-.088-.127.027-.131.071S560.184,351.916,560.252,351.921Z" transform="translate(-560.133 -351.761)"/></g><g transform="translate(17.812 25.624)"><path class="n" d="M558.519,351.4a.134.134,0,0,0,.145-.121.126.126,0,1,0-.247-.038A.132.132,0,0,0,558.519,351.4Z" transform="translate(-558.415 -351.123)"/></g><g transform="translate(7.591 23.686)"><path class="n" d="M549.431,349.679a.135.135,0,0,0,.158-.1.126.126,0,1,0-.241-.066A.136.136,0,0,0,549.431,349.679Z" transform="translate(-549.342 -349.402)"/></g><g transform="translate(6.115 23.414)"><path class="n" d="M548.133,349.473a.162.162,0,1,0-.1-.177A.145.145,0,0,0,548.133,349.473Z" transform="translate(-548.032 -349.161)"/></g><g transform="translate(8.884 23.872)"><path class="n" d="M550.585,349.784a.111.111,0,1,0-.091-.14A.119.119,0,0,0,550.585,349.784Z" transform="translate(-550.49 -349.568)"/></g><g transform="translate(7.723 25.218)"><path class="n" d="M549.521,351.031a.146.146,0,1,0-.043-.186A.136.136,0,0,0,549.521,351.031Z" transform="translate(-549.459 -350.763)"/></g><g transform="translate(6.398 24.939)"><path class="n" d="M548.428,350.725a.107.107,0,1,0-.143-.079A.117.117,0,0,0,548.428,350.725Z" transform="translate(-548.284 -350.514)"/></g></g><g transform="translate(35.959 4.639)"><path class="d" d="M556.889,335.945a4.517,4.517,0,0,1-1.8,1.8,7.54,7.54,0,0,1-10.813-2.8,4.511,4.511,0,0,1-.7-2.443,24.062,24.062,0,0,0,1.062,2.235,7.509,7.509,0,0,0,10.243,2.653A23.832,23.832,0,0,0,556.889,335.945Z" transform="translate(-543.55 -332.495)"/></g><g transform="translate(43.553 4.649)"><path class="d" d="M571.992,337.225a6.094,6.094,0,0,0-2.24-2.555,7.113,7.113,0,0,0-3.52-1.023,17.688,17.688,0,0,0-4.571.543,34.7,34.7,0,0,1-4.65.853,9.3,9.3,0,0,1-3.88-.412,5.924,5.924,0,0,1-2.26-1.35c-.442-.444-.6-.755-.576-.773a7.647,7.647,0,0,0,2.962,1.727,9.473,9.473,0,0,0,3.705.27,40.361,40.361,0,0,0,4.573-.889,16.977,16.977,0,0,1,4.728-.509,7.233,7.233,0,0,1,3.718,1.216,5.083,5.083,0,0,1,1.75,1.974A1.874,1.874,0,0,1,571.992,337.225Z" transform="translate(-550.292 -332.504)"/></g><g transform="translate(61.676 12.596)"><path class="d" d="M572.336,342.431a5.457,5.457,0,0,1-5.941-2.866,10.662,10.662,0,0,0,5.941,2.866Z" transform="translate(-566.379 -339.558)"/></g><g transform="translate(61.493 14.719)"><path class="d" d="M571.737,345.523c-.021.077-.431.051-1.082-.08a7.779,7.779,0,0,1-2.456-.922,4.389,4.389,0,0,1-1.786-1.98c-.266-.65-.211-1.094-.141-1.1.09-.013.185.383.511.911a5.185,5.185,0,0,0,1.72,1.667,13.515,13.515,0,0,0,2.266,1.023C571.381,345.274,571.759,345.443,571.737,345.523Z" transform="translate(-566.216 -341.443)"/></g><g transform="translate(31.266 61.561)"><path class="c" d="M539.5,416.2c-.065,0-.117-7.427-.117-16.587s.052-16.59.117-16.59.117,7.426.117,16.59S539.566,416.2,539.5,416.2Z" transform="translate(-539.385 -383.023)"/></g><g transform="translate(66.194 55.031)"><path class="c" d="M581.892,377.442a19.724,19.724,0,0,0-2.211-.044,10.119,10.119,0,0,0-8.465,5.6,19.368,19.368,0,0,0-.823,2.054,2.477,2.477,0,0,1,.111-.589,8.945,8.945,0,0,1,.562-1.538,9.873,9.873,0,0,1,8.606-5.7,8.853,8.853,0,0,1,1.635.083A2.581,2.581,0,0,1,581.892,377.442Z" transform="translate(-570.389 -377.227)"/></g><g transform="translate(14.537 67.461)"><path class="c" d="M526.992,388.26a4.842,4.842,0,0,1-.047.7,18.679,18.679,0,0,0-.05,1.9c.009,1.608.348,3.81.464,6.278a12.268,12.268,0,0,1-1.157,6.173,6.486,6.486,0,0,1-1.13,1.552,3.936,3.936,0,0,1-.535.457,8.864,8.864,0,0,0,1.517-2.086,12.672,12.672,0,0,0,1.07-6.088c-.115-2.446-.429-4.664-.4-6.286a13.882,13.882,0,0,1,.125-1.912c.026-.224.068-.4.089-.513A.513.513,0,0,1,526.992,388.26Z" transform="translate(-524.535 -388.26)"/></g><g transform="translate(11.365 93.314)"><path class="i" d="M538.739,414.225l.855,9.471-4.472-.018c-.118,0-1.943-.029-3.956-.064a27.762,27.762,0,0,1-4.54.122c-.126-.013-.2-.029-.211-.047a3.656,3.656,0,0,1-.689-.167h-.02l0-.007c-.406-.148-.821-.408-.757-.853.2-1.359,1-1.468,1-1.468l.406-.028.033-.117c-.614,0-1.13-.016-1.4-.045-.126-.014-.2-.029-.211-.047,0,0-1.586-.188-1.465-1.026.2-1.359,1-1.468,1-1.468s.549-.038,1.306-.087c-.634,0-1.171-.015-1.451-.044-.126-.014-.2-.029-.211-.047,0,0-1.585-.188-1.464-1.027.2-1.357,1-1.467,1-1.467s.442-.032,1.079-.073c-.513,0-.937-.018-1.176-.044-.126-.014-.2-.029-.211-.047,0,0-1.585-.188-1.465-1.026.2-1.359,1-1.467,1-1.467s2.494-.178,4.208-.249c0,0,1.943-1.753,2.708-1.672,1.143.121,7.795,2.575,7.795,2.575Z" transform="translate(-521.719 -411.209)"/><g transform="translate(2.103 4.224)"><g transform="translate(2.115 5.396)"><path class="n" d="M529.873,419.835a8.9,8.9,0,0,1-2.217.213,8.546,8.546,0,0,1-2.193-.07,8.927,8.927,0,0,1,2.217-.214A8.561,8.561,0,0,1,529.873,419.835Z" transform="translate(-525.463 -419.748)"/></g><g transform="translate(0.226 2.728)"><path class="n" d="M530.1,417.45a34.911,34.911,0,0,1-6.313.223,17.6,17.6,0,0,1,3.152-.255A17.394,17.394,0,0,1,530.1,417.45Z" transform="translate(-523.787 -417.38)"/></g><g class="p"><path class="n" d="M529.9,415.028a35.063,35.063,0,0,1-6.314.224,34.8,34.8,0,0,1,6.314-.224Z" transform="translate(-523.586 -414.958)"/></g></g><g transform="translate(4.504 1.628)"><path class="n" d="M525.717,412.754a4.569,4.569,0,0,0,1,.079l2.422.079,2.422.088a4.62,4.62,0,0,0,1.008-.01,4.146,4.146,0,0,0-1-.154c-.62-.063-1.477-.124-2.425-.157s-1.808-.03-2.43-.01A4.112,4.112,0,0,0,525.717,412.754Z" transform="translate(-525.717 -412.654)"/></g></g><g transform="translate(28.264 67.389)"><path class="c" d="M536.72,415.738a.755.755,0,0,0,.157,0l.454-.023,1.746-.1,6.422-.394c5.422-.33,12.912-.8,21.19-1.221l4.434-.2.106,0,0-.11c.07-1.8.235-3.556.366-5.238s.282-3.3.413-4.834l.716-8.083c.2-2.272.361-4.1.473-5.376.051-.62.09-1.1.118-1.449l.025-.376a.557.557,0,0,0,0-.128.6.6,0,0,0-.024.126c-.011.1-.027.219-.046.374-.037.344-.091.827-.159,1.445-.128,1.274-.313,3.1-.542,5.37-.217,2.286-.477,5.018-.768,8.078-.136,1.534-.279,3.15-.43,4.834-.135,1.686-.3,3.431-.376,5.256l.112-.115-4.437.2c-8.279.42-15.768.918-21.189,1.29l-6.417.469-1.744.145-.454.045A.837.837,0,0,0,536.72,415.738Z" transform="translate(-536.72 -388.196)"/></g></g></g></svg>