<svg xmlns="http://www.w3.org/2000/svg" width="723.377" height="542.571" viewBox="0 0 723.377 542.571"><defs><style>.a{fill:#e5ecff;}.b{fill:#a9c1fd;}.c{fill:#e0e0e0;}.d{fill:#fafafa;}.e{fill:#6270dd;}.f{opacity:0.3;}.g{fill:#fff;}.h{fill:#263238;}.i{fill:#ffbe9d;}.j{fill:#455a64;}.k{fill:#eb996e;}.l{fill:none;stroke:#4e585d;stroke-miterlimit:10;}.m{fill:#b78876;}.n{fill:#aa6550;}</style></defs><path class="a" d="M8252.112,1409.461s-130.484-141.96-299.484-33.8-157.17,190.97-236.6,206.18-116.609,153.79-55.77,216.32,84.5,79.43,84.5,79.43h507.354Z" transform="translate(-7528.736 -1335.021)"/><g transform="translate(-38.04 61.128)"><g transform="translate(47.293 44.624)"><g transform="translate(581.411 256.536)"><path class="b" d="M622.917,460.388c-25.888-15.856-33.467-47.728-34.232-76.744-.128-4.843-.966-9.907,1.076-14.288s7.233-7.6,11.684-5.825c3.692,1.474,5.508,5.554,7.725,8.886a28.324,28.324,0,0,0,11.989,10.143c3.175,1.411,7.041,2.158,9.979.3,4.03-2.552,4.174-8.342,3.854-13.148q-.9-13.436-1.79-26.868c-.32-4.806-.63-9.713.589-14.366s4.268-9.09,8.764-10.647,10.31.738,11.56,5.385c.521,1.934.245,3.991.5,5.978s1.317,4.139,3.245,4.582c1.953.448,3.795-1.031,5.147-2.525,4.668-5.154,7.658-11.609,10.43-18.017s5.441-12.959,9.625-18.525,10.157-10.137,17.018-10.943,14.453,3,16.6,9.655c2.154,6.672-1.385,13.788-5.356,19.533A107.526,107.526,0,0,1,690.264,335.6c-1.45,1.167-3.022,2.429-3.494,4.244-.851,3.268,2.378,6.268,5.605,7.13,3.655.978,7.521.37,11.3.586s7.935,1.623,9.567,5.081c2.266,4.794-1.533,10.192-5.372,13.81a92.1,92.1,0,0,1-26.257,17.345c-3.459,1.508-7.111,2.868-9.813,5.524s-4.162,7.082-2.236,10.363,6.417,4.1,10.08,3.192,6.856-3.121,10.306-4.666c6.455-2.891,15.014-2.951,19.591,2.5,3.008,3.586,3.568,8.8,2.431,13.355s-3.756,8.584-6.57,12.321c-9.839,13.062-22.79,23.881-37.8,30.12s-29.117,8.534-44.684,3.883" transform="translate(-588.407 -283.659)"/><g transform="translate(40.89 3.586)"><path class="c" d="M626.507,441.54c3.38-14.871,8.437-30.864,14.3-47.409l4.387-12.235c1.449-4.012,2.886-7.991,4.531-11.8a215.473,215.473,0,0,1,10.711-21.322c3.734-6.617,7.519-12.761,11.1-18.479s7.046-10.975,10.4-15.637a171.039,171.039,0,0,1,17.429-20.8c2.241-2.287,4.039-4,5.273-5.149l1.411-1.3a3.571,3.571,0,0,1,.5-.419,3.287,3.287,0,0,1-.439.485l-1.35,1.359c-1.192,1.189-2.95,2.944-5.152,5.263a180.9,180.9,0,0,0-17.166,20.927c-3.308,4.672-6.72,9.941-10.282,15.663s-7.308,11.879-11.014,18.492a218.063,218.063,0,0,0-10.621,21.262c-1.631,3.786-3.051,7.731-4.5,11.754s-2.9,8.1-4.381,12.229c-5.859,16.533-10.925,32.479-14.34,47.295" transform="translate(-626.507 -287)"/></g><g transform="translate(54.135 34.171)"><path class="c" d="M649.072,367.964a9.816,9.816,0,0,1-.593-2.022c-.333-1.314-.751-3.228-1.233-5.6-.969-4.745-2.083-11.344-3.283-18.624s-2.405-13.849-3.443-18.566c-.513-2.36-.947-4.267-1.264-5.581a9.634,9.634,0,0,1-.394-2.07,9.681,9.681,0,0,1,.725,1.978c.42,1.288.949,3.178,1.539,5.527,1.2,4.7,2.507,11.272,3.708,18.562,1.167,7.187,2.221,13.689,3.028,18.657.378,2.242.7,4.131.955,5.647A9.551,9.551,0,0,1,649.072,367.964Z" transform="translate(-638.849 -315.499)"/></g><g transform="translate(64.359 71.326)"><path class="c" d="M709.484,350.148a13.318,13.318,0,0,1-2.447.444c-1.578.237-3.861.568-6.67,1.067-5.624.952-13.347,2.54-21.791,4.665s-16,4.4-21.419,6.2c-2.717.878-4.9,1.647-6.406,2.171a13.3,13.3,0,0,1-2.376.737,13.167,13.167,0,0,1,2.254-1.065c1.476-.622,3.629-1.485,6.327-2.445,5.382-1.953,12.939-4.319,21.406-6.467a218.583,218.583,0,0,1,21.908-4.421c2.83-.42,5.134-.657,6.729-.786A13.218,13.218,0,0,1,709.484,350.148Z" transform="translate(-648.375 -350.119)"/></g><g transform="translate(5.695 79.882)"><path class="c" d="M629.6,435.152a3.141,3.141,0,0,1-.469-.729c-.323-.587-.716-1.3-1.192-2.172-1.026-1.891-2.441-4.666-4.143-8.117-3.41-6.9-7.818-16.581-12.539-27.328s-9.038-20.46-12.3-27.421c-1.6-3.384-2.91-6.167-3.885-8.235-.419-.9-.763-1.639-1.045-2.247a3.143,3.143,0,0,1-.31-.812,3.254,3.254,0,0,1,.47.73l1.191,2.171c1.026,1.891,2.44,4.665,4.143,8.117,3.41,6.9,7.818,16.581,12.542,27.333s9.035,20.456,12.3,27.418c1.6,3.383,2.91,6.167,3.885,8.234.419.9.762,1.641,1.045,2.247A3.193,3.193,0,0,1,629.6,435.152Z" transform="translate(-593.713 -358.091)"/></g><g transform="translate(41.581 125.51)"><path class="c" d="M707.684,400.612a3.313,3.313,0,0,1-.794.384l-2.338.944c-2.159.847-5.075,1.991-8.623,3.381-7.28,2.857-17.291,6.917-28.346,11.419s-21.116,8.476-28.458,11.183c-3.67,1.354-6.651,2.42-8.725,3.115-.961.314-1.752.573-2.394.786a3.3,3.3,0,0,1-.855.216,3.359,3.359,0,0,1,.794-.387l2.337-.941,8.622-3.381c7.281-2.856,17.292-6.918,28.35-11.421s21.111-8.474,28.453-11.181c3.67-1.355,6.651-2.42,8.727-3.114.959-.314,1.749-.575,2.393-.786A3.235,3.235,0,0,1,707.684,400.612Z" transform="translate(-627.151 -400.606)"/></g></g><g transform="translate(613.712 84.215)"><g transform="translate(0 8.452)"><path class="b" d="M633.564,142.023c-4.415,11.053-11.484,28.922-14.729,37.131a4.721,4.721,0,0,0,2.646,6.122l30.2,12.028a4.723,4.723,0,0,0,6.135-2.64l14.652-36.788a10.483,10.483,0,0,0-5.861-13.619h0l2.155-5.411-19.775-7.876-2.038,5.116-.073-.027A10.482,10.482,0,0,0,633.564,142.023Z" transform="translate(-618.504 -130.969)"/></g><g transform="translate(29.227 9.14)"><path class="b" d="M646.716,131.61l-.98,2.461,19.5,8.578,1.26-3.163Z" transform="translate(-645.736 -131.61)"/></g><g transform="translate(27.307)"><path class="b" d="M2.992,0H23.271a2.992,2.992,0,0,1,2.992,2.992V8.636a1.931,1.931,0,0,1-1.931,1.931H1.931A1.931,1.931,0,0,1,0,8.636V2.992A2.992,2.992,0,0,1,2.992,0Z" transform="matrix(0.929, 0.37, -0.37, 0.929, 3.91, 0)"/></g><g transform="translate(30.397 1.324)"><path class="b" d="M646.844,134.1a25.028,25.028,0,0,1,1.687-4.989,24.941,24.941,0,0,1,2.205-4.783,24.961,24.961,0,0,1-1.687,4.989A24.936,24.936,0,0,1,646.844,134.1Z" transform="translate(-646.827 -124.328)"/></g><g transform="translate(33.004 2.362)"><path class="b" d="M649.273,135.069a24.971,24.971,0,0,1,1.686-4.989,25.089,25.089,0,0,1,2.205-4.783,24.994,24.994,0,0,1-1.686,4.99A25.091,25.091,0,0,1,649.273,135.069Z" transform="translate(-649.256 -125.295)"/></g><g transform="translate(35.609 3.4)"><path class="b" d="M651.7,136.036a24.97,24.97,0,0,1,1.686-4.989,24.974,24.974,0,0,1,2.207-4.783,25.039,25.039,0,0,1-1.687,4.99A25.023,25.023,0,0,1,651.7,136.036Z" transform="translate(-651.684 -126.262)"/></g><g transform="translate(38.215 4.438)"><path class="b" d="M654.129,137a24.969,24.969,0,0,1,1.686-4.989,24.971,24.971,0,0,1,2.207-4.783,25.015,25.015,0,0,1-1.687,4.99A24.9,24.9,0,0,1,654.129,137Z" transform="translate(-654.112 -127.229)"/></g><g transform="translate(40.821 5.477)"><path class="b" d="M656.557,137.971a25.015,25.015,0,0,1,1.687-4.99,24.949,24.949,0,0,1,2.205-4.782,24.993,24.993,0,0,1-1.686,4.989A25.011,25.011,0,0,1,656.557,137.971Z" transform="translate(-656.54 -128.197)"/></g><g transform="translate(43.428 6.514)"><path class="b" d="M658.986,138.938a24.948,24.948,0,0,1,1.686-4.989,25.006,25.006,0,0,1,2.205-4.783,24.915,24.915,0,0,1-1.686,4.989A25.124,25.124,0,0,1,658.986,138.938Z" transform="translate(-658.969 -129.164)"/></g><g transform="translate(46.034 7.552)"><path class="b" d="M661.414,139.9a24.965,24.965,0,0,1,1.686-4.989,24.981,24.981,0,0,1,2.207-4.783,25.05,25.05,0,0,1-1.687,4.989A25.02,25.02,0,0,1,661.414,139.9Z" transform="translate(-661.397 -130.131)"/></g><g transform="translate(48.639 8.59)"><path class="b" d="M663.842,140.872a25.015,25.015,0,0,1,1.687-4.989,24.929,24.929,0,0,1,2.206-4.783,24.988,24.988,0,0,1-1.687,4.99A24.95,24.95,0,0,1,663.842,140.872Z" transform="translate(-663.825 -131.098)"/></g><g transform="translate(10.998 27.034)"><rect class="b" width="30.5" height="20.175" rx="1.483" transform="matrix(0.929, 0.37, -0.37, 0.929, 7.465, 0)"/><g transform="translate(1.779 1.562)"><path class="b" d="M655.579,176.162a2.2,2.2,0,0,1,.1-.322l.324-.882c.308-.809.728-1.916,1.258-3.31,1.113-2.872,2.682-6.918,4.589-11.838l.123.289-24.856-9.838c-.081.032.685-.3.359-.155v0l0,.009-.008.016-.013.034-.027.068-.055.135-.107.27-.216.54-.428,1.075q-.426,1.071-.848,2.126-.844,2.11-1.659,4.153l-3.135,7.827-.144-.333,17.776,7.215,5.113,2.111,1.369.578a4.109,4.109,0,0,1,.484.225,2.407,2.407,0,0,1-.452-.147l-1.345-.5c-1.236-.474-2.959-1.134-5.11-1.961l-18.026-7.044-.238-.093.094-.24,3.1-7.839,1.651-4.157q.42-1.056.846-2.128l.428-1.074.215-.54.107-.27.055-.136.027-.068.013-.033.008-.017,0-.009v0c-.323.137.443-.193.366-.158l24.814,9.944.208.084-.084.2c-2.018,4.937-3.678,9-4.857,11.879-.566,1.357-1.014,2.434-1.344,3.222l-.355.825A1.2,1.2,0,0,1,655.579,176.162Z" transform="translate(-630.409 -149.738)"/></g><g transform="translate(10.61 8.718)"><path class="b" d="M655.517,163.139a74.319,74.319,0,0,1-8.543-3.1,74.027,74.027,0,0,1-8.336-3.621,147.705,147.705,0,0,1,16.879,6.723Z" transform="translate(-638.637 -156.407)"/></g><g transform="translate(9.467 11.588)"><path class="b" d="M654.451,165.812a73.872,73.872,0,0,1-8.542-3.1,74.337,74.337,0,0,1-8.337-3.62,147.946,147.946,0,0,1,16.878,6.722Z" transform="translate(-637.572 -159.08)"/></g><g transform="translate(8.369 14.344)"><path class="b" d="M653.429,168.381a73.864,73.864,0,0,1-8.542-3.1,73.983,73.983,0,0,1-8.337-3.621,147.7,147.7,0,0,1,16.878,6.723Z" transform="translate(-636.549 -161.649)"/></g></g><g transform="translate(28.617 13.772)"><path class="b" d="M663.591,143.273a88.383,88.383,0,0,1-9.313-3.41,88.114,88.114,0,0,1-9.108-3.928,176.226,176.226,0,0,1,18.422,7.338Z" transform="translate(-645.168 -135.926)"/></g><g transform="translate(2.807 15.425)"><path class="b" d="M621.123,177.2a11.861,11.861,0,0,1,.6-1.779l1.822-4.774c1.561-4.022,3.754-9.565,6.208-15.673l3.482-8.6a18.532,18.532,0,0,1,3.92-6.526,8.253,8.253,0,0,1,4.561-2.329,5.771,5.771,0,0,1,1.406,0,1.57,1.57,0,0,1,.477.114,11.49,11.49,0,0,0-1.849.105,8.333,8.333,0,0,0-4.318,2.4,18.7,18.7,0,0,0-3.72,6.438c-1.061,2.657-2.221,5.566-3.441,8.619-2.453,6.108-4.7,11.626-6.359,15.611-.811,1.923-1.482,3.51-1.988,4.708A12.091,12.091,0,0,1,621.123,177.2Z" transform="translate(-621.119 -137.466)"/></g><g transform="translate(1.602 60.47)"><path class="b" d="M655.141,193.548a7.984,7.984,0,0,1-1.188-.962c-.366-.326-.817-.721-1.366-1.148s-1.143-.953-1.859-1.456a51.96,51.96,0,0,0-5.116-3.389,51.07,51.07,0,0,0-13.913-5.541A52.4,52.4,0,0,0,625.653,180c-.867-.126-1.658-.159-2.351-.219s-1.291-.091-1.782-.105a8.092,8.092,0,0,1-1.524-.118,7.981,7.981,0,0,1,1.527-.1c.493-.02,1.1-.028,1.794.01s1.5.038,2.375.138a46.262,46.262,0,0,1,6.122.947,47.824,47.824,0,0,1,14.058,5.6,46.2,46.2,0,0,1,5.1,3.52c.706.529,1.291,1.074,1.82,1.531s.966.874,1.31,1.227A7.9,7.9,0,0,1,655.141,193.548Z" transform="translate(-619.996 -179.438)"/></g></g><g transform="translate(0 149.494)"><rect class="a" width="97.4" height="133.794" rx="2.408" transform="translate(0 42.244) rotate(-25.704)"/><g transform="translate(6.137 4.927)"><rect class="d" width="86.522" height="124.54" transform="translate(0 37.526) rotate(-25.704)"/></g><g transform="translate(30.039 7.734)"><path class="a" d="M106.4,201.152a10.6,10.6,0,0,0-11.09-1.159l-2.39-4.743a7.283,7.283,0,0,0-9.72-3.4h0a7.283,7.283,0,0,0-3.4,9.721l2.4,4.979-1.66.833a10.605,10.605,0,0,0-5.848,9.337l-.033,2.467,33.942-16.339Zm-18.116.773a3.92,3.92,0,1,1,1.832-5.233A3.92,3.92,0,0,1,88.284,201.925Z" transform="translate(-74.652 -191.125)"/></g><g transform="translate(21.544 44.436)"><path class="c" d="M87.877,225.33c.067.14-4.612,2.531-10.449,5.339s-10.624,4.975-10.691,4.837,4.611-2.53,10.45-5.34S87.81,225.192,87.877,225.33Z" transform="translate(-66.736 -225.324)"/></g><g transform="translate(23.261 53.268)"><path class="c" d="M78.524,233.566a28.886,28.886,0,0,1-4.972,2.7,28.812,28.812,0,0,1-5.215,2.2,28.748,28.748,0,0,1,4.972-2.7A28.777,28.777,0,0,1,78.524,233.566Z" transform="translate(-68.336 -233.553)"/></g><g transform="translate(29.062 39.305)"><path class="c" d="M132.574,220.545c.068.14-13.049,6.592-29.294,14.411S73.808,249,73.741,248.864s13.047-6.59,29.3-14.412S132.507,220.407,132.574,220.545Z" transform="translate(-73.741 -220.543)"/></g><g transform="translate(31.762 44.916)"><path class="c" d="M135.091,225.773c.067.138-13.05,6.592-29.295,14.41s-29.472,14.047-29.539,13.909,13.047-6.591,29.3-14.412S135.023,225.634,135.091,225.773Z" transform="translate(-76.257 -225.771)"/></g><g transform="translate(34.462 50.526)"><path class="c" d="M137.607,231c.067.14-13.05,6.592-29.295,14.411s-29.472,14.047-29.539,13.908,13.047-6.591,29.3-14.412S137.539,230.862,137.607,231Z" transform="translate(-78.773 -230.998)"/></g><g transform="translate(37.163 56.135)"><path class="c" d="M140.123,236.227c.067.14-13.05,6.593-29.295,14.411S81.357,264.686,81.29,264.547s13.047-6.591,29.3-14.412S140.056,236.089,140.123,236.227Z" transform="translate(-81.29 -236.225)"/></g><g transform="translate(39.863 61.746)"><path class="c" d="M142.639,241.455c.068.138-13.05,6.592-29.294,14.41s-29.473,14.048-29.539,13.909,13.047-6.591,29.3-14.412S142.572,241.316,142.639,241.455Z" transform="translate(-83.806 -241.453)"/></g><g transform="translate(42.564 67.356)"><path class="c" d="M145.155,246.682c.068.139-13.049,6.592-29.294,14.411S86.389,275.141,86.322,275s13.047-6.59,29.3-14.411S145.088,246.544,145.155,246.682Z" transform="translate(-86.322 -246.68)"/></g><g transform="translate(44.999 86.573)"><path class="c" d="M118.008,264.59a5.785,5.785,0,0,1-1.11.654l-3.113,1.6c-2.639,1.327-6.3,3.124-10.364,5.08s-7.753,3.7-10.437,4.933l-3.19,1.437a5.719,5.719,0,0,1-1.2.458,5.712,5.712,0,0,1,1.109-.655l3.113-1.6c2.639-1.326,6.3-3.125,10.365-5.081s7.752-3.7,10.436-4.931l3.191-1.437A5.617,5.617,0,0,1,118.008,264.59Z" transform="translate(-88.59 -264.586)"/></g><g transform="translate(74.274 24.06)"><path class="c" d="M125.294,206.352a24.807,24.807,0,0,1-4.59,2.519,24.6,24.6,0,0,1-4.834,2.017,24.759,24.759,0,0,1,4.591-2.52A24.643,24.643,0,0,1,125.294,206.352Z" transform="translate(-115.869 -206.338)"/></g><g transform="translate(51.647 105.23)"><path class="c" d="M110.068,281.979a64.694,64.694,0,0,1-7.52,3.929,64.421,64.421,0,0,1-7.762,3.426,64.66,64.66,0,0,1,7.52-3.929A64.248,64.248,0,0,1,110.068,281.979Z" transform="translate(-94.785 -281.97)"/></g><g transform="translate(54.353 110.078)"><path class="c" d="M112.844,286.5a66.656,66.656,0,0,1-7.647,3.991,66.5,66.5,0,0,1-7.889,3.487,66.748,66.748,0,0,1,7.647-3.99A66.883,66.883,0,0,1,112.844,286.5Z" transform="translate(-97.307 -286.487)"/></g><g transform="translate(103.489 83.125)"><path class="c" d="M150.478,261.391a15.275,15.275,0,0,1-3.571,2.029,15.263,15.263,0,0,1-3.815,1.525,15.324,15.324,0,0,1,3.573-2.029A15.267,15.267,0,0,1,150.478,261.391Z" transform="translate(-143.09 -261.373)"/></g><g transform="translate(105.951 87.587)"><path class="c" d="M152.772,265.548a15.283,15.283,0,0,1-3.572,2.029,15.311,15.311,0,0,1-3.814,1.526,15.229,15.229,0,0,1,3.572-2.029A15.3,15.3,0,0,1,152.772,265.548Z" transform="translate(-145.384 -265.53)"/></g><g transform="translate(58.2 118.849)"><path class="c" d="M108.025,294.678a14.247,14.247,0,0,1-3.444,1.968,14.23,14.23,0,0,1-3.688,1.465,14.214,14.214,0,0,1,3.445-1.968A14.277,14.277,0,0,1,108.025,294.678Z" transform="translate(-100.891 -294.66)"/></g><g transform="translate(110.816 92.806)"><path class="c" d="M155.269,270.419a15.877,15.877,0,0,1-5.349,2.574,15.905,15.905,0,0,1,5.349-2.574Z" transform="translate(-149.917 -270.394)"/></g><g transform="translate(63.544 123.574)"><path class="c" d="M105.871,310.095a1.365,1.365,0,0,1,.3-.229l.9-.6,3.47-2.225L123,299.216l.246-.153.106.269a7.024,7.024,0,0,1,.136,4.729,5.784,5.784,0,0,1-3.43,3.718,5.721,5.721,0,0,1-5.309-.6,4.992,4.992,0,0,1-1.778-5.227A4.528,4.528,0,0,1,114,300.005a2.822,2.822,0,0,1,.4-.383,1.931,1.931,0,0,1,.487-.333.8.8,0,0,1,.749.025,1.276,1.276,0,0,1,.426.493,9.633,9.633,0,0,1,.479,7.9,5.987,5.987,0,0,1-2.31,3.059,3.432,3.432,0,0,1-3.624-.081,5.175,5.175,0,0,1-2.151-2.694,12.442,12.442,0,0,1,.034-6.057l.067-.409.275.308a8.407,8.407,0,0,1,2.044,4.626,8.929,8.929,0,0,1-.358,3.807,7.973,7.973,0,0,1-1.08,2.16c-.162.222-.308.377-.4.485s-.145.156-.152.15a10.016,10.016,0,0,0,1.421-2.86,8.913,8.913,0,0,0,.257-3.7,8.136,8.136,0,0,0-2.025-4.4l.341-.1a12.187,12.187,0,0,0,.014,5.84,4.717,4.717,0,0,0,1.965,2.422,2.925,2.925,0,0,0,3.1.061,5.5,5.5,0,0,0,2.077-2.808,9.116,9.116,0,0,0-.468-7.437.763.763,0,0,0-.225-.284c-.064-.036-.119-.04-.236.009a2.759,2.759,0,0,0-.7.583,3.96,3.96,0,0,0-.9,1.707,4.441,4.441,0,0,0,1.56,4.643,5.192,5.192,0,0,0,4.794.542A5.263,5.263,0,0,0,123,303.9a6.552,6.552,0,0,0-.1-4.389l.351.116-12.564,7.653-3.539,2.111-.943.54A1.407,1.407,0,0,1,105.871,310.095Z" transform="translate(-105.871 -299.063)"/></g><g transform="translate(106.151 101.977)"><path class="c" d="M158.69,284.511a3.525,3.525,0,0,1-.179,1.007,4.17,4.17,0,0,1-.487,1.138,2.4,2.4,0,0,1-1.347,1.026,1.665,1.665,0,0,1-1.044-.034,2.105,2.105,0,0,1-.892-.7,20.009,20.009,0,0,1-1.2-2.048l-2.668-4.867.488-.114c-.086,2.461-.18,5.146-.279,7.96-.026.67-.05,1.333-.076,1.984l-.042,1.11-.485-1c-1.467-3.016-2.837-5.829-4.031-8.285l.445-.044a28.54,28.54,0,0,0-1.022,7.487c0,1.831.124,2.876.063,2.883a2.811,2.811,0,0,1-.156-.743c-.069-.489-.148-1.212-.186-2.136a26.28,26.28,0,0,1,.838-7.616l.16-.617.285.574,4.1,8.251-.528.113q.037-.977.074-1.983c.112-2.814.219-5.5.318-7.959l.039-.965.451.851c.937,1.772,1.807,3.419,2.6,4.907a21.711,21.711,0,0,0,1.119,2.021,1.435,1.435,0,0,0,1.555.656,2.733,2.733,0,0,0,1.751-1.907A6.819,6.819,0,0,1,158.69,284.511Z" transform="translate(-145.571 -278.939)"/></g><g transform="translate(99.055 103.525)"><path class="c" d="M159.057,280.385c.087.128-4.342,3.292-9.891,7.065s-10.119,6.731-10.206,6.6,4.341-3.289,9.892-7.065S158.971,280.258,159.057,280.385Z" transform="translate(-138.959 -280.381)"/></g><g transform="translate(109.724 104.465)"><path class="c" d="M163.773,281.261a86.389,86.389,0,0,1-7.253,6.6,86.29,86.29,0,0,1-7.618,6.18,86.2,86.2,0,0,1,7.253-6.6A86.173,86.173,0,0,1,163.773,281.261Z" transform="translate(-148.9 -281.258)"/></g></g></g><g transform="translate(296.13 48.236)"><g transform="translate(187.404)"><path class="e" d="M529.149,69.868c-1.167-9.4-9.117-18.161-18.587-18.166-5.594,0-10.911,2.92-14.734,7a38.24,38.24,0,0,0-3.735,4.43,38.421,38.421,0,0,0-2.79-5.08c-2.944-4.757-7.582-8.669-13.068-9.767-9.285-1.859-18.806,5.169-21.8,14.154s-.5,19.071,4.421,27.162,13.4,18.667,29.011,23.915c10.764-1.379,25.181-10.928,31.6-17.891S530.314,79.266,529.149,69.868Z" transform="translate(-453.141 -47.989)"/><g transform="translate(1.319 20.536)"><path class="d" d="M525.645,85.346a1.1,1.1,0,0,1-.313,0l-.913-.059L520.913,85l-12.881-1.179.232-.143L502.9,97.67l-.324.844-.211-.88c-1.635-6.788-3.466-14.4-5.4-22.411-.593-2.481-1.177-4.923-1.748-7.308l.545.108c-3.5,4.813-6.813,9.367-9.831,13.517l-.094.13-.158-.016-22.63-2.362-6.406-.715-1.694-.211a2.907,2.907,0,0,1-.58-.1,2.92,2.92,0,0,1,.589.013l1.7.127,6.421.559L485.734,81.1l-.252.114,9.786-13.549.39-.541.156.648c.572,2.384,1.158,4.826,1.753,7.306L502.908,97.5l-.534-.036,5.47-13.949.063-.161.168.018,12.862,1.379,3.493.407.907.122A1.166,1.166,0,0,1,525.645,85.346Z" transform="translate(-454.37 -67.124)"/></g></g><g transform="translate(0 69.833)"><g transform="translate(10.968 10.726)"><g transform="translate(12.335)"><rect class="e" width="7.086" height="31.756"/></g><g transform="translate(0 12.335)"><rect class="e" width="7.086" height="31.756" transform="translate(0 7.086) rotate(-90)"/></g></g><path class="e" d="M331.742,139.738a2.433,2.433,0,0,1-.05-.428c-.023-.309-.053-.725-.091-1.255q-.027-.419-.06-.924c-.038-.339-.112-.705-.173-1.1a19.384,19.384,0,0,0-.559-2.725,25.269,25.269,0,0,0-2.943-7,26.241,26.241,0,0,0-31.523-11.182,24.071,24.071,0,0,0-6.629,3.57,23.969,23.969,0,0,0-5.538,5.565,25.362,25.362,0,0,0-3.743,7.217,25.972,25.972,0,0,0,0,16.53,25.4,25.4,0,0,0,3.743,7.22,29.7,29.7,0,0,0,2.567,3.038,29.382,29.382,0,0,0,2.972,2.527,24.02,24.02,0,0,0,6.63,3.571,26.307,26.307,0,0,0,31.524-11.183,25.271,25.271,0,0,0,2.942-7,19.228,19.228,0,0,0,.559-2.725c.061-.4.135-.765.173-1.1q.032-.506.06-.924c.039-.529.069-.944.091-1.255a2.432,2.432,0,0,1,.05-.428,2.418,2.418,0,0,1,.006.429c-.009.311-.02.729-.035,1.261l-.034.93c-.028.341-.093.71-.147,1.113a18.681,18.681,0,0,1-.512,2.755,25.057,25.057,0,0,1-2.885,7.107A26.645,26.645,0,0,1,310.2,165.967a26.741,26.741,0,0,1-14.033-1.126,24.513,24.513,0,0,1-6.772-3.625,29.794,29.794,0,0,1-3.037-2.575,30.168,30.168,0,0,1-2.625-3.1,25.87,25.87,0,0,1-3.829-7.369,26.469,26.469,0,0,1,0-16.881,25.9,25.9,0,0,1,3.83-7.366,24.442,24.442,0,0,1,5.661-5.669,24.527,24.527,0,0,1,6.771-3.625A26.736,26.736,0,0,1,310.2,113.51a26.64,26.64,0,0,1,17.935,12.632,25.04,25.04,0,0,1,2.885,7.107,18.6,18.6,0,0,1,.513,2.756c.054.4.119.772.147,1.113l.034.93c.015.532.027.95.035,1.261A2.41,2.41,0,0,1,331.742,139.738Z" transform="translate(-278.522 -113.058)"/></g></g><g transform="translate(492.317 116.422)"><g transform="translate(0 133.266)"><g transform="translate(0 2.049)"><path class="e" d="M645.193,349.328s31.409-7.488,32.445-8.809l-25.83-66.527a48.675,48.675,0,0,0-30.123-29.361,85.408,85.408,0,0,0-30.507-4.711l-43.6-2.313a86.338,86.338,0,0,0-34.4,9.522,69.4,69.4,0,0,0-32.3,35.6l-19.548,48.85,49.321,10.313,1.874,52.477-7.438,72.412h136.2L640.331,352h0Z" transform="translate(-461.324 -237.607)"/></g><g class="f" transform="translate(174.379 96.265)"><path class="g" d="M660.368,325.4c.046.148-8.1,2.805-18.2,5.936s-18.319,5.549-18.365,5.4,8.1-2.8,18.2-5.936S660.323,325.254,660.368,325.4Z" transform="translate(-623.806 -325.395)"/></g><g transform="translate(41.028 27.358)"><path class="h" d="M526.974,283.331a6.958,6.958,0,0,1-.838-1.143c-.5-.76-1.262-1.832-2.247-3.119a54.421,54.421,0,0,0-3.7-4.326,52.78,52.78,0,0,0-10.813-8.728,54.715,54.715,0,0,0-5.009-2.7c-1.466-.691-2.674-1.212-3.522-1.538a7.031,7.031,0,0,1-1.294-.578,6.779,6.779,0,0,1,1.368.373,35.677,35.677,0,0,1,3.612,1.384,46.856,46.856,0,0,1,5.111,2.62,48.785,48.785,0,0,1,10.922,8.817,47.054,47.054,0,0,1,3.638,4.443,35.53,35.53,0,0,1,2.114,3.239A6.877,6.877,0,0,1,526.974,283.331Z" transform="translate(-499.553 -261.189)"/></g><g transform="translate(54.656 65.378)"><path class="h" d="M519.611,296.615c.154.016-1.367,16.04-3.4,35.786s-3.8,35.748-3.953,35.732,1.367-16.036,3.4-35.789S519.458,296.6,519.611,296.615Z" transform="translate(-512.251 -296.615)"/></g><g transform="translate(161.63 14.478)"><path class="h" d="M619.538,270.394a30.045,30.045,0,0,1-.7-3.252,57.351,57.351,0,0,0-5.379-15,29.969,29.969,0,0,1-1.525-2.956c.033-.021.232.229.565.7s.785,1.173,1.306,2.064a44.768,44.768,0,0,1,5.422,15.116c.163,1.018.264,1.848.3,2.424A2.785,2.785,0,0,1,619.538,270.394Z" transform="translate(-611.927 -249.188)"/></g><g transform="translate(170.151 51.234)"><path class="h" d="M621.685,323.912a8.794,8.794,0,0,1-.264-1.574c-.135-1.017-.3-2.494-.477-4.321-.355-3.652-.728-8.711-.926-14.308s-.179-10.673-.081-14.341c.048-1.834.108-3.318.172-4.342a8.723,8.723,0,0,1,.154-1.589,8.8,8.8,0,0,1,.064,1.595c0,1.129,0,2.589.005,4.342,0,3.665.049,8.727.245,14.316s.507,10.64.761,14.3c.121,1.749.222,3.206.3,4.332A8.743,8.743,0,0,1,621.685,323.912Z" transform="translate(-619.866 -283.436)"/></g><g transform="translate(71.683 81.699)"><path class="g" d="M562.466,312.464a224.249,224.249,0,0,1-34.351-.641v4.461h34.351Z" transform="translate(-528.116 -311.823)"/></g><g class="f" transform="translate(64.509 6.245)"><path class="g" d="M597.119,243.4a4.251,4.251,0,0,1,.132.677c.074.485.173,1.143.3,1.98.218,1.735.518,4.279.765,7.5.515,6.451.963,15.618,1.12,26.44l.006.413-.371-.18c-6.848-3.329-14.529-6.959-22.518-10.952L537.52,249.752l-11.8-5.976-3.194-1.65-.823-.441a.161.161,0,1,1,.027-.05l.85.393,3.243,1.556,11.88,5.819,39.1,19.384c7.989,3.993,15.652,7.633,22.483,10.989l-.365.233c-.114-10.809-.49-19.974-.917-26.422-.2-3.225-.454-5.767-.62-7.508-.093-.839-.166-1.5-.22-1.987A4.356,4.356,0,0,1,597.119,243.4Z" transform="translate(-521.432 -241.517)"/></g><g class="f" transform="translate(3.265 87.555)"><path class="g" d="M519.3,330.572a2.3,2.3,0,0,1-.569-.1l-1.6-.385-5.871-1.492c-4.954-1.267-11.8-3-19.383-4.839s-14.47-3.417-19.456-4.554l-5.9-1.354-1.6-.391a2.191,2.191,0,0,1-.551-.173,2.208,2.208,0,0,1,.573.063l1.623.287c1.407.26,3.438.663,5.942,1.183,5.01,1.037,11.913,2.562,19.5,4.4s14.424,3.634,19.354,5c2.465.684,4.456,1.252,5.827,1.665l1.574.486A2.193,2.193,0,0,1,519.3,330.572Z" transform="translate(-464.366 -317.28)"/></g><g transform="translate(70.802)"><g transform="translate(63.396)"><path class="h" d="M586.368,235.709c.052-.159,2.949,1.392,5.8,5.6,2.8,4.2,5.424,10.717,6.9,18.215a74.879,74.879,0,0,1,1.252,10.68c.023,1.653.071,3.223.021,4.691-.081,1.467-.1,2.835-.226,4.077s-.253,2.348-.361,3.347c-.137.981-.3,1.819-.425,2.5a8.06,8.06,0,0,1-.507,2.107,8.161,8.161,0,0,1,.076-2.166q.1-1.074.234-2.512c.057-.994.122-2.108.193-3.331s.048-2.589.088-4.039c.01-1.451-.073-3-.123-4.63a83.714,83.714,0,0,0-1.32-10.513,57.535,57.535,0,0,0-6.469-18,25.171,25.171,0,0,0-3.578-4.552C586.955,236.217,586.322,235.783,586.368,235.709Z" transform="translate(-586.366 -235.698)"/></g><g transform="translate(0 0.314)"><path class="h" d="M541.9,235.993a24.02,24.02,0,0,1-2.269,3.265,45.334,45.334,0,0,0-5.053,9.435,64.592,64.592,0,0,0-3.751,15.423c-.782,5.953-1.116,12.606-1.553,19.565-.362,6.948-.379,13.6-.388,19.648s-.005,11.493-.008,16.087c-.034,4.583-.117,8.293-.254,10.856a17.493,17.493,0,0,1-.395,3.973,19.038,19.038,0,0,1-.258-3.981c-.067-2.608-.162-6.3-.279-10.836-.115-4.577-.269-10.027-.351-16.089s-.106-12.734.259-19.747c.438-6.983.818-13.641,1.7-19.688a61.357,61.357,0,0,1,4.187-15.664,39.4,39.4,0,0,1,5.627-9.376A14.745,14.745,0,0,1,541.9,235.993Z" transform="translate(-527.295 -235.99)"/></g><g transform="translate(59.241 50.338)"><path class="h" d="M610.012,322.3a21.611,21.611,0,0,1-.211-3.545c-.063-2.283-.117-5.585-.161-9.665-.017-2.046-.036-4.28-.057-6.675-.044-2.394.044-4.982-.145-7.618a12.551,12.551,0,0,0-2.739-7.5,10.315,10.315,0,0,0-7.566-3.578,11.836,11.836,0,0,0-7.907,3.067,13.6,13.6,0,0,0-4,6.965c-.663,2.553-.944,5.118-1.343,7.484-.375,2.366-.724,4.573-1.044,6.593-.648,4.03-1.19,7.288-1.591,9.536a21.625,21.625,0,0,1-.734,3.474,21.533,21.533,0,0,1,.3-3.537c.267-2.268.691-5.543,1.239-9.587.279-2.027.584-4.24.91-6.613.359-2.371.6-4.925,1.262-7.608a14.533,14.533,0,0,1,4.265-7.522,12.848,12.848,0,0,1,8.656-3.368,11.362,11.362,0,0,1,8.375,3.978,13.5,13.5,0,0,1,2.937,8.134c.166,2.75.04,5.3.044,7.7-.028,2.394-.055,4.629-.079,6.674-.057,4.08-.123,7.383-.193,9.665A21.509,21.509,0,0,1,610.012,322.3Z" transform="translate(-582.494 -282.602)"/></g><g transform="translate(72.241 40.963)"><path class="h" d="M598.771,273.866c-.349,3.759-1.555,7.974-4.163,10.7a15.061,15.061,0,0,1,6.927.133c-1.628-3.26-1.89-7.193-1.844-10.836" transform="translate(-594.608 -273.866)"/></g><g transform="translate(63.764 53.615)"><path class="h" d="M609.745,297.417c-.2.036-.325-1.8-1.7-4.257a13.2,13.2,0,0,0-3.118-3.731,11.57,11.57,0,0,0-5.282-2.515,11.34,11.34,0,0,0-5.814.581,12.768,12.768,0,0,0-4.154,2.511c-2.088,1.889-2.767,3.6-2.951,3.505-.1-.011.323-1.9,2.4-4.074a12.448,12.448,0,0,1,4.333-2.9,11.8,11.8,0,0,1,6.378-.721,12.01,12.01,0,0,1,5.756,2.831,12.811,12.811,0,0,1,3.151,4.15C610.019,295.515,609.843,297.436,609.745,297.417Z" transform="translate(-586.709 -285.655)"/></g></g></g><g transform="translate(9.313 214.378)"><g transform="translate(162.032 26.907)"><path class="i" d="M635.954,415.285c6.392-.023,12.1-4.605,15.112-10.243s3.77-12.187,4.069-18.572a150.861,150.861,0,0,0-6.144-50.124l-28.011,4.892,7.628,75.432Z" transform="translate(-620.979 -336.347)"/></g><g transform="translate(63.717)"><g transform="translate(0 5.049)"><path class="h" d="M529.371,426.172l91.2-3.324L642.687,315.98l-96.055,5.337Z" transform="translate(-529.371 -315.98)"/></g><g transform="translate(46.944)"><path class="j" d="M573.112,319.826l1.374-2.725,7.279-.536s1.847-4.774,12.248-5.261c9.324-.438,9.705,4.252,9.705,4.252h5.027v2.289Z" transform="translate(-573.112 -311.276)"/></g></g><g transform="translate(134.521 78.448)"><path class="i" d="M622.331,386.724l6.915-2.016a8.442,8.442,0,0,1,4-.176h0a8.424,8.424,0,0,1,4.287,2.266c2.289,2.255,5.977,5.979,6.5,7.089.771,1.626.773,4.433,0,5.468s1.7,6.356,1.389,8.13a10.9,10.9,0,0,1-1.389,4.285c-.618.739,0,3.268-1.544,5.181a25.325,25.325,0,0,1-2.933,3.1s-18.988.888-20.841,0-5.095-4.285-5.095-4.285-1.7-3.1.926-3.4l-10.808-4.138a2.565,2.565,0,0,1-1.567-3.24,1.787,1.787,0,0,1,.952-1.046s-4.851-1.534-5.972-2.029c-2.243-.99-3.091-6.209,1.55-5.541,2.453.353,5.763,1.068,5.763,1.068s-1.769-2.882.705-4.6c1.5-1.042,8.267.228,8.267.228l8.888-6.341Z" transform="translate(-595.344 -384.372)"/><g transform="translate(18.602 27.668)"><path class="k" d="M623.469,413.337a15.981,15.981,0,0,1-5.615-.838c-3.05-.837-5.261-2.205-5.174-2.336s2.334.978,5.327,1.8C620.986,412.82,623.486,413.176,623.469,413.337Z" transform="translate(-612.678 -410.152)"/></g><g transform="translate(7.774 19.624)"><path class="k" d="M620.078,407.138a145.487,145.487,0,0,1-17.49-4.465,146.04,146.04,0,0,1,17.49,4.465Z" transform="translate(-602.588 -402.657)"/></g><g transform="translate(8.662 12.96)"><path class="k" d="M622.265,400.873a167.587,167.587,0,0,1-18.849-4.409,168.051,168.051,0,0,1,18.849,4.409Z" transform="translate(-603.416 -396.447)"/></g><g transform="translate(17.49 8.716)"><path class="k" d="M628.691,392.513a11.626,11.626,0,0,1-2.438.776l-2.678.691q-.773.192-1.592.394a5.842,5.842,0,0,1-1.825.174,9.89,9.89,0,0,1-1.779-.291l-1.595-.363-2.692-.646a11.708,11.708,0,0,1-2.452-.735,11.706,11.706,0,0,1,2.537.349l2.723.531a31.959,31.959,0,0,0,3.289.6,12.136,12.136,0,0,0,3.252-.508l2.716-.577A11.7,11.7,0,0,1,628.691,392.513Z" transform="translate(-611.641 -392.493)"/></g><g transform="translate(34.25 12.368)"><path class="k" d="M628.767,395.9c.058-.039.316.194.524.7a3.2,3.2,0,0,1-1.2,3.822c-.461.3-.806.343-.831.278-.084-.132,1.126-.73,1.568-2.146A6.121,6.121,0,0,0,628.767,395.9Z" transform="translate(-627.258 -395.896)"/></g><g transform="translate(35.127 19.706)"><path class="k" d="M628.311,402.737c.135-.062.565.7.5,1.744s-.567,1.754-.693,1.676c-.144-.071.092-.8.135-1.707S628.161,402.792,628.311,402.737Z" transform="translate(-628.075 -402.734)"/></g><g transform="translate(35.02 27.675)"><path class="k" d="M628.431,410.162c.142-.054.427.464.292,1.137s-.6,1.04-.706.937.059-.522.158-1.046S628.28,410.206,628.431,410.162Z" transform="translate(-627.975 -410.158)"/></g><g transform="translate(26.013 7.234)"><path class="k" d="M631.114,392.176a6.037,6.037,0,0,1-1.827-.093l-1.951-.252a7.414,7.414,0,0,0-2.324-.114,5.7,5.7,0,0,0-2.066.928c-.594.4-1.113.844-1.613,1.138a3.058,3.058,0,0,1-1.749.6c-.031-.093.651-.282,1.53-.928.87-.615,1.956-1.9,3.825-2.292a6.506,6.506,0,0,1,1.3-.03c.437.043.794.129,1.169.189l1.94.372A5.925,5.925,0,0,1,631.114,392.176Z" transform="translate(-619.583 -391.112)"/></g></g><g transform="translate(168.775 78.309)"><path class="k" d="M641.523,412.136a9.431,9.431,0,0,1,.484-1.364,10.5,10.5,0,0,0,.763-3.785,10.83,10.83,0,0,0-.406-2.635c-.222-.944-.655-1.883-.9-3.013a9.685,9.685,0,0,1,.233-3.508,6.173,6.173,0,0,0-.619-3.453,16.4,16.4,0,0,0-1.976-3.058c-.738-.936-1.461-1.843-2.181-2.661a12.694,12.694,0,0,0-4.491-3.513,7.271,7.271,0,0,0-3.773-.572c-.911.12-1.378.367-1.4.313-.009-.017.1-.084.325-.2a4.724,4.724,0,0,1,1.037-.333,7.092,7.092,0,0,1,3.957.42,12.687,12.687,0,0,1,4.727,3.536c.747.827,1.476,1.725,2.229,2.666a16.542,16.542,0,0,1,2.052,3.161,6.666,6.666,0,0,1,.655,3.756,9.456,9.456,0,0,0-.271,3.342c.2,1.032.63,2.025.839,3a10.772,10.772,0,0,1,.352,2.75,9.793,9.793,0,0,1-.956,3.867A5.89,5.89,0,0,1,641.523,412.136Z" transform="translate(-627.262 -384.242)"/></g><g transform="translate(0 18.107)"><path class="i" d="M589.2,363.382l-74.881,11.893,3.326-39.081L476,328.148l-5.065,57.86-.877,13.263a25.888,25.888,0,0,0,10.873,22.837h0a25.888,25.888,0,0,0,22.983,3.486L520,420.35l78.474-27.918" transform="translate(-470.001 -328.148)"/><g transform="translate(119.195 24.408)"><g transform="translate(0 0.264)"><path class="i" d="M626.372,353.64a2.126,2.126,0,0,0-2.136-2.5c-4.222-.017-15.617.047-19.643,1.189-4.98,1.412-23.529,9.371-23.529,9.371l7.863,29.036,28.474.3s10.4-4.78,10.53-6.848a35.278,35.278,0,0,0-.259-3.875l3.138-1.683c4.679-2.97,1.68-8.664,1.68-8.664s3.219-1.805,3.39-5.067a5.087,5.087,0,0,0-2.512-4.8s1.291-4.591-1.107-5.828-6.456.353-6.456.353A1.718,1.718,0,0,0,626.372,353.64Z" transform="translate(-581.064 -351.136)"/></g><g transform="translate(24.027 3.229)"><path class="k" d="M626.368,353.915a2.952,2.952,0,0,1-.874.306c-.573.161-1.413.349-2.46.528-2.092.373-5,.688-8.209,1.032a67.31,67.31,0,0,0-8.132,1.238c-2.049.48-3.194,1.116-3.241,1.031-.019-.033.257-.21.779-.505a14.3,14.3,0,0,1,2.359-.907,49.491,49.491,0,0,1,8.174-1.413c3.213-.345,6.12-.6,8.211-.867S626.347,353.83,626.368,353.915Z" transform="translate(-603.452 -353.899)"/></g><g transform="translate(37.564 9.044)"><path class="k" d="M630.8,359.33a6.79,6.79,0,0,1-2,1.023,32.082,32.082,0,0,1-5.191,1.511c-2.065.434-3.952.709-5.317.886a9.15,9.15,0,0,1-2.23.175c-.033-.18,3.331-.778,7.431-1.609,2.047-.431,3.872-.915,5.174-1.335A13.06,13.06,0,0,1,630.8,359.33Z" transform="translate(-616.065 -359.318)"/></g><g transform="translate(38.993 19.126)"><path class="k" d="M629.892,368.729a30.749,30.749,0,0,1-12.5,2.831c-.016-.164,2.833-.517,6.274-1.3S629.837,368.576,629.892,368.729Z" transform="translate(-617.397 -368.712)"/></g><g transform="translate(40.117 27.736)"><path class="k" d="M628.074,376.755a21.57,21.57,0,0,1-9.63,2.325,698.619,698.619,0,0,0,9.63-2.325Z" transform="translate(-618.444 -376.734)"/></g><g transform="translate(30.526 19.561)"><path class="k" d="M613.88,372.164c.021.065-.291.255-.869.309a3.281,3.281,0,0,1-3.425-2.433c-.141-.562-.064-.921,0-.922.151-.039.309,1.391,1.592,2.3A5.824,5.824,0,0,0,613.88,372.164Z" transform="translate(-609.507 -369.117)"/></g><g transform="translate(31.264 28.951)"><path class="k" d="M613.234,380.52c.025.151-1.114.22-2.085-.656s-1.043-2-.891-2c.158-.034.434.862,1.262,1.58C612.328,380.187,613.25,380.359,613.234,380.52Z" transform="translate(-610.195 -377.866)"/></g><g transform="translate(28.913 11.816)"><path class="k" d="M610.1,363.413c.061.148-.729.4-1.454-.156s-.706-1.375-.547-1.357c.157-.018.348.523.884.91C609.5,363.221,610.072,363.258,610.1,363.413Z" transform="translate(-608.004 -361.901)"/></g><path class="k" d="M581.064,361.717a.973.973,0,0,1,.223-.122l.677-.314,2.641-1.169c2.308-1,5.678-2.45,9.93-4.194,2.127-.868,4.472-1.818,7.04-2.771a26.8,26.8,0,0,1,4.087-1.269,43.456,43.456,0,0,1,4.525-.559c3.115-.241,6.409-.35,9.853-.4l2.611-.023h1.325a2.721,2.721,0,0,1,1.417.293,2.29,2.29,0,0,1,1.218,2.586.861.861,0,0,1-.329.372,3.027,3.027,0,0,1-.321.2,7.058,7.058,0,0,1-.647.3,10.5,10.5,0,0,1-1.352.468.272.272,0,0,1-.331-.193.276.276,0,0,1,.191-.331,28.8,28.8,0,0,1,3.55-.791,12.917,12.917,0,0,1,3.755-.132,3.382,3.382,0,0,1,1.838.8,3.334,3.334,0,0,1,.911,1.808,9.356,9.356,0,0,1-.24,3.917l-.144-.324a5.181,5.181,0,0,1,1.577,1.389,5.579,5.579,0,0,1,.819,5.08,7.493,7.493,0,0,1-3.264,3.889l.109-.369a8.947,8.947,0,0,1,.9,4.957,5.712,5.712,0,0,1-2.684,4.061l-.017.01-3.14,1.678.137-.261c.083.752.152,1.5.2,2.237.027.371.047.741.055,1.114,0,.187,0,.375-.006.568a1.447,1.447,0,0,1-.233.622,6.721,6.721,0,0,1-1.618,1.541c-.582.426-1.177.81-1.773,1.175a74.636,74.636,0,0,1-7.068,3.7.22.22,0,0,1-.1.02l-20.723-.317-5.733-.122-1.5-.049a2.9,2.9,0,0,1-.513-.04,2.856,2.856,0,0,1,.514-.029l1.5-.017h5.735l20.724.122-.1.02a75.059,75.059,0,0,0,7-3.711c.587-.363,1.171-.744,1.733-1.158a6.368,6.368,0,0,0,1.483-1.408.981.981,0,0,0,.155-.383c.008-.171.009-.347,0-.526-.009-.358-.03-.722-.057-1.087-.055-.732-.128-1.472-.211-2.214a.263.263,0,0,1,.137-.262l3.135-1.687-.016.01a5.165,5.165,0,0,0,2.431-3.685,8.432,8.432,0,0,0-.853-4.623.291.291,0,0,1,.109-.37,6.973,6.973,0,0,0,3.005-3.581,5.032,5.032,0,0,0-.734-4.567,4.692,4.692,0,0,0-1.383-1.23.3.3,0,0,1-.144-.325,8.85,8.85,0,0,0,.233-3.659,2.787,2.787,0,0,0-.747-1.513,2.855,2.855,0,0,0-1.541-.654,12.464,12.464,0,0,0-3.587.128,28.412,28.412,0,0,0-3.477.767l-.14-.523a9.885,9.885,0,0,0,1.266-.437c.206-.087.411-.177.6-.28.188-.073.37-.28.444-.262a2.194,2.194,0,0,0-.18-1.127,1.921,1.921,0,0,0-.823-.827,2.189,2.189,0,0,0-1.171-.236l-1.323,0-2.606.014c-3.436.039-6.726.132-9.824.355a43.735,43.735,0,0,0-4.476.527,26.6,26.6,0,0,0-4.03,1.222c-2.565.93-4.917,1.859-7.052,2.7l-9.987,4.046L582,361.368l-.7.272A1.062,1.062,0,0,1,581.064,361.717Z" transform="translate(-581.064 -350.891)"/></g><g transform="translate(35.379 47.049)"><path class="k" d="M512.205,371.994c.1.155-2.956,1.626-5.538,4.772-2.624,3.11-3.516,6.381-3.687,6.312a6.011,6.011,0,0,1,.558-2.117,16.727,16.727,0,0,1,6.684-8.033A5.984,5.984,0,0,1,512.205,371.994Z" transform="translate(-502.967 -371.987)"/></g></g></g><g transform="translate(71.48)"><g transform="translate(0 9.801)"><g transform="translate(10.308 3.338)"><path class="i" d="M607.452,158.632a37.825,37.825,0,0,0-37.635-34.86l-1.959,0c-21.123,1.191-31.912,19.8-30.138,40.878l3.645,84.517a3.814,3.814,0,0,0,2.19,3.289L590.961,274.7,589.5,230.342s20.311-3.116,20.6-23.415C610.24,197.123,608.888,176.911,607.452,158.632Z" transform="translate(-537.532 -123.767)"/><g transform="translate(25.549 98.706)"><path class="k" d="M587.922,223.579a49.239,49.239,0,0,1-26.584-7.84s6.226,14.623,26.486,12.836Z" transform="translate(-561.338 -215.739)"/></g><g transform="translate(21.461 30.733)"><g transform="translate(1.95 10.997)"><g transform="translate(30.667)"><g transform="translate(2.859 3.116)"><path class="h" d="M596.37,168.179a2.9,2.9,0,0,1-2.8,2.919,2.773,2.773,0,0,1-2.982-2.621,2.9,2.9,0,0,1,2.8-2.92A2.774,2.774,0,0,1,596.37,168.179Z" transform="translate(-590.585 -165.553)"/></g><path class="h" d="M599.379,165.709c-.361.377-2.553-1.252-5.673-1.251-3.117-.043-5.409,1.558-5.746,1.175-.166-.17.2-.851,1.2-1.575a7.957,7.957,0,0,1,4.6-1.407,7.632,7.632,0,0,1,4.514,1.467C599.233,164.855,599.556,165.539,599.379,165.709Z" transform="translate(-587.921 -162.65)"/></g><g transform="translate(0 0.518)"><g transform="translate(2.859 3.545)"><path class="h" d="M567.8,169.062a2.9,2.9,0,0,1-2.8,2.919,2.771,2.771,0,0,1-2.982-2.62,2.9,2.9,0,0,1,2.8-2.921A2.775,2.775,0,0,1,567.8,169.062Z" transform="translate(-562.011 -166.436)"/></g><path class="h" d="M570.806,166.192c-.362.378-2.557-1.251-5.674-1.25-3.116-.042-5.409,1.557-5.747,1.175-.165-.17.2-.851,1.2-1.574a7.952,7.952,0,0,1,4.6-1.409A7.648,7.648,0,0,1,569.7,164.6C570.657,165.338,570.982,166.023,570.806,166.192Z" transform="translate(-559.346 -163.133)"/></g><g transform="translate(21.325 0.74)"><path class="h" d="M580.624,189.336c-.014-.177,1.926-.509,5.069-.9.8-.08,1.551-.237,1.687-.781a4.066,4.066,0,0,0-.527-2.362q-1.119-2.893-2.344-6.07c-3.254-8.644-5.608-15.749-5.259-15.877s3.271,6.773,6.524,15.417q1.175,3.2,2.244,6.107a4.607,4.607,0,0,1,.407,3.127,2,2,0,0,1-1.311,1.161,5.357,5.357,0,0,1-1.353.186C582.6,189.5,580.636,189.513,580.624,189.336Z" transform="translate(-579.216 -163.339)"/></g><g transform="translate(13.038 28.875)"><path class="h" d="M572,189.555c.508-.028.507,3.358,3.4,5.767s6.5,2.044,6.524,2.518c.047.213-.8.656-2.329.694a8.436,8.436,0,0,1-5.447-1.91,7.348,7.348,0,0,1-2.634-4.835C571.393,190.373,571.773,189.535,572,189.555Z" transform="translate(-571.494 -189.555)"/></g></g><path class="h" d="M571.768,154.753c-.309.848-3.422.44-7.083.874-3.67.36-6.624,1.425-7.108.664-.216-.365.3-1.162,1.5-1.981a12.4,12.4,0,0,1,10.812-1.17C571.226,153.683,571.9,154.352,571.768,154.753Z" transform="translate(-557.529 -152.403)"/><g transform="translate(32.324 1.783)"><path class="h" d="M598.27,157.306c-.549.707-2.7-.032-5.281-.072-2.582-.131-4.774.466-5.276-.276-.22-.361.126-1.07,1.084-1.739a7.65,7.65,0,0,1,8.506.281C598.215,156.231,598.513,156.962,598.27,157.306Z" transform="translate(-587.648 -154.064)"/></g></g></g><g transform="translate(0 58.602)"><path class="i" d="M541.461,175.909c-.346-.151-13.94-4.154-13.525,9.724s14.264,10.6,14.276,10.2S541.461,175.909,541.461,175.909Z" transform="translate(-527.927 -175.26)"/><g transform="translate(4.754 4.54)"><path class="k" d="M538.713,190.394c-.062-.042-.237.176-.641.377a2.418,2.418,0,0,1-1.805.09c-1.483-.494-2.787-2.785-2.929-5.285a7.977,7.977,0,0,1,.573-3.482,2.8,2.8,0,0,1,1.763-1.91,1.231,1.231,0,0,1,1.447.62c.2.382.118.661.192.684.04.033.291-.241.162-.811a1.539,1.539,0,0,0-.572-.853,1.823,1.823,0,0,0-1.348-.313,3.4,3.4,0,0,0-2.461,2.227,8.214,8.214,0,0,0-.723,3.894c.173,2.795,1.683,5.368,3.707,5.889a2.592,2.592,0,0,0,2.2-.434C538.7,190.73,538.761,190.417,538.713,190.394Z" transform="translate(-532.357 -179.491)"/></g></g><g transform="translate(4.754)"><path class="h" d="M550.235,138.65l57.877,1.275c-1.8-3.992-5.013-7.189-8.5-9.835a45.213,45.213,0,0,0-26.207-9.431c-9.439-.165-28.654,11.331-35.491,17.84-5.471,5.208-5.437,9.715-5.437,9.715-.869,7.5,3.331,16.034,5,23.4.861,3.8,2.523,15.3,2.523,15.3h0c3.189-.011,4.373-2.549,3.889-5.7l-.6-12.369s10.846-7.708,5.707-21.814C548.174,145.9,546.415,140.749,550.235,138.65Z" transform="translate(-532.357 -120.656)"/></g><g transform="translate(34.367 61.143)"><path class="k" d="M560.369,178.373a.378.378,0,1,1,.264-.436A.362.362,0,0,1,560.369,178.373Z" transform="translate(-559.95 -177.628)"/></g><g transform="translate(40.318 59.695)"><path class="k" d="M565.925,177.131a.443.443,0,1,1,.253-.489A.394.394,0,0,1,565.925,177.131Z" transform="translate(-565.494 -176.279)"/></g><g transform="translate(44.345 59.339)"><path class="k" d="M569.664,177.065c-.189.023-.372-.208-.411-.516s.084-.577.273-.6.372.208.41.516S569.852,177.042,569.664,177.065Z" transform="translate(-569.247 -175.947)"/></g><g transform="translate(37.365 65.194)"><path class="k" d="M563.086,181.843c-.19,0-.343-.1-.343-.221s.155-.219.345-.219.343.1.343.221S563.276,181.844,563.086,181.843Z" transform="translate(-562.743 -181.403)"/></g><g transform="translate(42.8 63.599)"><path class="k" d="M568.185,180.7a.394.394,0,1,1,.309-.419A.369.369,0,0,1,568.185,180.7Z" transform="translate(-567.807 -179.916)"/></g><g transform="translate(71.211 60.272)"><path class="k" d="M594.7,177.584a.391.391,0,1,1,.262-.448A.368.368,0,0,1,594.7,177.584Z" transform="translate(-594.28 -176.817)"/></g><g transform="translate(75.308 59.812)"><path class="k" d="M598.483,177.252a.445.445,0,1,1,.3-.464A.4.4,0,0,1,598.483,177.252Z" transform="translate(-598.098 -176.388)"/></g><g transform="translate(67.643 60.534)"><path class="k" d="M591.356,177.66a.3.3,0,1,1,.279-.363A.326.326,0,0,1,591.356,177.66Z" transform="translate(-590.955 -177.06)"/></g><g transform="translate(70.534 64.448)"><path class="k" d="M594.162,181.461a.4.4,0,1,1,.156-.5A.373.373,0,0,1,594.162,181.461Z" transform="translate(-593.649 -180.707)"/></g><g transform="translate(74.254 63.942)"><path class="k" d="M597.379,180.81a.294.294,0,1,1,.409-.189A.321.321,0,0,1,597.379,180.81Z" transform="translate(-597.116 -180.236)"/></g></g><g transform="translate(9.352)"><path class="h" d="M537.216,139.959a17.113,17.113,0,0,1,17.1-21.272c2.7.111,5.389.876,8.078.582,5.008-.546,8.87-4.561,13.514-6.511A17.637,17.637,0,0,1,596.714,119c1.761,2.628,2.918,5.877,5.614,7.532,2.332,1.432,5.271,1.311,7.891,2.1,5.3,1.6,8.928,7.222,8.652,12.749a15.176,15.176,0,0,1-9.239,12.753,18.538,18.538,0,0,1-16-1.13c-4.367-2.43-8.277-6.575-13.273-6.428-5.174.151-9.694,5.03-14.772,4.018-2.661-.53-4.711-2.579-6.66-4.468s-4.191-3.812-6.9-3.972-4.12,3.562-3.151,6.1l-11.666-8.295" transform="translate(-536.641 -111.524)"/></g><g transform="translate(16.274 13.498)"><path class="j" d="M606.2,132.326a.68.68,0,0,1-.092.2,5.5,5.5,0,0,1-.337.56,9.434,9.434,0,0,1-1.658,1.885,10.289,10.289,0,0,1-3.442,1.993,9.816,9.816,0,0,1-5.252.312,10.39,10.39,0,0,1-5.538-3.15c-1.582-1.738-2.52-4.059-3.992-6.1a7.514,7.514,0,0,0-6.64-3.38,8.731,8.731,0,0,0-3.939,1.061,7.368,7.368,0,0,0-2.9,2.986c-.7,1.271-1.2,2.667-2.041,3.9a4.8,4.8,0,0,1-3.706,2.256,7.215,7.215,0,0,1-4.04-1.167,15.164,15.164,0,0,1-3.074-2.544c-1.784-1.8-3.547-3.6-5.739-4.088A7.28,7.28,0,0,0,548,128.424a10.011,10.011,0,0,0-3.193,3.955,16.429,16.429,0,0,0-1.195,3.721c-.214,1.058-.314,1.893-.383,2.458a5.9,5.9,0,0,1-.122.864.669.669,0,0,1-.013-.223c0-.146,0-.365.023-.65a22.048,22.048,0,0,1,.282-2.488,15.98,15.98,0,0,1,1.124-3.811,10.245,10.245,0,0,1,3.245-4.145,7.676,7.676,0,0,1,6.148-1.5c2.372.513,4.213,2.4,6,4.174a14.749,14.749,0,0,0,2.985,2.451,6.693,6.693,0,0,0,3.731,1.078,4.241,4.241,0,0,0,3.283-2.023c.786-1.154,1.286-2.536,2.009-3.858a7.932,7.932,0,0,1,3.122-3.2,9.26,9.26,0,0,1,4.2-1.124,8.023,8.023,0,0,1,7.07,3.624c1.509,2.128,2.419,4.424,3.92,6.093a10.019,10.019,0,0,0,5.276,3.073,9.567,9.567,0,0,0,5.07-.223,10.29,10.29,0,0,0,3.4-1.862A13.2,13.2,0,0,0,606.2,132.326Z" transform="translate(-543.091 -124.101)"/></g><g transform="translate(68.866 21.929)"><path class="j" d="M613.1,131.957a3.137,3.137,0,0,1,.235,1.116,8.834,8.834,0,0,1-.293,3.1,10.758,10.758,0,0,1-2.169,4.085,12.671,12.671,0,0,1-4.576,3.332,18.8,18.8,0,0,1-10.1,1.141,26.374,26.374,0,0,1-3.032-.6,4.108,4.108,0,0,1-1.076-.358c.02-.094,1.587.3,4.156.57a19.611,19.611,0,0,0,9.824-1.26,12.588,12.588,0,0,0,4.411-3.156,10.879,10.879,0,0,0,2.181-3.859A12.289,12.289,0,0,0,613.1,131.957Z" transform="translate(-592.095 -131.957)"/></g></g><g transform="translate(57.957 207.859)"><g transform="translate(13.232)"><path class="l" d="M527.656,305.2" transform="translate(-527.656 -305.202)"/></g><g transform="translate(13.232 22.68)"><path class="l" d="M527.656,326.335" transform="translate(-527.656 -326.335)"/></g><g transform="translate(0 19.169)"><g transform="translate(4.614)"><g transform="translate(0.012 0.211)"><path class="c" d="M519.638,341.558a11.609,11.609,0,0,0,2.431,6.015c1.241,1.613,3.765,3.192,5.8,3.076a8.838,8.838,0,0,0,7.8-3.913c2.472-3.937,3.081-12.124,1.1-16.964-1.363-3.329-4.427-6.424-8.022-6.509-4.722-.112-7.682,3.3-8.691,6.753" transform="translate(-519.638 -323.26)"/></g><path class="h" d="M520.052,330.03a7.233,7.233,0,0,1,.874-2.315,9.57,9.57,0,0,1,1.772-2.321,8.234,8.234,0,0,1,3.342-1.963,8.351,8.351,0,0,1,2.245-.358,6.768,6.768,0,0,1,2.457.323,9.678,9.678,0,0,1,4.384,3.142,12.657,12.657,0,0,1,2.577,5.367,23.1,23.1,0,0,1,.479,6.36c-.218,3.36-.878,6.705-2.738,9.262a8.288,8.288,0,0,1-3.563,2.686,9.663,9.663,0,0,1-4.033.678h.032a6.075,6.075,0,0,1-2.89-.717,9.5,9.5,0,0,1-2.174-1.516,10.811,10.811,0,0,1-2.367-3.528,10.417,10.417,0,0,1-.75-2.606,6.777,6.777,0,0,1-.068-.708c-.005-.161,0-.244.01-.245a14.479,14.479,0,0,0,1.046,3.451,10.914,10.914,0,0,0,2.378,3.362,9.3,9.3,0,0,0,2.109,1.416,5.7,5.7,0,0,0,2.681.633h.032a8.589,8.589,0,0,0,7.134-3.231c1.732-2.394,2.4-5.683,2.6-8.97.231-4.247-.481-8.525-2.9-11.371a9.255,9.255,0,0,0-4.129-3.029,6.4,6.4,0,0,0-2.3-.333,8.049,8.049,0,0,0-5.385,2.12,9.765,9.765,0,0,0-1.8,2.2A20,20,0,0,0,520.052,330.03Z" transform="translate(-519.627 -323.063)"/></g><g transform="translate(2.102 0.212)"><g transform="translate(0.011 0.211)"><path class="c" d="M517.3,341.756a11.619,11.619,0,0,0,2.432,6.015c1.241,1.613,3.765,3.192,5.8,3.076a8.837,8.837,0,0,0,7.8-3.913c2.473-3.937,3.082-12.124,1.1-16.964-1.364-3.329-4.427-6.424-8.023-6.509-4.721-.112-7.681,3.3-8.69,6.753" transform="translate(-517.296 -323.458)"/></g><path class="h" d="M517.711,330.228a7.234,7.234,0,0,1,.874-2.315,9.515,9.515,0,0,1,1.772-2.321,8.227,8.227,0,0,1,3.342-1.963,8.351,8.351,0,0,1,2.245-.358,6.79,6.79,0,0,1,2.457.322,9.68,9.68,0,0,1,4.383,3.143,12.658,12.658,0,0,1,2.578,5.367,23.131,23.131,0,0,1,.479,6.36c-.218,3.36-.878,6.705-2.738,9.262a8.3,8.3,0,0,1-3.563,2.686,9.7,9.7,0,0,1-4.033.678h.032a6.082,6.082,0,0,1-2.891-.716,9.49,9.49,0,0,1-2.173-1.516,10.811,10.811,0,0,1-2.367-3.528,10.373,10.373,0,0,1-.75-2.606,6.756,6.756,0,0,1-.068-.708c-.005-.161,0-.244.01-.245a14.419,14.419,0,0,0,1.046,3.451,10.9,10.9,0,0,0,2.378,3.362A9.3,9.3,0,0,0,522.831,350a5.7,5.7,0,0,0,2.681.633h.032a8.585,8.585,0,0,0,7.134-3.23c1.732-2.394,2.4-5.683,2.6-8.97.231-4.247-.481-8.525-2.9-11.371a9.265,9.265,0,0,0-4.13-3.029,6.392,6.392,0,0,0-2.3-.333,8.113,8.113,0,0,0-2.144.307,8.027,8.027,0,0,0-3.241,1.813,9.757,9.757,0,0,0-1.8,2.2A20.014,20.014,0,0,0,517.711,330.228Z" transform="translate(-517.286 -323.261)"/></g><g transform="translate(0 5.811)"><g transform="translate(0.242 0.08)"><path class="c" d="M521.979,328.633a5.527,5.527,0,0,0-5.763,3.321,9.528,9.528,0,0,0,.013,7,8.677,8.677,0,0,0,1.787,3.155,4.722,4.722,0,0,0,3.2,1.557,5.577,5.577,0,0,0,4.43-2.619,9.989,9.989,0,0,0,1.513-8.233c-.489-1.861-1.859-3.768-3.782-3.82" transform="translate(-515.553 -328.553)"/></g><path class="h" d="M523.4,329a1.044,1.044,0,0,1,.426-.011,2.982,2.982,0,0,1,1.164.394,5.706,5.706,0,0,1,2.454,3.694,10.136,10.136,0,0,1-.662,6.569,8.55,8.55,0,0,1-2.405,3.158,4.653,4.653,0,0,1-4.142.992,5.773,5.773,0,0,1-3.309-2.7,12.055,12.055,0,0,1-1.379-3.708,8.255,8.255,0,0,1,1.072-6.482,5.757,5.757,0,0,1,3.745-2.38,4.067,4.067,0,0,1,1.224,0c.274.058.414.1.41.116a8.058,8.058,0,0,0-1.6.1,5.7,5.7,0,0,0-3.459,2.394,7.95,7.95,0,0,0-.891,6.152,11.8,11.8,0,0,0,1.343,3.528,5.258,5.258,0,0,0,2.99,2.449,4.119,4.119,0,0,0,3.655-.884,8.125,8.125,0,0,0,2.275-2.945,9.907,9.907,0,0,0,.744-6.263,5.646,5.646,0,0,0-2.183-3.6A4.544,4.544,0,0,0,523.4,329Z" transform="translate(-515.327 -328.478)"/></g><g transform="translate(6.446 20.894)"><path class="h" d="M526.97,345.253c-.086.021-.2-.338-.571-.769a4,4,0,0,0-1.832-1.174,10.061,10.061,0,0,0-2.253-.35c-.6-.044-.979-.092-.981-.172s.366-.166.978-.223a6.343,6.343,0,0,1,2.423.211,3.563,3.563,0,0,1,1.987,1.479C527.055,344.821,527.034,345.245,526.97,345.253Z" transform="translate(-521.333 -342.532)"/></g><g transform="translate(6.636 4.5)"><path class="h" d="M527.8,327.267c.049.047-.165.383-.665.778a5.34,5.34,0,0,1-4.726.854c-.606-.2-.925-.435-.9-.5a8.063,8.063,0,0,0,6.287-1.135Z" transform="translate(-521.51 -327.256)"/></g></g></g></g><g transform="translate(60.465 127.888)"><g transform="translate(112.873)"><g transform="translate(14.759)"><path class="h" d="M257.257,154.566c.133-4.676-4.191-8.288-8.543-10s-9.19-2.359-13.07-4.97c-3.435-2.312-5.744-5.919-8.652-8.867a28.789,28.789,0,0,0-48.418,13.209c-1.672,6.658-.53,14.53,4.718,18.955,6.092,5.134,15.122,3.995,22.927,2.4s16.639-3.174,23.156,1.41c3.929,2.764,6.182,7.26,8.585,11.421s5.418,8.41,9.961,9.974,10.712-1.137,10.889-5.938" transform="translate(-177.859 -122.207)"/></g><g transform="translate(0 14.03)"><path class="h" d="M257.948,156.175c-.514,3.918,2.321,7.427,5.145,10.193s6.011,5.7,6.51,9.621c.582,4.579-2.761,9.09-1.791,13.6.615,2.866,2.843,5.072,4.2,7.672a16.31,16.31,0,0,1,.832,12.015c-1.163,3.946-3.018,12.759-5.761,15.826-7.587,8.482-19.665,15.8-30.754,18.348s-22.608,2.563-33.966,1.864c-9.3-.572-19.989-.145-27.736-12.936-4.013-6.624-6-15.433-8.134-22.879-1.836-6.411-3.424-13.277-1.515-19.666,1.113-3.723,3.353-7.034,4.45-10.761,1.369-4.657.87-9.636,1.421-14.459a33.174,33.174,0,0,1,47.2-26.194" transform="translate(-164.108 -135.279)"/></g><g transform="translate(10.25 6.576)"><g transform="translate(0 16.068)"><path class="i" d="M174.592,171.654c.871-13.342,9.748-29.695,23.041-28.259l41.494,10.585a7.824,7.824,0,0,1,6.982,7.95l-4.664,100.106.288.063s-9.458,28.235-36.9,19.61c-5.441-1.711-7.925-7.662-9-13.783l-.281.036c-.011-.728-.019-1.4-.029-2.1a65.517,65.517,0,0,1-.163-13.746h0c-.077-8.082-.069-11.4-.074-11.322,0,0-17.042-2.868-20.524-25.119C173.029,204.613,173.625,186.476,174.592,171.654Z" transform="translate(-173.658 -143.307)"/></g><g transform="translate(4.802 11.325)"><g transform="translate(0 30.484)"><g transform="translate(0 9.063)"><g transform="translate(2.813 4.376)"><path class="h" d="M180.756,182.385a2.851,2.851,0,0,0,2.744,2.884,2.728,2.728,0,0,0,2.946-2.565,2.855,2.855,0,0,0-2.741-2.886A2.73,2.73,0,0,0,180.756,182.385Z" transform="translate(-180.754 -179.814)"/></g><path class="h" d="M178.178,178.723c.352.372,2.518-1.221,5.587-1.207,3.066-.029,5.316,1.555,5.649,1.181.164-.166-.2-.838-1.174-1.555a7.837,7.837,0,0,0-4.521-1.4,7.522,7.522,0,0,0-4.449,1.425C178.325,177.883,178,178.555,178.178,178.723Z" transform="translate(-178.133 -175.736)"/><g transform="translate(30.172 0.64)"><g transform="translate(2.814 3.737)"><path class="h" d="M208.87,182.385a2.851,2.851,0,0,0,2.744,2.884,2.728,2.728,0,0,0,2.946-2.565,2.855,2.855,0,0,0-2.742-2.886A2.729,2.729,0,0,0,208.87,182.385Z" transform="translate(-208.868 -179.814)"/></g><path class="h" d="M206.291,179.319c.354.372,2.521-1.221,5.588-1.206,3.066-.03,5.316,1.554,5.649,1.179.163-.166-.191-.838-1.174-1.555a7.829,7.829,0,0,0-4.521-1.4,7.521,7.521,0,0,0-4.448,1.425C206.441,178.479,206.118,179.151,206.291,179.319Z" transform="translate(-206.247 -176.332)"/></g><g transform="translate(11.21 0.792)"><path class="h" d="M196.394,202.048c.015-.174-1.892-.508-4.984-.91-.783-.083-1.525-.24-1.656-.775a3.989,3.989,0,0,1,.529-2.322q1.111-2.843,2.331-5.964c3.238-8.49,5.584-15.474,5.241-15.6s-3.246,6.652-6.484,15.142q-1.169,3.141-2.233,6a4.535,4.535,0,0,0-.413,3.076,1.964,1.964,0,0,0,1.286,1.148,5.292,5.292,0,0,0,1.331.188C194.452,202.2,196.382,202.223,196.394,202.048Z" transform="translate(-188.578 -176.474)"/></g><g transform="translate(16.825 54.806)"><path class="k" d="M193.81,234.683a56.588,56.588,0,0,0,29.807-7.88s-7.523,15.38-29.781,13.25Z" transform="translate(-193.81 -226.803)"/></g><g transform="translate(20 31.69)"><path class="k" d="M197.076,207.341a5.533,5.533,0,0,1,4.964-2.043,5.048,5.048,0,0,1,3.483,1.879,3.2,3.2,0,0,1,.235,3.659,3.71,3.71,0,0,1-4.026,1.009,11.612,11.612,0,0,1-3.918-2.35,3.387,3.387,0,0,1-.875-.91,1.025,1.025,0,0,1,.008-1.142" transform="translate(-196.769 -205.264)"/></g><g transform="translate(18.254 28.509)"><path class="h" d="M204.943,202.3c-.5-.03-.513,3.3-3.37,5.661s-6.4,1.984-6.43,2.449c-.047.209.789.649,2.288.693a8.293,8.293,0,0,0,5.367-1.857,7.226,7.226,0,0,0,2.612-4.747C205.54,203.108,205.17,202.282,204.943,202.3Z" transform="translate(-195.141 -202.3)"/></g></g><g transform="translate(28.832 5.024)"><path class="h" d="M205.014,174.26c.3.835,3.367.446,6.966.889,3.61.37,6.511,1.431,6.991.683.214-.357-.291-1.143-1.463-1.954a12.213,12.213,0,0,0-10.633-1.2C205.552,173.209,204.884,173.864,205.014,174.26Z" transform="translate(-204.998 -171.972)"/></g><g transform="translate(1.115)"><path class="h" d="M179.25,170.459c.538.7,2.654-.02,5.2-.048,2.541-.118,4.694.479,5.192-.25.218-.353-.12-1.052-1.059-1.714a7.521,7.521,0,0,0-8.371.24C179.309,169.4,179.013,170.119,179.25,170.459Z" transform="translate(-179.172 -167.291)"/></g></g><g transform="translate(14.031)"><path class="h" d="M253.373,227.483a19.752,19.752,0,0,1-23.5-21.842c.692-5.463,3.637-11.021,1.743-16.192-2.5-6.836-12.087-8.939-14.629-15.76-1.478-3.966-.151-8.6-1.827-12.489-1.576-3.653-5.42-5.758-9.161-7.11s-7.754-2.287-10.9-4.729-5.1-7.051-3.074-10.475a210.731,210.731,0,0,1,48.6,11.81c3.63,1.355,7.443,2.985,9.589,6.211,2.271,3.415,2.161,7.826,1.97,11.921q-1.4,29.959-2.8,59.917" transform="translate(-191.207 -138.887)"/></g></g><g transform="translate(17.414)"><path class="j" d="M252.075,235.9a1.429,1.429,0,0,0,.36-.23l.99-.753c.86-.674,2.124-1.675,3.684-3.052a39.267,39.267,0,0,0,5.23-5.5,20.53,20.53,0,0,0,4.159-9.156,13.928,13.928,0,0,0-2.869-11.7,45.085,45.085,0,0,0-5.183-4.418,12.1,12.1,0,0,1-4.042-5.513c-1.645-4.535-.912-9.786-1.548-15.152a30.164,30.164,0,0,0-6.306-15.326,20.8,20.8,0,0,0-6.6-5.391,40.59,40.59,0,0,0-7.784-2.627,18.131,18.131,0,0,1-6.83-3.366,26.865,26.865,0,0,1-4.958-5.467c-2.794-3.969-4.86-8.2-7.521-11.723a25.421,25.421,0,0,0-4.383-4.653,16.742,16.742,0,0,0-5.2-2.83c-3.59-1.226-7.379-.82-9.879.985a9.1,9.1,0,0,0-3.508,6.657,6.635,6.635,0,0,0,1.338,4.582,4.112,4.112,0,0,0,.907.868c.225.171.344.25.354.236s-.089-.12-.29-.312a4.824,4.824,0,0,1-.815-.911,6.589,6.589,0,0,1-1.115-4.436,8.739,8.739,0,0,1,3.447-6.24c2.347-1.633,5.926-1.987,9.34-.774A16.109,16.109,0,0,1,208,132.455,24.9,24.9,0,0,1,212.21,137c2.578,3.469,4.6,7.686,7.436,11.759a27.608,27.608,0,0,0,5.107,5.674A19.032,19.032,0,0,0,231.9,158a40.259,40.259,0,0,1,7.61,2.574,19.914,19.914,0,0,1,6.286,5.147,29.344,29.344,0,0,1,6.109,14.824c.647,5.187-.1,10.516,1.652,15.341a12.961,12.961,0,0,0,4.341,5.866,45.274,45.274,0,0,1,5.126,4.3,13.233,13.233,0,0,1,2.79,11.052,20.126,20.126,0,0,1-3.914,8.94,40.935,40.935,0,0,1-5.048,5.55c-1.512,1.411-2.736,2.46-3.553,3.182A10.971,10.971,0,0,0,252.075,235.9Z" transform="translate(-189.884 -128.335)"/></g></g></g><g transform="translate(194.719 107.137)"><g transform="translate(0 7.829)"><path class="h" d="M252.439,231.267c4.572-4.42,12.384-.577,16.221,4.495s6.555,11.608,12.381,14.158,13.4.357,18.292,4.418c6.742,5.6,2.957,18.58,10.245,23.447,2.893,1.933,6.71,1.864,9.8,3.459,7.287,3.757,7.2,14.038,6.074,22.16-1.58,11.4-3.312,23.214-9.6,32.849s-18.533,16.416-29.423,12.7c-10.465-3.573-15.836-14.865-20.093-25.072Q257.5,302.7,248.668,281.517c-3.407-8.169-6.848-16.461-7.957-25.242s.382-18.264,5.966-25.132" transform="translate(-240.37 -229.329)"/></g><g transform="translate(2.902)"><path class="e" d="M255.174,222.062c3.323-.4,5.858,3.67,4.984,6.9s-3.976,5.386-7.137,6.491a10.656,10.656,0,0,1-5.513.636,5.43,5.43,0,0,1-4.174-3.358,3.16,3.16,0,0,1,1.528-4.173c2.185-1.367,3.466-2.441,5.191-3.391,2.639-1.455,2.481-1.652,5.12-3.107" transform="translate(-243.073 -222.034)"/></g></g><g transform="translate(70.712 121.851)"><g transform="translate(54.872)"><g transform="translate(0 8.219)"><path class="e" d="M183.64,256.29l12.907-9.779,48.623-3.108,1.956,6.52-15.816,98.7,12.477,117.751H175.951Z" transform="translate(-175.951 -243.403)"/></g><g class="f" transform="translate(3.016 183.089)"><path d="M235.5,412.667c-1.551-1.656-4.1-3.935-6.363-3.986-16.241-.357-32.833-1.981-49.074-2.339l-1.3,48.121c3.885-6.85,7.562-13.978,8.585-21.786.448-3.411,1.02-7.487,4.134-8.947,1.761-.826,3.825-.5,5.734-.126,5.866,1.16,11.694,2.676,17.663,3.046s12.215-.5,17.228-3.76a10.518,10.518,0,0,0,4.121-4.452A5.451,5.451,0,0,0,235.5,412.667Z" transform="translate(-178.761 -406.343)"/></g><g transform="translate(16.373)"><path class="e" d="M193.041,258.842l-1.5-14.113a4.473,4.473,0,0,1,4.046-4.93l44.763-4.045a2.113,2.113,0,0,1,2.3,2.041l.5,16.789-12.962,22-13.324,4.24h-16.29l-9.37-10.007Z" transform="translate(-191.207 -235.745)"/><g transform="translate(0.739 12.777)"><path class="h" d="M236.5,248.328c-.01.046-.642-.067-1.79-.184a31.674,31.674,0,0,0-4.879-.083,47.975,47.975,0,0,0-7.167,1.032c-2.673.56-5.579,1.348-8.658,2.1a56.837,56.837,0,0,1-8.813,1.569,22.771,22.771,0,0,1-7.306-.494,15.428,15.428,0,0,1-4.56-1.9,11.453,11.453,0,0,1-1.089-.786c-.233-.2-.349-.311-.337-.326.029-.039.536.36,1.538.925a16.734,16.734,0,0,0,4.539,1.7,23.327,23.327,0,0,0,7.173.365,60.283,60.283,0,0,0,8.725-1.6c3.067-.746,5.986-1.522,8.684-2.058a44.3,44.3,0,0,1,7.253-.922,26.616,26.616,0,0,1,4.924.261c.575.094,1.018.18,1.316.259A1.535,1.535,0,0,1,236.5,248.328Z" transform="translate(-191.895 -247.65)"/></g><g class="f" transform="translate(2.104 13.043)"><path d="M193.964,250.527c-1.2,3.295-1.232,7.376,1.2,9.9,1.982,2.058,5.163,2.572,7.967,2.013a25.3,25.3,0,0,0,7.781-3.494c6.162-3.668,12.424-7.464,19.423-9.019a2.534,2.534,0,0,0,1.258-.525.829.829,0,0,0,.041-1.212,1.171,1.171,0,0,0-.58-.166c-6.191-.621-12.338,1.129-18.409,2.492s-12.552,2.328-18.406.216" transform="translate(-193.167 -247.898)"/></g><g transform="translate(8.734 3.584)"><path class="h" d="M202.063,239.1a4.1,4.1,0,0,0-1.531,1.465c-.707,1.134-.669,3.061-.612,5.143.115,4.177.8,7.516.641,7.55a7.411,7.411,0,0,1-.606-2.158,33.294,33.294,0,0,1-.593-5.375,24.531,24.531,0,0,1,.061-2.992,5.24,5.24,0,0,1,.773-2.376,3.087,3.087,0,0,1,1.264-1.124C201.828,239.068,202.057,239.07,202.063,239.1Z" transform="translate(-199.345 -239.084)"/></g><g transform="translate(21.353 2.384)"><path class="h" d="M213.03,251.452a66.156,66.156,0,0,0-.321-6.832,66.63,66.63,0,0,0-1.592-6.653,5.966,5.966,0,0,1,.915,1.818,21.978,21.978,0,0,1,1.37,9.667A5.918,5.918,0,0,1,213.03,251.452Z" transform="translate(-211.103 -237.966)"/></g><g transform="translate(36.878 1.201)"><path class="h" d="M226.38,236.865a4.245,4.245,0,0,1,.853,1.661,11.548,11.548,0,0,1-.587,8.836,4.265,4.265,0,0,1-1.066,1.534,14.787,14.787,0,0,0,.8-12.031Z" transform="translate(-225.569 -236.864)"/></g></g></g><g transform="translate(0 13.919)"><g transform="translate(0 13.535)"><path class="a" d="M171,261.326s-15.259,10.22-19.269,28.681c-3.152,14.51-11.787,91.155-11.787,91.155L124.823,410.6l9.871,23.482h0a36.059,36.059,0,0,0,23.715-6.781l6.644-4.821,12.18-18.072Z" transform="translate(-124.823 -261.326)"/></g><g transform="translate(26.904)"><path class="a" d="M195.034,248.714l-25.873,13.535-6.105,20.065-5.442,58.156,10.243,68.181-17.965,57.125,30.983.231.736-33.487L184.7,324.125l3.04-69.048Z" transform="translate(-149.892 -248.714)"/></g><g transform="translate(50.456 6.015)"><path class="h" d="M180.9,338.659a5.854,5.854,0,0,1-.481-.807q-.476-.879-1.287-2.373c-.536-1.043-1.054-2.383-1.726-3.908-.319-.769-.58-1.623-.9-2.512s-.656-1.831-.914-2.847c-2.435-8.032-4.047-19.632-3.708-32.427.034-.991.072-1.97.14-2.946l.012-.17.158-.067,4.528-1.9-.064.469-4.523-3.635-.094-.075,0-.112a39.326,39.326,0,0,1,2.061-12.937c1.139-3.785,2.386-7.047,3.476-9.727s2.047-4.775,2.727-6.2c.339-.713.609-1.258.8-1.623a3.029,3.029,0,0,1,.311-.543,3.555,3.555,0,0,1-.228.583c-.181.419-.421.968-.719,1.657-.629,1.446-1.53,3.56-2.58,6.249s-2.249,5.956-3.35,9.731a39.523,39.523,0,0,0-1.965,12.765l-.1-.187L177,288.738l.361.289-.426.18-4.526,1.909.17-.235c-.065.956-.1,1.937-.136,2.92-.337,12.736,1.2,24.288,3.529,32.3.245,1.015.577,1.952.871,2.844s.551,1.742.853,2.513c.642,1.526,1.129,2.873,1.631,3.926q.749,1.518,1.189,2.413A6.034,6.034,0,0,1,180.9,338.659Z" transform="translate(-171.837 -254.319)"/></g><g transform="translate(33.854 45.633)"><path class="h" d="M161.73,376.681a5.214,5.214,0,0,1-.249-.841q-.229-.911-.612-2.44c-.267-1.059-.574-2.36-.874-3.883s-.694-3.246-1-5.176c-.338-1.924-.7-4.034-.988-6.314-.346-2.273-.582-4.717-.856-7.287-.465-5.146-.777-10.824-.782-16.789.027-5.967.361-11.646.845-16.792.284-2.568.53-5.012.884-7.284.3-2.278.666-4.387,1.012-6.311.313-1.929.709-3.652,1.021-5.172s.617-2.822.888-3.88q.39-1.528.62-2.437a5.237,5.237,0,0,1,.253-.84,5.229,5.229,0,0,1-.144.867q-.193.918-.517,2.459c-.238,1.065-.519,2.369-.794,3.894s-.649,3.249-.937,5.177c-.32,1.923-.664,4.031-.942,6.306-.334,2.268-.561,4.707-.831,7.27-.455,5.133-.772,10.794-.8,16.743.005,5.947.3,11.608.735,16.742.261,2.563.479,5,.8,7.272.269,2.276.606,4.384.92,6.308.28,1.93.642,3.656.918,5.182s.545,2.831.779,3.9q.319,1.544.509,2.461A5.116,5.116,0,0,1,161.73,376.681Z" transform="translate(-156.367 -291.234)"/></g><g transform="translate(33.838 183.432)"><path class="h" d="M168.729,419.633a11.8,11.8,0,0,1-1.257,2.6,42.5,42.5,0,0,1-8.813,10.758,11.672,11.672,0,0,1-2.3,1.744,20,20,0,0,1,2.037-2.035,59.006,59.006,0,0,0,8.742-10.673A19.853,19.853,0,0,1,168.729,419.633Z" transform="translate(-156.353 -419.632)"/></g></g><g transform="translate(93.032 4.958)"><g transform="translate(0.305 19.173)"><path class="a" d="M283.559,259.893a35.6,35.6,0,0,1,21.873,25.328c8.461,37.31,22.944,86.938,23.172,102.949.29,20.392-8.628,34.353-20.267,36.926-9.2,2.035-92.645-2.532-92.645-2.532l-3.9-31.088,67.567-9.948-9.252-51.7,9.157-71.6Z" transform="translate(-211.792 -258.23)"/></g><g transform="translate(15.229)"><path class="a" d="M278.245,259.538,259.563,251.9l-19.7-11.539-.124,3.375h0a19.769,19.769,0,0,1,2.343,13.691l-16.388,85.5,3.718,62.468,7.626,61.217H296.3L269.088,402.6l9.6-86.269Z" transform="translate(-225.698 -240.365)"/></g><g transform="translate(0 141.784)"><path class="h" d="M296.591,417.253a2.262,2.262,0,0,1-.4.057l-1.192.114c-1.052.115-2.609.1-4.619.157-4.021.019-9.858-.087-17.118-.324-14.521-.485-34.74-1.456-57.56-2.78l-.23-.014-.029-.229c-.466-3.7-.956-7.61-1.455-11.576-.839-6.709-1.658-13.25-2.443-19.513l-.033-.265.265-.039,51.6-7.5,15.15-2.15,4.071-.553,1.055-.131a1.939,1.939,0,0,1,.361-.028,1.956,1.956,0,0,1-.353.077l-1.047.178-4.058.645-15.126,2.31-51.567,7.692.231-.3c.788,6.262,1.611,12.8,2.456,19.511.5,3.966.986,7.872,1.451,11.576l-.259-.241c22.815,1.34,43.027,2.379,57.54,2.963,7.257.285,13.088.45,17.1.493,2.006-.02,3.564.023,4.612-.058l1.193-.063A2.586,2.586,0,0,1,296.591,417.253Z" transform="translate(-211.508 -372.476)"/></g><g transform="translate(58.068 85.552)"><path class="h" d="M265.624,320.08a2.5,2.5,0,0,1,.145.574c.087.44.194.987.326,1.656.278,1.521.657,3.588,1.117,6.107l3.515,20.179c1.31,7.856,2.494,14.965,3.369,20.208.395,2.531.72,4.606.958,6.133.094.675.171,1.228.233,1.673a2.412,2.412,0,0,1,.044.589,2.328,2.328,0,0,1-.155-.571c-.09-.439-.2-.986-.337-1.655-.282-1.52-.666-3.586-1.133-6.1-.934-5.159-2.185-12.293-3.53-20.18s-2.529-15.029-3.354-20.208c-.389-2.532-.707-4.608-.942-6.137-.09-.677-.164-1.231-.223-1.676A2.307,2.307,0,0,1,265.624,320.08Z" transform="translate(-265.615 -320.08)"/></g><g transform="translate(17.087 6.021)"><path class="h" d="M248.333,245.975a.727.727,0,0,1,.075.207l.173.625c.136.554.378,1.363.6,2.432a76.243,76.243,0,0,1,1.425,9.2,104.3,104.3,0,0,1,.355,14.038c-.182,5.336-.748,11.24-1.553,17.493l-.026.2-.2.038-6.107,1.132.208-.377c.347.938.709,1.947.987,2.99,1.987,7.253,1.114,14.589-.7,20.726a65.3,65.3,0,0,1-7.174,15.457c-2.549,4.136-4.855,7.317-6.438,9.517l-1.853,2.513-.495.644c-.114.144-.176.214-.185.208a1.1,1.1,0,0,1,.138-.241l.45-.676,1.767-2.574c1.528-2.237,3.782-5.45,6.278-9.6a66.39,66.39,0,0,0,7.019-15.4c1.767-6.081,2.6-13.319.652-20.433-.274-1.024-.628-2.013-.967-2.933l-.117-.317.325-.06,6.109-1.126-.223.235c.816-6.241,1.4-12.124,1.616-17.44a108.582,108.582,0,0,0-.232-13.987,85.52,85.52,0,0,0-1.258-9.194c-.19-1.072-.4-1.888-.5-2.448-.05-.254-.091-.463-.124-.635A.756.756,0,0,1,248.333,245.975Z" transform="translate(-227.429 -245.975)"/></g><g transform="translate(32.915 77.326)"><path class="e" d="M247.251,328.81v-13.64s.177-3.366-2.657-2.657-2.3,6.023-2.3,6.023-.531,20.726.709,20.549,1.716-1.772,1.716-1.772v-7.971Z" transform="translate(-242.178 -312.416)"/></g><g transform="translate(35.164 94.292)"><path class="h" d="M258.888,328.5a47.942,47.942,0,0,1-7.308.28,47.93,47.93,0,0,1-7.308-.28,48.008,48.008,0,0,1,7.308-.279A48.02,48.02,0,0,1,258.888,328.5Z" transform="translate(-244.273 -328.224)"/></g><g transform="translate(55.216 28.922)"><path class="h" d="M284.51,267.319a9.966,9.966,0,0,1-1.528.567,35.5,35.5,0,0,0-4.054,1.754,31.521,31.521,0,0,0-10.964,9.342,23.281,23.281,0,0,0-2.155,3.512,22.174,22.174,0,0,0-1.3,3.612,36.254,36.254,0,0,0-1.088,6.446c-.159,1.861-.19,3.376-.2,4.423a12.961,12.961,0,0,1-.039,1.629,7.052,7.052,0,0,1-.179-1.625,40.729,40.729,0,0,1,.026-4.456,33.9,33.9,0,0,1,.984-6.549,22.042,22.042,0,0,1,1.3-3.714,23.04,23.04,0,0,1,2.2-3.606,30.363,30.363,0,0,1,11.239-9.367,28.215,28.215,0,0,1,4.163-1.608A8.361,8.361,0,0,1,284.51,267.319Z" transform="translate(-262.957 -267.314)"/></g></g></g><g transform="translate(0 238.628)"><g transform="translate(0 30.513)"><path class="h" d="M58.935,372.986l97.616,36.155,82.286,12.579L141,374.025Z" transform="translate(-58.935 -372.986)"/><g transform="translate(35.122 12.37)"><g transform="translate(0 5.344)"><path class="i" d="M98.316,410.762a41.59,41.59,0,0,0-5.2-14.789,11.061,11.061,0,0,1-1.332-2.777,3.184,3.184,0,0,1,.553-2.914c1.254-1.364,3.544-.757,5.083.274a17.916,17.916,0,0,1,6.573,9.2,53.336,53.336,0,0,1,2.149,11.285" transform="translate(-91.662 -389.492)"/></g><g transform="translate(2.539)"><path class="i" d="M136.188,401.833h-4.854a9.465,9.465,0,0,0-4.256-2.446c-1.119-.32-2.219.276-3.211,1.25,2.169-3.575,4.509-7.51,4.958-8.588.873-2.1-1.049-3.669-4.193-3.669s-16.947,19.568-16.947,19.568,8.578-15.739,9.409-18.143c2.078-6.01-4.492-6.459-6.879-3.559-2.961,3.6-14.934,21.7-14.934,21.7s-2.271,3.668-.7,7.163,6.115,2.1,6.115,2.1a5.86,5.86,0,0,0,3.2,4.857c3.505,1.948,8.118-.311,8.118-.311l17.854,4.015s2.834-.287,6.463-.646A19.822,19.822,0,0,0,153.982,408.3h0Z" transform="translate(-94.027 -384.512)"/><g transform="translate(19.026 15.854)"><path class="k" d="M122.857,399.285c.2.121-2.174,3.86-5.26,8.341-1.543,2.243-2.972,4.252-4.029,5.69a14.73,14.73,0,0,1-1.808,2.259,15.059,15.059,0,0,1,1.483-2.484c.974-1.495,2.35-3.539,3.894-5.781s2.958-4.257,3.995-5.708c.456-.631.866-1.2,1.239-1.71A3.594,3.594,0,0,1,122.857,399.285Z" transform="translate(-111.756 -399.285)"/></g><g transform="translate(29.052 16.117)"><path class="k" d="M121.1,419.186a16.343,16.343,0,0,1,1.585-2.925c1.054-1.759,2.56-4.159,4.21-6.811.821-1.328,1.614-2.594,2.262-3.763a4.327,4.327,0,0,0,.393-3.313,8.211,8.211,0,0,0-1.524-2.843c.019-.024.3.148.694.579a5.731,5.731,0,0,1,1.211,2.157,4.644,4.644,0,0,1-.318,3.658c-.641,1.216-1.42,2.486-2.243,3.819-1.656,2.658-3.213,5.025-4.353,6.728A24.393,24.393,0,0,1,121.1,419.186Z" transform="translate(-121.098 -399.53)"/></g><g transform="translate(36.154 23.086)"><path class="k" d="M130.008,420.489a10.241,10.241,0,0,1,.95-2.786l1.276-2.911a23.174,23.174,0,0,0,1.31-3.6,4.208,4.208,0,0,0-.565-3.489,3.333,3.333,0,0,0-1.275-.909,3.583,3.583,0,0,0-1.331-.371,5.3,5.3,0,0,0-1.923.672c-.453.225-.717.334-.735.3s.2-.2.627-.488a9.294,9.294,0,0,1,.8-.482,2.971,2.971,0,0,1,1.228-.4,3.794,3.794,0,0,1,1.522.342,3.711,3.711,0,0,1,1.489,1.01,4.618,4.618,0,0,1,.707,3.937A20.668,20.668,0,0,1,132.7,415c-.5,1.091-.988,2.054-1.388,2.865C130.506,419.483,130.084,420.512,130.008,420.489Z" transform="translate(-127.715 -406.023)"/></g><g transform="translate(41.735 20.646)"><path class="k" d="M132.916,403.758a1.93,1.93,0,0,1,.76.23,8.761,8.761,0,0,1,1.866,1.1,10.181,10.181,0,0,1,2.889,12.944,8.793,8.793,0,0,1-1.222,1.785c-.344.378-.566.555-.59.531-.08-.067.714-.878,1.457-2.491a10.343,10.343,0,0,0-2.781-12.461C133.937,404.249,132.872,403.851,132.916,403.758Z" transform="translate(-132.915 -403.75)"/></g></g><g transform="translate(4.282 10.387)"><path class="k" d="M104.2,394.192a52.21,52.21,0,0,1-4.042,6.47,52.423,52.423,0,0,1-4.505,6.157,52.151,52.151,0,0,1,4.043-6.47A52.207,52.207,0,0,1,104.2,394.192Z" transform="translate(-95.651 -394.19)"/></g></g></g><g transform="translate(98.304 25.951)"><path class="i" d="M215.984,384.553l-11.159-2.53-10.717-10.1a7.614,7.614,0,0,0-4.78-2.057l-19.5-1.123a7.613,7.613,0,0,0-5.348,1.784l-13.944,11.782,60.82,29.65,8.348.737Z" transform="translate(-150.533 -368.735)"/><g transform="translate(8.899 9.425)"><path class="k" d="M182.317,378.7c-.016.089-1.447-.176-3.757-.469-2.276-.25-5.622-.569-8.832.917a22.911,22.911,0,0,0-4.209,2.63c-1.234.925-2.34,1.784-3.317,2.442a18.026,18.026,0,0,1-2.412,1.4,3.348,3.348,0,0,1-.964.35c-.039-.085,1.286-.675,3.147-2.077.937-.691,2.009-1.574,3.234-2.53a21.649,21.649,0,0,1,4.291-2.729,12.594,12.594,0,0,1,4.981-1.114,22.064,22.064,0,0,1,4.136.316c1.162.189,2.088.4,2.725.557A3.529,3.529,0,0,1,182.317,378.7Z" transform="translate(-158.825 -377.518)"/></g><g transform="translate(22.778 20.545)"><path class="k" d="M185.369,388.8c-.036.089-.8-.261-2.1-.4a11.354,11.354,0,0,0-5.017.7,26.382,26.382,0,0,0-4.592,2.357,9.259,9.259,0,0,1-1.9,1.059,7.822,7.822,0,0,1,1.679-1.389,19.811,19.811,0,0,1,4.619-2.553,10.279,10.279,0,0,1,5.264-.563A4.117,4.117,0,0,1,185.369,388.8Z" transform="translate(-171.757 -387.878)"/></g><g transform="translate(53.976 13.191)"><path class="k" d="M208.342,391.1c-.136.085-1.71-2.245-3.781-5.017s-3.849-4.951-3.728-5.057a37.83,37.83,0,0,1,7.509,10.074Z" transform="translate(-200.827 -381.027)"/></g></g><g transform="translate(121.631)"><path class="e" d="M179.72,371.673l24.725-23.029a2.361,2.361,0,0,0-.173-3.6h0a2.36,2.36,0,0,0-3.014.115l-28.991,26" transform="translate(-172.268 -344.555)"/></g><g class="f" transform="translate(121.631)"><path d="M179.72,371.673l24.725-23.029a2.361,2.361,0,0,0-.173-3.6h0a2.36,2.36,0,0,0-3.014.115l-28.991,26" transform="translate(-172.268 -344.555)"/></g></g></g><g transform="translate(301.403 117.674)"><g transform="translate(0)"><g transform="translate(75.663)"><g transform="translate(0 53.516)"><path class="m" d="M368.423,163.124c-.382-.155-15.353-4.081-14.448,11.058s15.917,11.107,15.918,10.67S368.423,163.124,368.423,163.124Z" transform="translate(-353.936 -162.554)"/><g transform="translate(3.877 5.028)"><path class="n" d="M364.661,179.051c-.069-.044-.252.2-.686.431a2.64,2.64,0,0,1-1.968.159c-1.635-.492-3.134-2.95-3.37-5.674a8.713,8.713,0,0,1,.512-3.821A3.05,3.05,0,0,1,361.011,168a1.345,1.345,0,0,1,1.6.629c.229.412.15.72.232.741.045.035.31-.273.15-.891a1.682,1.682,0,0,0-.652-.913,2,2,0,0,0-1.481-.3,3.712,3.712,0,0,0-2.614,2.512,8.968,8.968,0,0,0-.662,4.275c.28,3.045,2.012,5.806,4.238,6.307a2.829,2.829,0,0,0,2.388-.545C364.657,179.419,364.716,179.075,364.661,179.051Z" transform="translate(-357.548 -167.24)"/></g></g><g transform="translate(10.692)"><g transform="translate(41.6)"><path class="h" d="M402.66,112.69c7.693,0,15.524,0,25.154,5.028,6.073,3.171,9.86,8.2,13.025,14.273a32.859,32.859,0,0,1,3.579,15.977c-.279,5.235-.3,8.9-2.389,13.7" transform="translate(-402.66 -112.69)"/></g><g transform="translate(0.538 1.087)"><path class="m" d="M402.386,113.8A40.818,40.818,0,0,1,446,152.373c.992,18.966,1.863,39.478,1.654,49.807C447.207,224.35,425,227.62,425,227.62s.489,6.575,1.037,14.73A29.209,29.209,0,0,1,398.012,273.5h0a29.2,29.2,0,0,1-30.286-28.1l-3.3-89.353A40.83,40.83,0,0,1,402.386,113.8Z" transform="translate(-364.4 -113.703)"/><g transform="translate(32.162 105.153)"><path class="n" d="M422.811,220.446s-13.625.708-28.444-8.764c0,0,6.707,16.13,28.845,14.31Z" transform="translate(-394.367 -211.682)"/></g><g transform="translate(28.114 30.817)"><g transform="translate(2.061 12.328)"><g transform="translate(33.497)"><g transform="translate(3.122 4.974)"><path class="h" d="M432.956,161.426a3.167,3.167,0,0,1-3.079,3.17,3.028,3.028,0,0,1-3.24-2.881,3.168,3.168,0,0,1,3.075-3.173A3.031,3.031,0,0,1,432.956,161.426Z" transform="translate(-426.636 -158.539)"/></g><path class="h" d="M436.24,157.284c-.395.409-2.78-1.386-6.188-1.4-3.4-.068-5.917,1.666-6.284,1.246-.179-.186.226-.928,1.321-1.713a8.688,8.688,0,0,1,5.034-1.508,8.342,8.342,0,0,1,4.921,1.632C436.086,156.349,436.435,157.1,436.24,157.284Z" transform="translate(-423.727 -153.904)"/></g><g transform="translate(0 0.369)"><g transform="translate(3.205 4.606)"><path class="h" d="M401.822,161.426a3.165,3.165,0,0,1-3.078,3.169,3.027,3.027,0,0,1-3.241-2.879,3.167,3.167,0,0,1,3.076-3.172A3.03,3.03,0,0,1,401.822,161.426Z" transform="translate(-395.502 -158.54)"/></g><path class="h" d="M405.03,157.625c-.4.41-2.784-1.384-6.189-1.4-3.4-.067-5.918,1.667-6.284,1.246-.179-.186.222-.928,1.322-1.712a8.671,8.671,0,0,1,5.033-1.508,8.34,8.34,0,0,1,4.922,1.631C404.872,156.693,405.223,157.443,405.03,157.625Z" transform="translate(-392.516 -154.248)"/></g><g transform="translate(23.307 0.71)"><path class="h" d="M415.6,182.969c-.014-.194,2.107-.543,5.542-.954.87-.083,1.7-.249,1.847-.841a4.424,4.424,0,0,0-.56-2.584q-1.2-3.167-2.52-6.644c-3.5-9.462-6.022-17.238-5.641-17.376s3.528,7.42,7.025,16.881q1.262,3.5,2.412,6.685a5.032,5.032,0,0,1,.425,3.417,2.185,2.185,0,0,1-1.441,1.261,5.93,5.93,0,0,1-1.479.194C417.756,183.164,415.614,183.162,415.6,182.969Z" transform="translate(-414.233 -154.566)"/></g><g transform="translate(14.063 31.389)"><path class="h" d="M406.188,183.152c.555-.027.532,3.671,3.676,6.321s7.085,2.275,7.11,2.792c.049.232-.884.712-2.549.743a9.207,9.207,0,0,1-5.936-2.122,8.02,8.02,0,0,1-2.845-5.3C405.515,184.042,405.934,183.129,406.188,183.152Z" transform="translate(-405.62 -183.152)"/></g></g><g transform="translate(0 0.123)"><path class="h" d="M406.157,145.139c-.343.923-3.742.457-7.742.907-4.012.369-7.244,1.513-7.768.678-.233-.4.336-1.266,1.646-2.153a13.556,13.556,0,0,1,11.816-1.208C405.572,143.966,406.3,144.7,406.157,145.139Z" transform="translate(-390.596 -142.531)"/></g><g transform="translate(35.997)"><path class="h" d="M435.732,145.994c-.605.769-2.945-.053-5.769-.113-2.819-.16-5.216.478-5.759-.336-.238-.395.144-1.167,1.194-1.891a8.351,8.351,0,0,1,9.289.362C435.678,144.819,436,145.618,435.732,145.994Z" transform="translate(-424.136 -142.417)"/></g></g></g><g transform="translate(0 0)"><path class="h" d="M364.724,163.034s.964,5.126,1.222,7.441c.094.845-.016,10.24,2.266,10.709,1.963.4,5.863-1.383,7.6-5.268s5.041-13.207,4.684-17.447c-.487-5.783-.757-11.657.4-17.344s3.873-11.233,8.445-14.809,11.16-4.827,16.347-2.225c3.2,1.607,5.6,4.452,8.579,6.433a13.315,13.315,0,0,0,9.144,2.379,8.6,8.6,0,0,0,7.067-5.794c.95-3.385-.794-7.091-3.5-9.332s-6.207-3.269-9.655-3.954c-9.561-1.9-19.7-1.522-28.784,2.01s-17.147,10.313-21.031,19.254c-4.49,10.339-3.968,16.679-2.783,27.949" transform="translate(-363.898 -112.69)"/></g><g transform="translate(21.096 36.946)"><path class="h" d="M413.967,162.406a26.407,26.407,0,0,0-.576-3.652,15.014,15.014,0,0,0-5.494-8.167,14.819,14.819,0,0,0-14.04-2.09,14.835,14.835,0,0,0-6.869,5.165,14.733,14.733,0,0,0,0,17.485,14.847,14.847,0,0,0,6.869,5.167,14.937,14.937,0,0,0,19.534-10.257,26.409,26.409,0,0,0,.576-3.651.792.792,0,0,1,.016.244l-.009.719a6.846,6.846,0,0,1-.091,1.167,10.614,10.614,0,0,1-.281,1.574,15.168,15.168,0,0,1-11.877,11.322,15.315,15.315,0,0,1-8.044-.634,15.317,15.317,0,0,1-7.135-5.326,15.235,15.235,0,0,1,0-18.133,15.329,15.329,0,0,1,7.134-5.325,15.312,15.312,0,0,1,8.043-.634A15.164,15.164,0,0,1,413.6,158.7a10.5,10.5,0,0,1,.282,1.576,6.846,6.846,0,0,1,.091,1.167l.009.719A.8.8,0,0,1,413.967,162.406Z" transform="translate(-383.555 -147.116)"/><g transform="translate(39.025)"><path class="h" d="M450.33,162.406a26.415,26.415,0,0,0-.576-3.652,15.019,15.019,0,0,0-5.494-8.167,14.819,14.819,0,0,0-14.04-2.09,14.836,14.836,0,0,0-6.869,5.165,14.736,14.736,0,0,0,0,17.485,14.858,14.858,0,0,0,6.87,5.167,14.937,14.937,0,0,0,19.534-10.257,26.417,26.417,0,0,0,.576-3.651.792.792,0,0,1,.016.244c0,.2-.005.433-.009.719a6.849,6.849,0,0,1-.091,1.167,10.492,10.492,0,0,1-.282,1.574,15.165,15.165,0,0,1-11.876,11.322,15.315,15.315,0,0,1-8.044-.634,15.318,15.318,0,0,1-7.135-5.326,15.235,15.235,0,0,1,0-18.133,15.315,15.315,0,0,1,7.134-5.325,15.311,15.311,0,0,1,8.043-.634A15.164,15.164,0,0,1,449.964,158.7a10.5,10.5,0,0,1,.282,1.576,6.848,6.848,0,0,1,.091,1.167c0,.287.006.523.009.719A.8.8,0,0,1,450.33,162.406Z" transform="translate(-419.918 -147.116)"/></g><g transform="translate(30.209 12.193)"><path class="h" d="M421.156,159.967a7.66,7.66,0,0,1-1.391-.481,8.961,8.961,0,0,0-6.743.449c-.8.391-1.258.73-1.316.661-.043-.046.327-.5,1.125-1.007a7.725,7.725,0,0,1,7.077-.471C420.764,159.512,421.193,159.915,421.156,159.967Z" transform="translate(-411.703 -158.477)"/></g></g><g transform="translate(64.727 7.309)"><path class="h" d="M426.286,125.417c.218-1.15-.16-1.8.487-2.267.738-.537,2.136.874,2.647,1.436.163.178.685-.522.887-.656a3.856,3.856,0,0,0,.39-1.471c-.1-.8-1.355-1.017-1.948-1.564a5.959,5.959,0,0,0-2.09-1.186,1.991,1.991,0,0,0-2,.118,1.931,1.931,0,0,0-.445,1.5,4.161,4.161,0,0,0,.3,1.562,2.2,2.2,0,0,0,1.067,1.145" transform="translate(-424.209 -119.501)"/></g><g transform="translate(0.003 33.129)"><path class="a" d="M363.9,148.991s10.868,3.986,16.528,6.382l-.32-5.559-15.814-6.255S363.892,147.69,363.9,148.991Z" transform="translate(-363.901 -143.559)"/></g><g transform="translate(1.017 29.913)"><path class="a" d="M364.847,140.573a61.032,61.032,0,0,1,7.694,2.951,60.81,60.81,0,0,1,7.478,3.465,61.082,61.082,0,0,1-7.7-2.951A60.836,60.836,0,0,1,364.847,140.573Z" transform="translate(-364.846 -140.562)"/></g></g></g><g transform="translate(86.088 120.724)"><path class="e" d="M368.211,251.489l-.84-26.311s5.227,24.079,32.6,23.765c26.164-.3,25.685-21.214,25.685-21.214l.934,10.6v42.838l-17.066,69.88-21.792,2.765L363.65,258.291Z" transform="translate(-363.65 -225.178)"/><g transform="translate(4.58 14.992)"><path class="h" d="M422.913,242.045a2.811,2.811,0,0,1-.316.56,14.89,14.89,0,0,1-1.038,1.526,22.44,22.44,0,0,1-4.873,4.717,28.034,28.034,0,0,1-9.1,4.275,32.155,32.155,0,0,1-12.281.85,40,40,0,0,1-11.8-3.551,51.07,51.07,0,0,1-8.616-5.192,59.544,59.544,0,0,1-5.219-4.322c-.592-.537-1.023-.986-1.322-1.281a2.78,2.78,0,0,1-.431-.478,2.825,2.825,0,0,1,.509.395l1.39,1.2c1.207,1.04,2.989,2.509,5.3,4.164a53.541,53.541,0,0,0,8.6,5.046,40.444,40.444,0,0,0,11.65,3.462,32.21,32.21,0,0,0,12.076-.793,28.361,28.361,0,0,0,9.009-4.1,23.914,23.914,0,0,0,4.93-4.529C422.386,242.761,422.864,242.012,422.913,242.045Z" transform="translate(-367.917 -239.147)"/></g></g><g transform="translate(0 121.118)"><g transform="translate(36.349 0.001)"><path class="a" d="M407.621,467.629l-.395-124.179-35.264-90.629-1.185-27.276L349.29,241.8S318,349.47,317.521,345.736s-.011,121.893-.011,121.893Z" transform="translate(-317.304 -225.545)"/><g transform="translate(89.19 116.751)"><path class="h" d="M400.689,459.319c-.155,0-.28-27.982-.28-62.491s.126-62.5.28-62.5.279,27.976.279,62.5S400.843,459.319,400.689,459.319Z" transform="translate(-400.409 -334.331)"/></g></g><g transform="translate(68.649 33.989)"><path class="c" d="M347.4,257.214l4.361,3.3-3.066,20.089,51.476,53.917L353.418,273.13l3.984-15.915Z" transform="translate(-347.4 -257.214)"/></g><g transform="translate(0.199 16.252)"><path class="a" d="M412.017,402.906l-79-23.162-2.616-60,21.666-79.052s-51.647,25.766-55.16,42.163-11.987,56.256-12.889,85.064c-.808,25.759-.924,42.982,4.957,51.2,16.845,23.549,127.859,27.755,172.211-.032" transform="translate(-283.621 -240.688)"/></g><g transform="translate(68.393)"><path class="h" d="M401.181,338.145a1.983,1.983,0,0,1-.258-.29c-.177-.222-.411-.515-.708-.885l-2.683-3.436c-2.332-3.026-5.67-7.36-9.786-12.7-8.238-10.782-19.584-25.634-32.117-42.038q-1.217-1.6-2.417-3.173l-.08-.107.032-.13c1.38-5.5,2.718-10.829,3.995-15.913l.261.334-10-.014h-.255v-.255c.016-6.5.03-12.457.042-17.736v-.106l.083-.063,15.526-11.8,4.262-3.2,1.12-.821a2.711,2.711,0,0,1,.395-.264,2.679,2.679,0,0,1-.357.313l-1.083.87-4.191,3.289-15.413,11.947.084-.168c.013,5.279.027,11.238.042,17.736l-.255-.254,10-.014h.344l-.084.335c-1.27,5.086-2.6,10.418-3.974,15.918l-.049-.237,2.417,3.173c12.483,16.444,23.783,31.331,31.987,42.138l9.644,12.811,2.6,3.5.665.919A2.066,2.066,0,0,1,401.181,338.145Z" transform="translate(-347.162 -225.544)"/></g><g transform="translate(126.271 1.672)"><path class="a" d="M432.449,237.009c-6.3-11.019-9.569-9.873-9.569-9.873l.328,3.928.008,8.253-2.986,35.409-19.14,76.941.395,115.848h72.346L482.837,326.1l-.818-60.92Z" transform="translate(-401.091 -227.102)"/></g><g transform="translate(90.52 39.75)"><path class="a" d="M484.458,262.583s18.727,13.824,20.348,36.063c1.317,18.066,4.34,67.527,4.887,78.295.851,16.77-12.206,56.037-46.2,44.914-20.386-6.67-95.712-32.275-95.712-32.275l5.011-31.988,89.406,5.326,1.775-74.569Z" transform="translate(-367.779 -262.583)"/></g><g transform="translate(49.694 136.715)"><path class="m" d="M374.557,354.66s-25.3-2.736-31.165-1.321c-5.631,1.36-13.652,8.25-13.652,8.25l.115,10,40.71,11.378Z" transform="translate(-329.739 -352.933)"/></g><g transform="translate(126.27 1.706)"><path class="h" d="M401.091,340.1a1.78,1.78,0,0,1,.112-.344l.381-.988c.36-.9.866-2.166,1.513-3.782,1.351-3.308,3.282-8.036,5.662-13.866,2.414-5.858,5.281-12.815,8.464-20.538.8-1.924,1.6-3.932,2.591-5.893.954-1.981,2.08-3.922,3.241-5.884a129.655,129.655,0,0,1,8.035-11.6c1.46-1.884,2.931-3.717,4.452-5.475l-.049.285q-1.61-4.094-3.152-8.017l-.105-.265.27-.092,13.188-4.483-.135.369c-6.118-10.215-11.289-18.85-14.952-24.964-1.809-3.029-3.355-5.449-4.995-6.443a6.566,6.566,0,0,0-2-.81,7.331,7.331,0,0,1-.732-.178,5.541,5.541,0,0,1,.749.1,6.24,6.24,0,0,1,2.066.752,9.1,9.1,0,0,1,2.536,2.46,44.726,44.726,0,0,1,2.629,3.956c3.707,6.092,8.941,14.693,15.132,24.871l.162.266-.3.1-13.176,4.519.165-.357q1.545,3.915,3.163,8.013l.061.157-.112.129c-1.5,1.742-2.975,3.575-4.427,5.449a130.966,130.966,0,0,0-8.009,11.538c-1.157,1.95-2.281,3.876-3.23,5.838-.99,1.94-1.78,3.92-2.593,5.851l-8.576,20.493c-2.449,5.8-4.437,10.508-5.827,13.8l-1.61,3.741-.433.968A1.77,1.77,0,0,1,401.091,340.1Z" transform="translate(-401.09 -227.134)"/></g><g transform="translate(50.04 155.388)"><path class="h" d="M497.493,407.742a2.629,2.629,0,0,1-.313.332l-.963.935a28.3,28.3,0,0,1-4.108,3.117,27.8,27.8,0,0,1-7.523,3.153,30.44,30.44,0,0,1-10.773.685,34.338,34.338,0,0,1-6.168-1.306c-2.1-.669-4.2-1.49-6.422-2.271-4.418-1.6-9.156-3.272-14.142-5.023-9.976-3.493-20.978-7.234-32.568-11.035-23.186-7.617-44.326-14.036-59.647-18.61l-18.159-5.373-4.935-1.466-1.28-.395a2.891,2.891,0,0,1-.43-.152,2.682,2.682,0,0,1,.446.1l1.294.341,4.965,1.365c4.308,1.2,10.533,2.97,18.21,5.2,15.352,4.477,36.517,10.838,59.71,18.457,11.593,3.8,22.595,7.56,32.565,11.081,4.984,1.763,9.717,3.449,14.13,5.072,2.21.788,4.336,1.629,6.393,2.295a34.036,34.036,0,0,0,6.083,1.325,30.322,30.322,0,0,0,10.653-.6A28.052,28.052,0,0,0,492,411.94a30.83,30.83,0,0,0,4.146-3.015c.422-.378.752-.674,1-.892A2.882,2.882,0,0,1,497.493,407.742Z" transform="translate(-330.061 -370.331)"/></g><g transform="translate(29.868 155.053)"><path class="h" d="M331.206,370.515c-.018.116-1.421-.189-3.689-.1a17.007,17.007,0,0,0-3.909.645,18.073,18.073,0,0,0-4.4,2.006,20.5,20.5,0,0,0-6.12,6.29c-1.2,1.932-1.717,3.262-1.817,3.22a3.477,3.477,0,0,1,.3-.957,17.087,17.087,0,0,1,1.178-2.466,19.186,19.186,0,0,1,6.158-6.556,17.422,17.422,0,0,1,4.562-2.032,15.829,15.829,0,0,1,4.039-.545,13.344,13.344,0,0,1,2.727.245A3.4,3.4,0,0,1,331.206,370.515Z" transform="translate(-311.265 -370.019)"/></g><g transform="translate(24.919 145.146)"><path class="h" d="M306.658,363.351c-.017-.009.017-.1.1-.282a2.708,2.708,0,0,1,.5-.7,5.063,5.063,0,0,1,2.806-1.394,14.279,14.279,0,0,1,4.638.011,26.579,26.579,0,0,1,5.5,1.337,24.136,24.136,0,0,1,8.73,5.342,18.51,18.51,0,0,1,2.023,2.369,4.535,4.535,0,0,1,.587.98c-.09.067-.973-1.306-2.883-3.062a25.854,25.854,0,0,0-8.645-5.1,28.253,28.253,0,0,0-5.387-1.353,14.871,14.871,0,0,0-4.5-.132,5.168,5.168,0,0,0-2.725,1.161C306.884,363,306.706,363.379,306.658,363.351Z" transform="translate(-306.654 -360.788)"/></g><g transform="translate(22.401 55.252)"><path class="h" d="M336.323,300.57a9.6,9.6,0,0,1-.362-1.628c-.159-.51-.393-1.121-.635-1.836-.343-.677-.679-1.476-1.17-2.293a32.462,32.462,0,0,0-4.028-5.358,43.16,43.16,0,0,0-6.169-5.426,37.128,37.128,0,0,0-13.489-6.2,28.072,28.072,0,0,0-4.491-.571,9.776,9.776,0,0,1-1.671-.136,9.562,9.562,0,0,1,1.675-.082,23.571,23.571,0,0,1,4.564.4,35.486,35.486,0,0,1,13.738,6.13,41.327,41.327,0,0,1,6.223,5.532,30.769,30.769,0,0,1,3.992,5.511c.477.845.8,1.673,1.115,2.372.221.743.428,1.376.557,1.9A9.587,9.587,0,0,1,336.323,300.57Z" transform="translate(-304.308 -277.027)"/></g><g transform="translate(92.747 135.204)"><path class="h" d="M481.5,386.866a1.88,1.88,0,0,1-.027-.382l-.025-1.123c-.03-.985-.069-2.439-.212-4.306a59.89,59.89,0,0,0-3.176-15.465,21.892,21.892,0,0,0-2.167-4.725,9.278,9.278,0,0,0-4.187-3.55c-3.6-1.549-7.921-1.344-12.321-1.592l-28.809-1.211c-23.805-1.036-44.981-1.93-58.283-2.641l.178-.144c-.8,4.887-1.44,8.764-1.882,11.453q-.336,1.951-.524,3.035c-.06.322-.108.578-.146.779a1.178,1.178,0,0,1-.065.262,1.15,1.15,0,0,1,.018-.268l.1-.785q.154-1.087.435-3.048c.406-2.7.99-6.583,1.727-11.482l.023-.15.156.006,58.29,2.423,28.807,1.255c2.213.112,4.369.162,6.477.335a18.856,18.856,0,0,1,6.008,1.348,9.717,9.717,0,0,1,4.362,3.739,22.1,22.1,0,0,1,2.178,4.829,58.165,58.165,0,0,1,3.021,15.581c.109,1.875.114,3.332.107,4.32-.013.471-.024.842-.031,1.124A1.962,1.962,0,0,1,481.5,386.866Z" transform="translate(-369.854 -351.524)"/></g><g transform="translate(187.066 100.554)"><path class="h" d="M458.019,319.238c.153,0,.279,8.66.279,19.339s-.126,19.342-.279,19.342-.28-8.659-.28-19.342S457.865,319.238,458.019,319.238Z" transform="translate(-457.739 -319.238)"/></g><g transform="translate(0 56.479)"><path class="h" d="M297.546,278.17s-.067.245-.221.713-.42,1.154-.646,2.094c-.522,1.859-1.182,4.635-1.922,8.252-1.494,7.231-3.336,17.811-5.4,31.058-1.025,6.624-2.117,13.914-3.191,21.793-.547,3.934-.885,8.038-1.171,12.284s-.508,8.631-.671,13.143c-.326,9.023-.518,18.554-.258,28.483.076,2.481.167,4.989.375,7.509.063,1.267.27,2.512.427,3.772a30.251,30.251,0,0,0,.914,3.7,21.087,21.087,0,0,0,3.556,6.8,15.331,15.331,0,0,0,6.1,4.7l.034.014.011.005a92.931,92.931,0,0,0,15.913,6.078c5.546,1.661,11.278,3,17.1,4.2a235.435,235.435,0,0,0,38.421,4.679,178.767,178.767,0,0,0,18.341-.479c5.977-.413,11.8-1.038,17.437-1.874a183.923,183.923,0,0,0,31.3-7.274A160.416,160.416,0,0,0,459.3,416.962l.028.349-34.716-12.29-9.348-3.338-2.417-.878c-.542-.2-.816-.315-.816-.315s.285.082.834.264l2.435.827,9.381,3.243,34.773,12.126.409.143-.382.2a159.808,159.808,0,0,1-25.343,10.955,183.542,183.542,0,0,1-31.366,7.347c-5.647.846-11.485,1.479-17.473,1.9a178.712,178.712,0,0,1-18.395.495,235.133,235.133,0,0,1-38.517-4.677c-5.835-1.2-11.58-2.546-17.147-4.215a93.28,93.28,0,0,1-16.013-6.127l.045.019a15.815,15.815,0,0,1-6.357-4.881,21.632,21.632,0,0,1-3.644-6.974,30.848,30.848,0,0,1-.929-3.779c-.159-1.279-.367-2.553-.429-3.821-.2-2.535-.294-5.048-.367-7.536-.25-9.95-.044-19.486.3-28.517q.256-6.774.7-13.154c.3-4.249.644-8.367,1.2-12.311,1.095-7.881,2.21-15.169,3.258-21.792,2.112-13.242,4.01-23.818,5.565-31.042.769-3.614,1.462-6.387,2.016-8.24.243-.936.536-1.616.694-2.083S297.546,278.17,297.546,278.17Z" transform="translate(-283.435 -278.17)"/></g><g transform="translate(49.694 89.046)"><path class="c" d="M329.739,367.6c13.21-14.626,12.629-40.633,5.048-59.087-.7,19.992-3.058,37.719-4.865,57.146" transform="translate(-329.739 -308.515)"/></g><g transform="translate(49.787 92.791)"><path class="h" d="M334.809,312a2.746,2.746,0,0,1,0,.64c-.031.479-.071,1.083-.119,1.826-.13,1.658-.309,3.931-.527,6.707-.471,5.728-1.113,13.514-1.821,22.117-.675,8.608-1.285,16.4-1.734,22.127-.208,2.776-.38,5.048-.5,6.707l-.159,1.823a2.751,2.751,0,0,1-.092.633,2.723,2.723,0,0,1-.019-.64c.014-.479.031-1.084.053-1.829.054-1.588.17-3.884.328-6.72.325-5.673.866-13.5,1.571-22.146s1.422-16.455,1.984-22.107c.292-2.769.53-5.037.7-6.692.091-.738.165-1.34.223-1.816A2.733,2.733,0,0,1,334.809,312Z" transform="translate(-329.826 -312.005)"/></g><g transform="translate(74.105 66.364)"><g transform="translate(12.952)"><path class="h" d="M364.832,287.381c.155,0,.279,5.078.279,11.341s-.124,11.341-.279,11.341-.279-5.076-.279-11.341S364.677,287.381,364.832,287.381Z" transform="translate(-364.553 -287.381)"/></g><g transform="translate(0 19.17)"><g transform="translate(4.614)"><g transform="translate(0.011 0.212)"><path class="c" d="M356.794,323.738a11.614,11.614,0,0,0,2.432,6.015c1.241,1.613,3.765,3.192,5.8,3.076a8.837,8.837,0,0,0,7.8-3.913c2.473-3.937,3.082-12.124,1.1-16.964-1.364-3.329-4.427-6.424-8.023-6.509-4.721-.112-7.681,3.3-8.69,6.753" transform="translate(-356.794 -305.44)"/></g><path class="h" d="M357.209,312.21a7.234,7.234,0,0,1,.874-2.315,9.494,9.494,0,0,1,1.772-2.321,8.227,8.227,0,0,1,3.342-1.963,8.392,8.392,0,0,1,2.245-.359,6.815,6.815,0,0,1,2.457.323,9.68,9.68,0,0,1,4.383,3.143,12.659,12.659,0,0,1,2.578,5.367,23.138,23.138,0,0,1,.479,6.36c-.218,3.36-.878,6.705-2.738,9.262a8.3,8.3,0,0,1-3.563,2.686,9.7,9.7,0,0,1-4.033.678h.032a6.082,6.082,0,0,1-2.891-.716,9.525,9.525,0,0,1-2.173-1.516,10.812,10.812,0,0,1-2.368-3.528,10.367,10.367,0,0,1-.75-2.607,6.734,6.734,0,0,1-.068-.707.708.708,0,0,1,.009-.245,14.526,14.526,0,0,0,1.047,3.451,10.894,10.894,0,0,0,2.378,3.362,9.3,9.3,0,0,0,2.109,1.416,5.7,5.7,0,0,0,2.681.633h.032a8.585,8.585,0,0,0,7.134-3.23c1.732-2.394,2.4-5.683,2.6-8.97.231-4.247-.481-8.525-2.9-11.371a9.264,9.264,0,0,0-4.13-3.029,6.394,6.394,0,0,0-2.3-.333,8.108,8.108,0,0,0-2.144.307,8.027,8.027,0,0,0-3.241,1.813,9.731,9.731,0,0,0-1.8,2.2A20.028,20.028,0,0,0,357.209,312.21Z" transform="translate(-356.784 -305.243)"/></g><g transform="translate(2.102 0.212)"><g transform="translate(0.011 0.212)"><path class="c" d="M354.453,323.936a11.625,11.625,0,0,0,2.431,6.015c1.242,1.613,3.766,3.192,5.8,3.076a8.836,8.836,0,0,0,7.8-3.914c2.473-3.937,3.082-12.123,1.1-16.963-1.363-3.329-4.426-6.424-8.022-6.509-4.721-.112-7.681,3.3-8.69,6.753" transform="translate(-354.453 -305.638)"/></g><path class="h" d="M354.868,312.408a7.233,7.233,0,0,1,.874-2.315,9.493,9.493,0,0,1,1.772-2.321,8.227,8.227,0,0,1,3.342-1.963,8.392,8.392,0,0,1,2.245-.359,6.806,6.806,0,0,1,2.456.323,9.677,9.677,0,0,1,4.384,3.143,12.645,12.645,0,0,1,2.577,5.367,23.133,23.133,0,0,1,.48,6.36c-.218,3.36-.878,6.705-2.739,9.262a8.3,8.3,0,0,1-3.562,2.686,9.7,9.7,0,0,1-4.033.678h.032a6.082,6.082,0,0,1-2.891-.716,9.557,9.557,0,0,1-2.174-1.516,10.846,10.846,0,0,1-2.368-3.528,10.367,10.367,0,0,1-.749-2.607,6.445,6.445,0,0,1-.068-.707c-.005-.161,0-.244.009-.245A14.522,14.522,0,0,0,355.5,327.4a10.876,10.876,0,0,0,2.378,3.362,9.254,9.254,0,0,0,2.108,1.415,5.694,5.694,0,0,0,2.682.634h.032a8.587,8.587,0,0,0,7.134-3.23c1.732-2.394,2.4-5.683,2.6-8.971.231-4.246-.481-8.523-2.9-11.37a9.247,9.247,0,0,0-4.129-3.029,6.394,6.394,0,0,0-2.3-.333,8.044,8.044,0,0,0-5.385,2.12,9.7,9.7,0,0,0-1.8,2.2A20.012,20.012,0,0,0,354.868,312.408Z" transform="translate(-354.442 -305.441)"/></g><g transform="translate(0 5.811)"><g transform="translate(0.242 0.08)"><path class="c" d="M359.136,310.814a5.525,5.525,0,0,0-5.763,3.321,9.528,9.528,0,0,0,.013,7,8.678,8.678,0,0,0,1.787,3.155,4.721,4.721,0,0,0,3.2,1.557,5.577,5.577,0,0,0,4.431-2.619A9.994,9.994,0,0,0,364.319,315c-.489-1.861-1.859-3.768-3.783-3.82" transform="translate(-352.71 -310.732)"/></g><path class="h" d="M360.552,311.185a1.052,1.052,0,0,1,.427-.011,2.965,2.965,0,0,1,1.164.394,5.709,5.709,0,0,1,2.454,3.694,10.143,10.143,0,0,1-.662,6.569,8.553,8.553,0,0,1-2.406,3.158,4.652,4.652,0,0,1-4.142.992,5.776,5.776,0,0,1-3.309-2.7,12.079,12.079,0,0,1-1.378-3.708,8.254,8.254,0,0,1,1.072-6.482,5.761,5.761,0,0,1,3.744-2.381,4.087,4.087,0,0,1,1.224,0,1.222,1.222,0,0,1,.411.116,8.058,8.058,0,0,0-1.6.1,5.7,5.7,0,0,0-3.459,2.394,7.95,7.95,0,0,0-.891,6.152,11.8,11.8,0,0,0,1.343,3.528,5.258,5.258,0,0,0,2.99,2.449,4.12,4.12,0,0,0,3.655-.885,8.125,8.125,0,0,0,2.275-2.944,9.907,9.907,0,0,0,.744-6.263,5.642,5.642,0,0,0-2.184-3.6A4.525,4.525,0,0,0,360.552,311.185Z" transform="translate(-352.484 -310.658)"/></g><g transform="translate(6.446 20.894)"><path class="h" d="M364.125,327.432c-.085.021-.2-.337-.57-.768a4,4,0,0,0-1.832-1.174,10.066,10.066,0,0,0-2.254-.35c-.6-.044-.978-.092-.98-.172s.366-.166.978-.223a6.321,6.321,0,0,1,2.423.211,3.562,3.562,0,0,1,1.987,1.479C364.212,327,364.19,327.425,364.125,327.432Z" transform="translate(-358.49 -324.712)"/></g><g transform="translate(6.635 4.5)"><path class="h" d="M364.956,309.447c.049.047-.165.383-.665.778a5.34,5.34,0,0,1-4.726.854c-.607-.2-.925-.435-.9-.5a8.065,8.065,0,0,0,6.288-1.135Z" transform="translate(-358.666 -309.436)"/></g></g></g><g transform="translate(139.141 13.166)"><g transform="translate(21.631)"><path class="h" d="M433.24,237.816c.009-.017.13.028.353.131a9.9,9.9,0,0,1,.954.493,19.449,19.449,0,0,1,3.216,2.3,23.084,23.084,0,0,1,6.908,10.931,70.026,70.026,0,0,1,2.63,12.724c.185,1.653.287,2.993.349,3.921a7.16,7.16,0,0,1,.027,1.446,7.349,7.349,0,0,1-.244-1.424c-.138-1.028-.314-2.333-.524-3.891a82.109,82.109,0,0,0-2.775-12.616,23.764,23.764,0,0,0-6.637-10.8A36.664,36.664,0,0,0,433.24,237.816Z" transform="translate(-433.239 -237.813)"/></g><g transform="translate(0 31.316)"><g transform="translate(7.86 83.762)"><path class="h" d="M420.813,348.1c3.11-.119,5.6-3.221,8.7-3.054a4.325,4.325,0,1,1-.73,8.615c-3.265-.379-5.176-4.207-8.38-4.942" transform="translate(-420.407 -345.04)"/></g><path class="h" d="M447.725,356.465a18.628,18.628,0,0,1-2.913-.241l.17-1.06c3.845.617,7.073-.016,9.6-1.873,3.177-2.334,5.223-6.511,6.085-12.413l.033-.225c.351-2.337.836-48.241.837-56.956,0-13.613-11.948-15.47-12.457-15.542-.484-.089-11.345-1.9-17.108,12.964-6.034,15.569-15.68,45.574-16.318,49.091-.078.43-.2.964-.334,1.582-1,4.5-3.09,13.871,3.158,19.269,6.965,6.014,12.459,3.687,12.689,3.586l.44.979c-.256.114-6.318,2.735-13.831-3.754-6.734-5.815-4.554-15.607-3.505-20.312.134-.6.25-1.121.326-1.541.643-3.545,10.324-33.677,16.375-49.288,6.095-15.732,18.16-13.66,18.281-13.635s13.358,2.043,13.356,16.6c0,7.179-.477,54.632-.85,57.116l-.032.221c-.9,6.2-3.1,10.612-6.512,13.121A12.328,12.328,0,0,1,447.725,356.465Z" transform="translate(-413.083 -266.992)"/></g><g transform="translate(17.311 42.57)"><path class="h" d="M460.892,291.709a20.056,20.056,0,0,0-2.234-5.35,18.2,18.2,0,0,0-11.134-7.85,20.181,20.181,0,0,0-13.587,1.772,23.95,23.95,0,0,0-4.723,3.384c-.014-.013.07-.126.245-.329a9.352,9.352,0,0,1,.8-.856,16.24,16.24,0,0,1,3.49-2.547,19.953,19.953,0,0,1,13.9-1.967,18.335,18.335,0,0,1,7.08,3.394,17.826,17.826,0,0,1,4.264,4.793,14.228,14.228,0,0,1,1.655,3.993,8.5,8.5,0,0,1,.217,1.155A1.132,1.132,0,0,1,460.892,291.709Z" transform="translate(-429.213 -277.479)"/></g></g><g transform="translate(190.777 139.317)"><path class="h" d="M485.881,371.805a37.153,37.153,0,0,0-1.472-4.578,20,20,0,0,0-7.281-8.735,15.725,15.725,0,0,0-5.907-2.131,52.107,52.107,0,0,0-5.2-.539l-3.535-.245a5.829,5.829,0,0,1-1.292-.177,5.984,5.984,0,0,1,1.3-.041l3.544.068a44.169,44.169,0,0,1,5.262.426,15.719,15.719,0,0,1,6.125,2.168,19.457,19.457,0,0,1,7.344,9.055,17.217,17.217,0,0,1,.979,3.429A4.911,4.911,0,0,1,485.881,371.805Z" transform="translate(-461.196 -355.356)"/></g><g transform="translate(161.325 108.769)"><path class="m" d="M433.754,355.976s10.553-15.986,13.251-18.079,25.731-12.494,28.428-10.822,1.038,5.3,1.038,5.3,9.753-3.416,10.79-2.07a4.822,4.822,0,0,1,0,5.5s5.4-.83,5.4.831a6.832,6.832,0,0,1-3.113,5.6c-2.49,1.867-18.682,12.648-19.98,15.625l-5.245-.319Z" transform="translate(-433.754 -326.893)"/><g transform="translate(30.368 8.977)"><path class="n" d="M462.054,350.793a3.833,3.833,0,0,1,.482-1.008,18.761,18.761,0,0,1,1.734-2.5,29.019,29.019,0,0,1,7.654-6.444,57.747,57.747,0,0,1,9.054-4.255c1.195-.453,2.169-.8,2.846-1.025a4.2,4.2,0,0,1,1.073-.3,4.382,4.382,0,0,1-.994.5l-2.779,1.189a73.15,73.15,0,0,0-8.913,4.367,32.054,32.054,0,0,0-7.64,6.219C462.9,349.448,462.141,350.845,462.054,350.793Z" transform="translate(-462.051 -335.257)"/></g><g transform="translate(16.981 5.269)"><path class="n" d="M449.58,350.786a5.593,5.593,0,0,1,.511-1.175c.364-.738.9-1.8,1.624-3.089a29.469,29.469,0,0,1,2.908-4.307,13.623,13.623,0,0,1,2.212-2.19c.89-.6,1.828-1.164,2.8-1.74a77,77,0,0,1,10.3-5.139,29.937,29.937,0,0,1,3.315-1.11,5.55,5.55,0,0,1,1.264-.225c.023.094-1.749.505-4.429,1.7a97.737,97.737,0,0,0-10.171,5.254c-.961.57-1.9,1.132-2.77,1.71a13.7,13.7,0,0,0-2.127,2.071,32.591,32.591,0,0,0-2.962,4.175l-1.772,2.991A5.743,5.743,0,0,1,449.58,350.786Z" transform="translate(-449.576 -331.802)"/></g></g></g></g></g><g transform="translate(38.04 480.883)"><path class="h" d="M761.3,451.4c0,.155-161.921.28-361.615.28-199.763,0-361.649-.126-361.649-.28s161.887-.279,361.649-.279C599.383,451.12,761.3,451.246,761.3,451.4Z" transform="translate(-38.04 -451.12)"/></g></g></svg>